<svg version="1.1" id="图层_1" xmlns="http://www.w3.org/2000/svg" xmlns:xlink="http://www.w3.org/1999/xlink" x="0px" y="0px"
	 viewBox="0 0 52.6 46" style="enable-background:new 0 0 52.6 46;" xml:space="preserve">
<style type="text/css">
	.st0{fill:url(#SVGID_1_);}
	.st1{fill:url(#SVGID_00000146491098875861543750000016091119654764155298_);}
	.st2{fill:#187E28;}
	.st3{fill:#858C8C;}
</style>
<g>
	<g>
		
			<linearGradient id="SVGID_1_" gradientUnits="userSpaceOnUse" x1="53.9969" y1="81.9483" x2="53.9969" y2="82.8854" gradientTransform="matrix(36.5915 0 0 -32.4267 -1956.5331 2690.8428)">
			<stop  offset="0" style="stop-color:#78D431"/>
			<stop  offset="1" style="stop-color:#9EEE69"/>
			<stop  offset="1" style="stop-color:#9EEE69"/>
		</linearGradient>
		<path class="st0" d="M1,18.3c0,4.6,2.5,8.8,6.3,11.6c0.3,0.2,0.5,0.6,0.5,1c0,0.1-0.1,0.3-0.1,0.4c-0.3,1.1-0.8,3-0.8,3.1
			c-0.1,0.2-0.1,0.3-0.1,0.5c0,0.3,0.3,0.6,0.6,0.6c0.1,0,0.2-0.1,0.3-0.1l4-2.3c0.3-0.2,0.6-0.3,1-0.3c0.2,0,0.4,0,0.6,0.1
			c1.9,0.6,3.9,0.9,6,0.9c10.1,0,18.3-6.9,18.3-15.3S29.4,3,19.3,3S1,9.9,1,18.3"/>
		
			<linearGradient id="SVGID_00000129206591534520713590000010193166856053292724_" gradientUnits="userSpaceOnUse" x1="53.6919" y1="81.7433" x2="53.6919" y2="82.679" gradientTransform="matrix(30.4194 0 0 -27.2444 -1596.937 2269.4438)">
			<stop  offset="0" style="stop-color:#E4E6E6"/>
			<stop  offset="1" style="stop-color:#F5F5FF"/>
		</linearGradient>
		<path style="fill:url(#SVGID_00000129206591534520713590000010193166856053292724_);" d="M36.3,42.6c1.7,0,3.4-0.2,5-0.7
			c0.1-0.1,0.3-0.1,0.5-0.1c0.3,0,0.6,0.1,0.8,0.2l3.3,1.9c0.1,0.1,0.2,0.1,0.3,0.1c0.3,0,0.5-0.2,0.5-0.5c0-0.1-0.1-0.2-0.1-0.4
			c0-0.1-0.5-1.6-0.7-2.6c-0.1-0.1-0.1-0.2-0.1-0.3c0-0.3,0.2-0.6,0.5-0.9c3.2-2.3,5.2-5.8,5.2-9.7c0-7.1-6.8-12.9-15.2-12.9
			s-15.2,5.7-15.2,12.9C21.1,36.9,27.9,42.6,36.3,42.6z"/>
		<path class="st2" d="M15.5,13.4c0,1.3-1,2.4-2.4,2.4s-2.4-1-2.4-2.4s1-2.4,2.4-2.4S15.5,12,15.5,13.4 M27.7,13.4
			c0,1.3-1,2.4-2.4,2.4s-2.4-1-2.4-2.4s1-2.4,2.4-2.4S27.7,12,27.7,13.4"/>
		<path class="st3" d="M39.5,25.8c0,1.2,0.9,2.1,2.1,2.1s2.1-0.9,2.1-2.1s-0.9-2.1-2.1-2.1S39.5,24.7,39.5,25.8 M29.4,25.8
			c0,1.2,0.9,2.1,2.1,2.1s2.1-0.9,2.1-2.1s-0.9-2.1-2.1-2.1S29.4,24.7,29.4,25.8"/>
	</g>
</g>
</svg>
