<?xml version="1.0" encoding="UTF-8"?><svg id="a" xmlns="http://www.w3.org/2000/svg" xmlns:xlink="http://www.w3.org/1999/xlink" viewBox="0 0 1047.64 987.6"><defs><style>.d{fill:url(#c);}.e{fill:url(#b);}</style><linearGradient id="b" x1="0" y1="542.11" x2="890.97" y2="542.11" gradientTransform="matrix(1, 0, 0, 1, 0, 0)" gradientUnits="userSpaceOnUse"><stop offset="0" stop-color="#ff306a"/><stop offset="1" stop-color="#ff7b46"/></linearGradient><linearGradient id="c" x1="757.74" y1="144.95" x2="1047.64" y2="144.95" gradientTransform="matrix(1, 0, 0, 1, 0, 0)" gradientUnits="userSpaceOnUse"><stop offset="0" stop-color="#e6c75b"/><stop offset="1" stop-color="#f3eb64"/></linearGradient></defs><path d="M312.11,396.11L424.63,110.82c7.46-18.92,34.24-18.92,41.71,0l112.52,285.29c2.28,5.78,6.85,10.35,12.63,12.63l285.29,112.52c18.92,7.46,18.92,34.24,0,41.71l-285.29,112.52c-5.78,2.28-10.35,6.85-12.63,12.63l-112.52,285.29c-7.46,18.92-34.24,18.92-41.71,0l-112.52-285.29c-2.28-5.78-6.85-10.35-12.63-12.63L14.19,562.97c-18.92-7.46-18.92-34.24,0-41.71l285.29-112.52c5.78-2.28,10.35-6.85,12.63-12.63Z" style="fill:url(#b);"/><path d="M859.3,97.44L895.91,4.62c2.43-6.16,11.14-6.16,13.57,0l36.61,92.82c.74,1.88,2.23,3.37,4.11,4.11l92.82,36.61c6.16,2.43,6.16,11.14,0,13.57l-92.82,36.61c-1.88,.74-3.37,2.23-4.11,4.11l-36.61,92.82c-2.43,6.16-11.14,6.16-13.57,0l-36.61-92.82c-.74-1.88-2.23-3.37-4.11-4.11l-92.82-36.61c-6.16-2.43-6.16-11.14,0-13.57l92.82-36.61c1.88-.74,3.37-2.23,4.11-4.11Z" style="fill:url(#c);"/></svg>