<?xml version="1.0" encoding="UTF-8"?><svg id="a" xmlns="http://www.w3.org/2000/svg" xmlns:xlink="http://www.w3.org/1999/xlink" viewBox="0 0 817 371"><defs><style>.r{fill:url(#l);}.s{fill:url(#c);}.t{fill:url(#m);}.u{fill:url(#f);}.v{fill:url(#p);}.w{fill:url(#g);}.x{fill:url(#b);}.y{fill:url(#i);}.a`{fill:url(#h);}.aa{fill:url(#d);}.ab{fill:url(#e);}.ac{fill:url(#n);}.ad{fill:url(#j);}.ae{fill:url(#o);}.af{fill:url(#q);}.ag{fill:url(#k);}</style><linearGradient id="b" x1="74.73" y1="192.5" x2="310.27" y2="192.5" gradientTransform="matrix(1, 0, 0, 1, 0, 0)" gradientUnits="userSpaceOnUse"><stop offset="0" stop-color="#ff306a"/><stop offset="1" stop-color="#ff7b46"/></linearGradient><linearGradient id="c" x1="275.05" y1="87.5" x2="351.69" y2="87.5" gradientTransform="matrix(1, 0, 0, 1, 0, 0)" gradientUnits="userSpaceOnUse"><stop offset="0" stop-color="#e6c75b"/><stop offset="1" stop-color="#f3eb64"/></linearGradient><linearGradient id="d" x1="394.85" y1="254.73" x2="780.08" y2="189.95" xlink:href="#c"/><linearGradient id="e" x1="397.47" y1="270.32" x2="782.7" y2="205.54" xlink:href="#c"/><linearGradient id="f" x1="398.85" y1="278.55" x2="784.08" y2="213.77" xlink:href="#c"/><linearGradient id="g" x1="400.24" y1="286.77" x2="785.46" y2="222" xlink:href="#c"/><linearGradient id="h" x1="401.65" y1="295.16" x2="786.87" y2="230.39" xlink:href="#c"/><linearGradient id="i" x1="403.05" y1="303.47" x2="788.27" y2="238.7" xlink:href="#c"/><linearGradient id="j" x1="402.99" y1="303.14" x2="788.22" y2="238.36" xlink:href="#c"/><linearGradient id="k" x1="390.05" y1="144.4" x2="690.05" y2="93.27" xlink:href="#b"/><linearGradient id="l" x1="393.21" y1="162.93" x2="693.21" y2="111.79" xlink:href="#b"/><linearGradient id="m" x1="392.86" y1="160.9" x2="692.86" y2="109.76" xlink:href="#b"/><linearGradient id="n" x1="395.47" y1="176.2" x2="695.47" y2="125.06" xlink:href="#b"/><linearGradient id="o" x1="396.32" y1="181.17" x2="696.32" y2="130.03" xlink:href="#b"/><linearGradient id="p" x1="396.02" y1="179.43" x2="696.02" y2="128.3" xlink:href="#b"/><linearGradient id="q" x1="398.32" y1="192.95" x2="698.32" y2="141.81" xlink:href="#b"/></defs><g><path d="M157.24,153.9l29.75-75.42c1.97-5,9.05-5,11.03,0l29.75,75.42c.6,1.53,1.81,2.74,3.34,3.34l75.42,29.75c5,1.97,5,9.05,0,11.03l-75.42,29.75c-1.53,.6-2.74,1.81-3.34,3.34l-29.75,75.42c-1.97,5-9.05,5-11.03,0l-29.75-75.42c-.6-1.53-1.81-2.74-3.34-3.34l-75.42-29.75c-5-1.97-5-9.05,0-11.03l75.42-29.75c1.53-.6,2.74-1.81,3.34-3.34Z" style="fill:url(#b);"/><path d="M301.9,74.94l9.68-24.54c.64-1.63,2.95-1.63,3.59,0l9.68,24.54c.2,.5,.59,.89,1.09,1.09l24.54,9.68c1.63,.64,1.63,2.95,0,3.59l-24.54,9.68c-.5,.2-.89,.59-1.09,1.09l-9.68,24.54c-.64,1.63-2.95,1.63-3.59,0l-9.68-24.54c-.2-.5-.59-.89-1.09-1.09l-24.54-9.68c-1.63-.64-1.63-2.95,0-3.59l24.54-9.68c.5-.2,.89-.59,1.09-1.09Z" style="fill:url(#c);"/></g><g><g><path d="M441.49,271.05l-2.89-7.61h-24.65l-2.89,7.77c-1.13,3.03-2.09,5.08-2.89,6.14-.8,1.06-2.11,1.59-3.93,1.59-1.54,0-2.91-.57-4.09-1.7-1.19-1.13-1.78-2.41-1.78-3.85,0-.83,.14-1.68,.41-2.56,.28-.88,.73-2.11,1.37-3.68l15.51-39.37c.44-1.13,.97-2.49,1.59-4.07,.62-1.58,1.28-2.9,1.99-3.95s1.63-1.9,2.77-2.54c1.14-.65,2.56-.97,4.24-.97s3.14,.32,4.28,.97c1.14,.65,2.07,1.48,2.77,2.5,.7,1.02,1.3,2.12,1.78,3.29,.48,1.17,1.1,2.74,1.84,4.69l15.84,39.12c1.24,2.98,1.86,5.14,1.86,6.49s-.59,2.7-1.76,3.87c-1.17,1.17-2.58,1.76-4.24,1.76-.97,0-1.79-.17-2.48-.52-.69-.34-1.27-.81-1.74-1.41-.47-.59-.97-1.5-1.51-2.73-.54-1.23-1-2.31-1.38-3.25Zm-24.31-16.83h18.11l-9.14-25.02-8.97,25.02Z" style="fill:url(#d);"/><path d="M503.31,264.97c0,1.41-.42,2.91-1.26,4.51-.84,1.6-2.12,3.12-3.85,4.57-1.72,1.45-3.89,2.61-6.51,3.49-2.62,.88-5.57,1.32-8.85,1.32-6.97,0-12.42-2.03-16.33-6.1-3.92-4.07-5.87-9.52-5.87-16.35,0-4.63,.9-8.73,2.69-12.28,1.79-3.56,4.38-6.31,7.77-8.25,3.39-1.94,7.44-2.92,12.16-2.92,2.92,0,5.6,.43,8.04,1.28,2.44,.85,4.51,1.96,6.2,3.31,1.7,1.35,2.99,2.79,3.89,4.32s1.34,2.96,1.34,4.28-.5,2.5-1.51,3.43c-1.01,.94-2.23,1.41-3.66,1.41-.94,0-1.72-.24-2.34-.72s-1.32-1.26-2.09-2.34c-1.38-2.09-2.82-3.67-4.32-4.71-1.5-1.05-3.41-1.57-5.73-1.57-3.33,0-6.02,1.3-8.06,3.91-2.04,2.6-3.06,6.17-3.06,10.69,0,2.12,.26,4.07,.79,5.85,.52,1.78,1.28,3.29,2.27,4.55,.99,1.25,2.19,2.21,3.6,2.85,1.41,.65,2.95,.97,4.63,.97,2.26,0,4.2-.52,5.81-1.57,1.61-1.05,3.04-2.65,4.28-4.8,.69-1.27,1.43-2.26,2.23-2.98,.8-.72,1.78-1.08,2.94-1.08,1.38,0,2.52,.52,3.43,1.57,.91,1.05,1.36,2.16,1.36,3.35Z" style="fill:url(#e);"/><path d="M553.64,264.97c0,1.41-.42,2.91-1.26,4.51-.84,1.6-2.12,3.12-3.85,4.57-1.72,1.45-3.89,2.61-6.51,3.49-2.62,.88-5.57,1.32-8.85,1.32-6.97,0-12.42-2.03-16.33-6.1-3.92-4.07-5.87-9.52-5.87-16.35,0-4.63,.9-8.73,2.69-12.28,1.79-3.56,4.38-6.31,7.77-8.25,3.39-1.94,7.44-2.92,12.16-2.92,2.92,0,5.6,.43,8.04,1.28,2.44,.85,4.51,1.96,6.2,3.31,1.7,1.35,2.99,2.79,3.89,4.32s1.34,2.96,1.34,4.28-.5,2.5-1.51,3.43c-1.01,.94-2.23,1.41-3.66,1.41-.94,0-1.72-.24-2.34-.72s-1.32-1.26-2.09-2.34c-1.38-2.09-2.82-3.67-4.32-4.71-1.5-1.05-3.41-1.57-5.73-1.57-3.33,0-6.02,1.3-8.06,3.91-2.04,2.6-3.06,6.17-3.06,10.69,0,2.12,.26,4.07,.79,5.85,.52,1.78,1.28,3.29,2.27,4.55,.99,1.25,2.19,2.21,3.6,2.85,1.41,.65,2.95,.97,4.63,.97,2.26,0,4.2-.52,5.81-1.57,1.61-1.05,3.04-2.65,4.28-4.8,.69-1.27,1.43-2.26,2.23-2.98,.8-.72,1.78-1.08,2.94-1.08,1.38,0,2.52,.52,3.43,1.57,.91,1.05,1.36,2.16,1.36,3.35Z" style="fill:url(#f);"/><path d="M605.74,256c0,3.36-.52,6.46-1.57,9.3-1.05,2.84-2.56,5.28-4.55,7.32-1.98,2.04-4.36,3.6-7.11,4.69s-5.86,1.63-9.3,1.63-6.49-.55-9.22-1.65c-2.73-1.1-5.09-2.68-7.09-4.73-2-2.05-3.52-4.48-4.55-7.28-1.03-2.8-1.55-5.89-1.55-9.28s.52-6.55,1.57-9.39c1.05-2.84,2.55-5.26,4.51-7.28,1.96-2.01,4.33-3.56,7.11-4.65,2.78-1.09,5.86-1.63,9.22-1.63s6.52,.55,9.3,1.65,5.17,2.67,7.15,4.71c1.99,2.04,3.49,4.47,4.53,7.28s1.55,5.91,1.55,9.3Zm-11.33,0c0-4.6-1.01-8.19-3.04-10.75-2.03-2.56-4.75-3.85-8.17-3.85-2.21,0-4.15,.57-5.83,1.72-1.68,1.14-2.98,2.83-3.89,5.07-.91,2.23-1.36,4.84-1.36,7.82s.45,5.53,1.34,7.73c.9,2.21,2.18,3.89,3.85,5.07,1.67,1.17,3.63,1.76,5.89,1.76,3.42,0,6.14-1.29,8.17-3.87,2.03-2.58,3.04-6.14,3.04-10.69Z" style="fill:url(#g);"/><path d="M643.95,272.58v-1.45c-1.35,1.71-2.77,3.14-4.26,4.3-1.49,1.16-3.12,2.02-4.88,2.58-1.76,.56-3.78,.85-6.04,.85-2.73,0-5.18-.57-7.34-1.7-2.17-1.13-3.84-2.69-5.02-4.67-1.41-2.4-2.11-5.84-2.11-10.34v-22.37c0-2.26,.51-3.95,1.53-5.07s2.37-1.67,4.05-1.67,3.09,.57,4.13,1.7c1.05,1.13,1.57,2.81,1.57,5.04v18.07c0,2.62,.22,4.82,.66,6.59,.44,1.78,1.23,3.17,2.38,4.18,1.14,1.01,2.69,1.51,4.65,1.51s3.69-.57,5.38-1.7c1.68-1.13,2.91-2.6,3.68-4.42,.63-1.6,.95-5.1,.95-10.5v-13.73c0-2.23,.52-3.91,1.57-5.04,1.05-1.13,2.41-1.7,4.09-1.7s3.03,.56,4.05,1.67c1.02,1.12,1.53,2.8,1.53,5.07v32.71c0,2.15-.49,3.76-1.47,4.84-.98,1.08-2.24,1.61-3.78,1.61s-2.82-.56-3.83-1.67c-1.01-1.12-1.51-2.68-1.51-4.69Z" style="fill:url(#h);"/><path d="M676.03,239.29v1.36c1.99-2.62,4.16-4.54,6.51-5.77,2.36-1.23,5.07-1.84,8.13-1.84s5.64,.65,7.98,1.94c2.34,1.3,4.09,3.13,5.25,5.5,.74,1.38,1.23,2.87,1.45,4.47,.22,1.6,.33,3.64,.33,6.12v21.01c0,2.26-.52,3.97-1.55,5.13-1.03,1.16-2.38,1.74-4.03,1.74s-3.05-.59-4.09-1.78c-1.05-1.19-1.57-2.88-1.57-5.09v-18.81c0-3.72-.52-6.57-1.55-8.54-1.03-1.97-3.09-2.96-6.18-2.96-2.01,0-3.85,.6-5.5,1.8-1.65,1.2-2.87,2.85-3.64,4.94-.55,1.68-.83,4.82-.83,9.43v14.14c0,2.29-.53,4-1.59,5.15-1.06,1.14-2.43,1.72-4.11,1.72s-2.96-.59-4.01-1.78c-1.05-1.19-1.57-2.88-1.57-5.09v-32.63c0-2.15,.47-3.76,1.41-4.82,.94-1.06,2.22-1.59,3.85-1.59,.99,0,1.89,.23,2.69,.7s1.44,1.17,1.92,2.11c.48,.94,.72,2.08,.72,3.43Z" style="fill:url(#i);"/><path d="M717.55,234.04h1.24v-6.78c0-1.82,.05-3.25,.14-4.28,.1-1.03,.37-1.92,.81-2.67,.44-.77,1.08-1.4,1.9-1.88,.83-.48,1.75-.72,2.77-.72,1.43,0,2.73,.54,3.89,1.61,.77,.72,1.26,1.59,1.47,2.63,.21,1.03,.31,2.5,.31,4.4v7.69h4.14c1.6,0,2.82,.38,3.66,1.14,.84,.76,1.26,1.73,1.26,2.92,0,1.52-.6,2.58-1.8,3.18-1.2,.61-2.92,.91-5.15,.91h-2.11v20.76c0,1.76,.06,3.12,.19,4.07s.46,1.72,.99,2.32c.54,.59,1.41,.89,2.63,.89,.66,0,1.56-.12,2.69-.35,1.13-.23,2.01-.35,2.65-.35,.91,0,1.73,.37,2.46,1.1,.73,.73,1.1,1.63,1.1,2.71,0,1.82-.99,3.21-2.98,4.18-1.98,.96-4.84,1.45-8.56,1.45-3.53,0-6.2-.59-8.02-1.78-1.82-1.19-3.01-2.83-3.58-4.92-.57-2.09-.85-4.89-.85-8.39v-21.67h-1.49c-1.63,0-2.87-.39-3.72-1.16-.86-.77-1.28-1.75-1.28-2.94s.45-2.16,1.34-2.92c.9-.76,2.2-1.14,3.91-1.14Z" style="fill:url(#j);"/></g><g><path d="M426.23,147.3h-11.25v17.16c0,2.45-.58,4.32-1.74,5.58-1.16,1.27-2.62,1.9-4.38,1.9s-3.34-.63-4.47-1.88c-1.13-1.25-1.7-3.09-1.7-5.52v-46.73c0-2.7,.62-4.63,1.86-5.79,1.24-1.16,3.21-1.74,5.91-1.74h15.75c4.66,0,8.24,.36,10.75,1.08,2.48,.69,4.62,1.83,6.43,3.43,1.8,1.6,3.18,3.56,4.11,5.87,.94,2.32,1.41,4.92,1.41,7.82,0,6.18-1.9,10.85-5.71,14.04-3.8,3.18-9.47,4.78-17,4.78Zm-2.98-27.79h-8.27v18.52h8.27c2.89,0,5.31-.3,7.26-.91,1.94-.61,3.42-1.6,4.44-2.98,1.02-1.38,1.53-3.18,1.53-5.42,0-2.67-.79-4.85-2.36-6.53-1.76-1.79-5.39-2.69-10.88-2.69Z" style="fill:url(#k);"/><path d="M497.44,149c0,3.36-.52,6.46-1.57,9.3-1.05,2.84-2.56,5.28-4.55,7.32-1.98,2.04-4.36,3.6-7.11,4.69s-5.86,1.63-9.3,1.63-6.49-.55-9.22-1.65c-2.73-1.1-5.09-2.68-7.09-4.73-2-2.05-3.52-4.48-4.55-7.28-1.03-2.8-1.55-5.89-1.55-9.28s.52-6.55,1.57-9.39c1.05-2.84,2.55-5.26,4.51-7.28,1.96-2.01,4.33-3.56,7.11-4.65,2.78-1.09,5.86-1.63,9.22-1.63s6.52,.55,9.3,1.65,5.17,2.67,7.15,4.71c1.99,2.04,3.49,4.47,4.53,7.28s1.55,5.91,1.55,9.3Zm-11.33,0c0-4.6-1.01-8.19-3.04-10.75-2.03-2.56-4.75-3.85-8.17-3.85-2.21,0-4.15,.57-5.83,1.72-1.68,1.14-2.98,2.83-3.89,5.07-.91,2.23-1.36,4.84-1.36,7.82s.45,5.53,1.34,7.73c.9,2.21,2.18,3.89,3.85,5.07,1.67,1.17,3.63,1.76,5.89,1.76,3.42,0,6.14-1.29,8.17-3.87,2.03-2.58,3.04-6.14,3.04-10.69Z" style="fill:url(#l);"/><path d="M506.33,165.08v-48.96c0-2.26,.5-3.97,1.51-5.13,1.01-1.16,2.36-1.74,4.07-1.74s3.09,.57,4.13,1.72c1.05,1.14,1.57,2.86,1.57,5.15v48.96c0,2.29-.53,4-1.59,5.15-1.06,1.14-2.43,1.72-4.11,1.72s-3-.59-4.03-1.78c-1.03-1.19-1.55-2.88-1.55-5.09Z" style="fill:url(#m);"/><path d="M557.81,165.58c-2.73,2.12-5.37,3.71-7.92,4.78-2.55,1.06-5.41,1.59-8.58,1.59-2.89,0-5.44-.57-7.63-1.72s-3.88-2.69-5.07-4.65c-1.19-1.96-1.78-4.08-1.78-6.37,0-3.09,.98-5.72,2.94-7.9,1.96-2.18,4.65-3.64,8.06-4.38,.72-.17,2.5-.54,5.33-1.12,2.84-.58,5.27-1.11,7.3-1.59s4.22-1.07,6.6-1.76c-.14-2.98-.74-5.16-1.8-6.55-1.06-1.39-3.26-2.09-6.6-2.09-2.87,0-5.02,.4-6.47,1.2-1.45,.8-2.69,2-3.72,3.6-1.03,1.6-1.76,2.65-2.19,3.16-.43,.51-1.34,.77-2.75,.77-1.27,0-2.36-.41-3.29-1.22s-1.38-1.85-1.38-3.12c0-1.99,.7-3.91,2.11-5.79,1.41-1.88,3.6-3.42,6.58-4.63,2.98-1.21,6.68-1.82,11.12-1.82,4.96,0,8.86,.59,11.7,1.76,2.84,1.17,4.84,3.03,6.02,5.56s1.76,5.9,1.76,10.09c0,2.65,0,4.89-.02,6.74-.01,1.85-.04,3.9-.06,6.16,0,2.12,.35,4.33,1.05,6.64s1.05,3.78,1.05,4.45c0,1.16-.54,2.21-1.63,3.16s-2.32,1.43-3.7,1.43c-1.16,0-2.3-.54-3.43-1.63-1.13-1.09-2.33-2.67-3.6-4.73Zm-.74-16.33c-1.65,.61-4.06,1.25-7.22,1.92-3.16,.68-5.34,1.17-6.55,1.49-1.21,.32-2.37,.94-3.47,1.86-1.1,.92-1.65,2.21-1.65,3.87s.65,3.16,1.94,4.36,2.99,1.8,5.09,1.8c2.23,0,4.29-.49,6.18-1.47,1.89-.98,3.27-2.24,4.16-3.78,1.02-1.71,1.53-4.52,1.53-8.44v-1.61Z" style="fill:url(#n);"/><path d="M590.81,155.66v9.43c0,2.29-.54,4-1.61,5.15s-2.44,1.72-4.09,1.72-2.96-.58-4.01-1.74c-1.05-1.16-1.57-2.87-1.57-5.13v-31.43c0-5.07,1.83-7.61,5.5-7.61,1.88,0,3.23,.59,4.05,1.78s1.28,2.94,1.36,5.25c1.35-2.32,2.74-4.07,4.16-5.25,1.42-1.19,3.31-1.78,5.69-1.78s4.67,.59,6.91,1.78c2.23,1.19,3.35,2.76,3.35,4.71,0,1.38-.48,2.52-1.43,3.41-.95,.9-1.98,1.34-3.08,1.34-.41,0-1.41-.25-3-.76-1.59-.51-2.98-.77-4.2-.77-1.65,0-3,.43-4.05,1.3-1.05,.87-1.86,2.16-2.44,3.87-.58,1.71-.98,3.74-1.2,6.1-.22,2.36-.33,5.23-.33,8.62Z" style="fill:url(#o);"/><path d="M622.4,120.8c-1.57,0-2.92-.48-4.03-1.45-1.12-.96-1.67-2.33-1.67-4.09,0-1.6,.57-2.92,1.72-3.95,1.14-1.03,2.47-1.55,3.99-1.55s2.76,.47,3.89,1.41c1.13,.94,1.7,2.3,1.7,4.09s-.55,3.09-1.65,4.07c-1.1,.98-2.41,1.47-3.93,1.47Zm5.58,11.66v32.63c0,2.26-.54,3.97-1.61,5.13-1.08,1.16-2.44,1.74-4.09,1.74s-3-.59-4.03-1.78c-1.03-1.19-1.55-2.88-1.55-5.09v-32.29c0-2.23,.52-3.91,1.55-5.04,1.03-1.13,2.38-1.7,4.03-1.7s3.02,.57,4.09,1.7c1.08,1.13,1.61,2.7,1.61,4.71Z" style="fill:url(#p);"/><path d="M675.99,157.19c0,3.12-.76,5.78-2.27,8-1.52,2.22-3.76,3.9-6.72,5.04-2.96,1.14-6.57,1.72-10.81,1.72s-7.53-.62-10.42-1.86-5.03-2.79-6.41-4.65c-1.38-1.86-2.07-3.73-2.07-5.6,0-1.24,.44-2.3,1.32-3.18,.88-.88,2-1.32,3.35-1.32,1.18,0,2.09,.29,2.73,.87,.63,.58,1.24,1.39,1.82,2.44,1.16,2.01,2.54,3.51,4.16,4.51,1.61,.99,3.81,1.49,6.59,1.49,2.26,0,4.12-.5,5.56-1.51,1.45-1.01,2.17-2.16,2.17-3.45,0-1.99-.75-3.43-2.25-4.34-1.5-.91-3.98-1.78-7.42-2.61-3.89-.96-7.05-1.98-9.49-3.04-2.44-1.06-4.39-2.46-5.85-4.2s-2.19-3.87-2.19-6.41c0-2.26,.67-4.4,2.03-6.41,1.35-2.01,3.34-3.62,5.97-4.82s5.81-1.8,9.53-1.8c2.92,0,5.55,.3,7.88,.91,2.33,.61,4.27,1.42,5.83,2.44,1.56,1.02,2.74,2.15,3.56,3.39,.81,1.24,1.22,2.45,1.22,3.64,0,1.3-.43,2.36-1.3,3.18-.87,.83-2.1,1.24-3.7,1.24-1.16,0-2.14-.33-2.96-.99-.81-.66-1.74-1.65-2.79-2.98-.85-1.1-1.86-1.99-3.02-2.65-1.16-.66-2.73-.99-4.71-.99s-3.74,.43-5.09,1.3c-1.35,.87-2.03,1.95-2.03,3.25,0,1.19,.5,2.16,1.49,2.92,.99,.76,2.33,1.39,4.01,1.88,1.68,.5,4,1.1,6.95,1.82,3.5,.85,6.36,1.88,8.58,3.06,2.22,1.19,3.9,2.58,5.04,4.2,1.14,1.61,1.72,3.45,1.72,5.52Z" style="fill:url(#q);"/></g></g></svg>