<?xml version="1.0" standalone="no"?><!DOCTYPE svg PUBLIC "-//W3C//DTD SVG 1.1//EN" "http://www.w3.org/Graphics/SVG/1.1/DTD/svg11.dtd" ><svg xmlns="http://www.w3.org/2000/svg"><metadata></metadata><defs><font id="Font Awesome 6 Brands Regular-6.2.1" horiz-adv-x="640"><font-face font-family="Font Awesome 6 Brands Regular" font-weight="400" font-stretch="normal" units-per-em="512" panose-1="2 0 5 3 0 0 0 0 0 0" ascent="448" descent="-64" x-height="0" bbox="0 -64 640 448" underline-thickness="25" underline-position="-37" unicode-range="U+0021-ffff" /><missing-glyph horiz-adv-x="384" d="M64 58 l90 134 l-90 134 l0 -268 l0 0 ZM103 0 l179 0 l-90 134 l-89 -134 l0 0 ZM231 192 l89 -134 l0 268 l-89 -134 l0 0 ZM282 384 l-179 0 l89 -134 l90 134 l0 0 ZM0 400 q1 20 14 34 l0 0 q14 13 34 14 l288 0 q20 -1 34 -14 q13 -14 14 -34 l0 -416 q-1 -20 -14 -34 q-14 -13 -34 -14 l-288 0 q-20 1 -34 14 q-13 14 -14 34 l0 416 l0 0 Z" /><glyph glyph-name="exclamation" unicode="!&#x2755;&#x2757;&#xf12a;" d="M96 384 q0 14 -9 23 l0 0 q-9 9 -23 9 q-14 0 -23 -9 q-9 -9 -9 -23 l0 -256 q0 -14 9 -23 q9 -9 23 -9 q14 0 23 9 q9 9 9 23 l0 256 l0 0 ZM64 -32 q17 0 28 12 l0 0 q12 11 12 28 q0 17 -12 28 q-11 12 -28 12 q-17 0 -28 -12 q-12 -11 -12 -28 q0 -17 12 -28 q11 -12 28 -12 l0 0 Z" /><glyph glyph-name="hashtag" unicode="#&#xf292;" d="M181 416 q14 -3 21 -13 l0 0 q7 -11 6 -24 l-10 -59 l95 0 l11 69 q3 14 13 21 q11 7 24 6 q14 -3 21 -13 q7 -11 5 -24 l-9 -59 l58 0 q14 0 23 -9 q9 -9 9 -23 q0 -14 -9 -23 q-9 -9 -23 -9 l-69 0 l-21 -128 l58 0 q14 0 23 -9 q9 -9 9 -23 q0 -14 -9 -23 q-9 -9 -23 -9 l-69 0 l-11 -69 q-3 -14 -13 -21 q-11 -7 -24 -6 q-14 3 -21 13 q-7 11 -5 24 l9 59 l-95 0 l-11 -69 q-3 -14 -13 -21 q-11 -8 -24 -6 q-14 3 -21 13 q-7 11 -5 24 l9 59 l-58 0 q-14 0 -23 9 q-9 9 -9 23 q0 14 9 23 q9 9 23 9 l69 0 l21 128 l-58 0 q-14 0 -23 9 q-9 9 -9 23 q0 14 9 23 q9 9 23 9 l69 0 l11 69 q3 14 13 21 q11 7 24 6 l0 0 ZM187 256 l-21 -128 l95 0 l21 128 l-95 0 l0 0 Z" /><glyph glyph-name="dollar-sign" unicode="$&#xf155;&#x1f4b2;" d="M160 448 q14 0 23 -9 l0 0 q9 -9 9 -23 l0 -36 q2 0 5 0 q9 -2 26 -5 q18 -3 29 -5 q13 -4 19 -15 q7 -11 4 -24 q-4 -13 -15 -20 q-11 -6 -24 -4 q-8 2 -24 5 q-15 3 -25 4 q-49 7 -78 -5 q-26 -11 -28 -28 q-2 -15 1 -20 q3 -6 13 -14 q25 -15 73 -26 l3 -1 q22 -6 46 -14 q23 -8 43 -21 q22 -13 36 -39 q12 -27 6 -59 q-6 -29 -23 -48 q-18 -19 -43 -29 q-20 -8 -44 -11 l0 -33 q0 -14 -9 -23 q-9 -9 -23 -9 q-14 0 -23 9 q-9 9 -9 23 l0 35 q0 0 -1 0 q0 0 0 0 l-1 0 l0 0 q-19 3 -44 10 q-26 7 -47 16 q-12 6 -17 18 q-5 12 1 25 q6 12 17 16 q12 5 25 0 q16 -7 38 -13 q21 -6 37 -9 q49 -6 76 5 q25 11 27 29 q2 16 -1 21 q-3 6 -13 13 q-25 15 -74 27 l-2 1 q-22 5 -46 14 q-24 8 -43 20 q-23 14 -36 40 q-12 27 -6 59 q6 29 24 48 q19 19 44 28 q20 8 42 10 l0 35 q0 14 9 23 q9 9 23 9 l0 0 Z" /><glyph glyph-name="percent" unicode="%&#xf295;&#xf541;" d="M375 329 q9 10 9 23 l0 0 q0 13 -9 23 q-10 9 -23 9 q-13 0 -23 -9 l-320 -320 q-9 -10 -9 -23 q0 -13 9 -23 q10 -9 23 -9 q13 0 23 9 l320 320 l0 0 ZM128 320 q-1 27 -19 45 l0 0 q-18 18 -45 19 q-27 -1 -45 -19 q-18 -18 -19 -45 q1 -27 19 -45 q18 -18 45 -19 q27 1 45 19 q18 18 19 45 l0 0 ZM384 64 q-1 27 -19 45 l0 0 q-18 18 -45 19 q-27 -1 -45 -19 q-18 -18 -19 -45 q1 -27 19 -45 q18 -18 45 -19 q27 1 45 19 q18 18 19 45 l0 0 Z" /><glyph glyph-name="asterisk" unicode="*&#x2731;&#xf069;" d="M192 416 q14 0 23 -9 l0 0 q9 -9 9 -23 l0 -136 l112 67 q11 7 24 4 q12 -3 19 -15 q7 -11 4 -24 q-3 -12 -15 -20 l-114 -68 l115 -69 q11 -7 14 -19 q3 -13 -3 -25 q-8 -11 -20 -14 q-13 -3 -24 3 l-112 67 l0 -135 q0 -14 -9 -23 q-9 -9 -23 -9 q-14 0 -23 9 q-9 9 -9 23 l0 135 l-111 -66 q-12 -7 -25 -4 q-12 3 -19 15 q-7 11 -4 24 q3 12 15 19 l114 69 l-114 69 q-12 7 -15 19 q-3 13 4 24 q7 12 19 15 q13 3 24 -4 l112 -67 l0 136 q0 14 9 23 q9 9 23 9 l0 0 Z" /><glyph glyph-name="plus" unicode="+&#x2795;&#xf067;" d="M256 368 q0 14 -9 23 l0 0 q-9 9 -23 9 q-14 0 -23 -9 q-9 -9 -9 -23 l0 -144 l-144 0 q-14 0 -23 -9 q-9 -9 -9 -23 q0 -14 9 -23 q9 -9 23 -9 l144 0 l0 -144 q0 -14 9 -23 q9 -9 23 -9 q14 0 23 9 q9 9 9 23 l0 144 l144 0 q14 0 23 9 q9 9 9 23 q0 14 -9 23 q-9 9 -23 9 l-144 0 l0 144 l0 0 Z" /><glyph glyph-name="0" unicode="0" d="M0 256 q2 68 47 113 l0 0 q45 45 113 47 q68 -2 113 -47 q45 -45 47 -113 l0 -128 q-2 -68 -47 -113 q-45 -45 -113 -47 q-68 2 -113 47 q-45 45 -47 113 l0 128 l0 0 ZM160 352 q-41 -1 -68 -28 l0 0 q-27 -27 -28 -68 l0 -128 q1 -41 28 -68 q27 -27 68 -28 q41 1 68 28 q27 27 28 68 l0 128 q-1 41 -28 68 q-27 27 -68 28 l0 0 Z" /><glyph glyph-name="1" unicode="1" d="M160 384 q-1 19 -17 28 q-17 9 -33 -1 l-96 -64 q-11 -8 -13 -21 q-3 -12 4 -24 q8 -11 21 -13 q12 -3 24 4 l46 31 l0 -292 l-64 0 q-14 0 -23 -9 q-9 -9 -9 -23 q0 -14 9 -23 q9 -9 23 -9 l96 0 l96 0 q14 0 23 9 q9 9 9 23 q0 14 -9 23 q-9 9 -23 9 l-64 0 l0 352 l0 0 Z" /><glyph glyph-name="2" unicode="2" d="M143 352 q-34 0 -58 -24 l-30 -31 q-10 -9 -23 -9 q-13 0 -23 9 q-9 10 -9 23 q0 13 9 23 l31 30 q43 42 103 43 q62 -2 102 -43 q41 -40 43 -102 q-1 -60 -42 -103 l-137 -136 l179 0 q14 0 23 -9 q9 -9 9 -23 q0 -14 -9 -23 q-9 -9 -23 -9 l-256 0 q-21 1 -30 20 q-7 19 7 35 l191 190 q23 24 24 58 q-1 34 -24 57 q-23 23 -57 24 l0 0 Z" /><glyph glyph-name="3" unicode="3" d="M64 384 q0 14 9 23 l0 0 q9 9 23 9 l240 0 q21 -1 30 -20 q7 -21 -8 -36 l-132 -120 l22 0 q58 -1 96 -40 q39 -38 40 -96 q-1 -58 -40 -96 q-38 -39 -96 -40 l-79 0 q-32 0 -58 17 q-27 16 -42 45 l-2 4 q-5 12 -1 24 q4 12 16 19 q12 5 24 1 q12 -4 19 -16 l1 -4 q14 -25 43 -26 l79 0 q31 1 51 21 q20 20 21 51 q-1 31 -21 51 q-20 20 -51 21 l-104 0 q-21 1 -30 20 q-7 21 8 36 l132 120 l-158 0 q-14 0 -23 9 q-9 9 -9 23 l0 0 Z" /><glyph glyph-name="4" unicode="4" d="M189 370 q5 13 1 25 l0 0 q-4 12 -16 18 q-13 5 -25 1 q-12 -4 -18 -16 l-128 -272 q-7 -16 2 -31 q10 -15 27 -15 l224 0 l0 -80 q0 -14 9 -23 q9 -9 23 -9 q14 0 23 9 q9 9 9 23 l0 80 l32 0 q14 0 23 9 q9 9 9 23 q0 14 -9 23 q-9 9 -23 9 l-32 0 l0 144 q0 14 -9 23 q-9 9 -23 9 q-14 0 -23 -9 q-9 -9 -9 -23 l0 -144 l-174 0 l107 226 l0 0 Z" /><glyph glyph-name="5" unicode="5" d="M33 390 q6 24 31 26 l192 0 q14 0 23 -9 q9 -9 9 -23 q0 -14 -9 -23 q-9 -9 -23 -9 l-165 0 l-21 -112 l114 0 q58 -1 96 -40 q39 -38 40 -96 q-1 -58 -40 -96 q-38 -39 -96 -40 l-83 0 q-31 0 -55 16 q-25 15 -38 41 l-5 9 q-5 12 -1 24 q4 12 16 19 q12 5 24 1 q12 -4 19 -16 l4 -8 q11 -21 36 -22 l83 0 q31 1 51 21 q20 20 21 51 q-1 31 -21 51 q-20 20 -51 21 l-152 0 q-15 0 -25 11 q-9 12 -7 27 l33 176 l0 0 Z" /><glyph glyph-name="6" unicode="6" d="M232 363 q9 11 8 24 l0 0 q-1 12 -11 21 q-11 9 -24 8 q-12 -1 -21 -11 l-145 -172 q-37 -43 -39 -100 q0 -1 0 -2 q0 -1 0 -3 q0 0 0 0 q0 0 0 0 q2 -68 47 -113 q45 -45 113 -47 q68 2 113 47 q45 45 47 113 q-2 66 -44 110 q-43 45 -107 50 l63 75 l0 0 ZM64 128 q1 41 28 68 l0 0 q27 27 68 28 q41 -1 68 -28 q27 -27 28 -68 q-1 -41 -28 -68 q-27 -27 -68 -28 q-41 1 -68 28 q-27 27 -28 68 l0 0 Z" /><glyph glyph-name="7" unicode="7" d="M0 384 q0 14 9 23 l0 0 q9 9 23 9 l256 0 q18 -1 28 -16 q8 -16 0 -32 l-224 -384 q-8 -12 -20 -15 q-12 -3 -24 3 q-12 7 -15 20 q-3 12 3 24 l196 336 l-200 0 q-14 0 -23 9 q-9 9 -9 23 l0 0 Z" /><glyph glyph-name="8" unicode="8" d="M304 288 q-1 54 -37 91 l0 0 q-37 36 -91 37 l-32 0 q-54 -1 -91 -37 q-36 -37 -37 -91 q1 -53 36 -89 q-24 -18 -38 -44 q-14 -27 -14 -59 q1 -54 37 -91 q37 -36 91 -37 l64 0 q54 1 91 37 q36 37 37 91 q0 32 -14 59 q-14 26 -38 44 q35 36 36 89 l0 0 ZM176 160 l16 0 q27 -1 45 -19 q18 -18 19 -45 q-1 -27 -19 -45 q-18 -18 -45 -19 l-64 0 q-27 1 -45 19 q-18 18 -19 45 q1 27 19 45 q18 18 45 19 l16 0 q0 0 0 0 q0 0 0 0 l32 0 q0 0 0 0 q0 0 0 0 l0 0 ZM176 224 q0 0 0 0 l0 0 q0 0 0 0 l-32 0 q0 0 0 0 q0 0 0 0 q-27 1 -45 19 q-18 18 -19 45 q1 27 19 45 q18 18 45 19 l32 0 q27 -1 45 -19 q18 -18 19 -45 q-1 -27 -19 -45 q-18 -18 -45 -19 l0 0 Z" /><glyph glyph-name="9" unicode="9" d="M64 256 q1 -41 28 -68 l0 0 q27 -27 68 -28 q41 1 68 28 q27 27 28 68 q-1 41 -28 68 q-27 27 -68 28 q-41 -1 -68 -28 q-27 -27 -28 -68 l0 0 ZM152 96 q-65 5 -108 50 l0 0 q-42 44 -44 110 q2 68 47 113 q45 45 113 47 q68 -2 113 -47 q45 -45 47 -113 q0 -4 0 -8 q-3 -55 -39 -97 l-145 -172 q-9 -10 -21 -11 q-13 -1 -24 8 q-10 9 -11 21 q-1 13 7 24 l64 75 l1 0 Z" /><glyph glyph-name="less-than" unicode="&lt;&#xf536;" d="M381 366 q5 -12 1 -24 l0 0 q-4 -12 -16 -19 l-262 -131 l262 -131 q12 -7 16 -19 q4 -12 -1 -24 q-7 -12 -19 -16 q-12 -4 -24 1 l-320 160 q-17 10 -18 29 q1 19 18 29 l320 160 q12 5 24 1 q12 -4 19 -16 l0 0 Z" /><glyph glyph-name="equals" unicode="=&#xf52c;" d="M48 320 q-14 0 -23 -9 l0 0 q-9 -9 -9 -23 q0 -14 9 -23 q9 -9 23 -9 l352 0 q14 0 23 9 q9 9 9 23 q0 14 -9 23 q-9 9 -23 9 l-352 0 l0 0 ZM48 128 q-14 0 -23 -9 l0 0 q-9 -9 -9 -23 q0 -14 9 -23 q9 -9 23 -9 l352 0 q14 0 23 9 q9 9 9 23 q0 14 -9 23 q-9 9 -23 9 l-352 0 l0 0 Z" /><glyph glyph-name="greater-than" unicode="&gt;&#xf531;" d="M3 366 q-5 -12 -1 -24 l0 0 q4 -12 16 -19 l263 -131 l-263 -131 q-12 -7 -16 -19 q-4 -12 1 -24 q7 -12 19 -16 q12 -4 24 1 l320 160 q17 10 18 29 q-1 19 -18 29 l-320 160 q-12 5 -24 1 q-12 -4 -19 -16 l0 0 Z" /><glyph glyph-name="question" unicode="?&#x2753;&#x2754;&#xf128;" d="M96 352 q-14 0 -23 -9 l0 0 q-9 -9 -9 -23 q0 -14 -9 -23 q-9 -9 -23 -9 q-14 0 -23 9 q-9 9 -9 23 q1 41 28 68 q27 27 68 28 l97 0 q54 -1 90 -37 q36 -36 37 -90 q0 -40 -22 -72 q-22 -31 -59 -46 l-63 -25 l0 -18 q0 -14 -9 -23 q-9 -9 -23 -9 q-14 0 -23 9 q-9 9 -9 23 l0 18 q0 20 11 36 q11 16 30 24 l63 24 q18 8 29 23 q11 16 11 36 q-1 27 -18 45 q-18 17 -45 18 l-97 0 l0 0 ZM144 -32 q-17 0 -28 12 l0 0 q-12 11 -12 28 q0 17 12 28 q11 12 28 12 q17 0 28 -12 q12 -11 12 -28 q0 -17 -12 -28 q-11 -12 -28 -12 l0 0 Z" /><glyph glyph-name="at" unicode="@&#xf1fa;" d="M256 384 q-82 -2 -136 -56 l0 0 q-54 -54 -56 -136 q2 -82 56 -136 q54 -54 136 -56 q14 0 23 -9 q9 -9 9 -23 q0 -14 -9 -23 q-9 -9 -23 -9 q-72 1 -129 35 q-58 34 -92 92 q-34 57 -35 129 q1 72 35 129 q34 58 92 92 q57 34 129 35 q72 -1 129 -35 q58 -34 92 -92 q34 -57 35 -129 l0 -32 q-1 -41 -28 -68 q-27 -27 -68 -28 q-45 1 -73 34 q-36 -33 -87 -34 q-54 1 -91 37 q-36 37 -37 91 q1 54 37 91 q37 36 91 37 q43 -1 75 -24 q8 8 21 8 q14 0 23 -9 q9 -9 9 -23 l0 -80 l0 -32 q0 -14 9 -23 q9 -9 23 -9 q14 0 23 9 q9 9 9 23 l0 32 q-2 82 -56 136 q-54 54 -136 56 l0 0 ZM320 192 q-1 27 -19 45 l0 0 q-18 18 -45 19 q-27 -1 -45 -19 q-18 -18 -19 -45 q1 -27 19 -45 q18 -18 45 -19 q27 1 45 19 q18 18 19 45 l0 0 Z" /><glyph glyph-name="a" unicode="Aa" d="M254 396 q-9 19 -30 20 q-21 -1 -29 -20 l-120 -288 l-40 -96 q-5 -12 -1 -24 q5 -12 18 -18 q12 -4 24 0 q12 5 18 18 l31 76 l198 0 l32 -76 q5 -13 17 -18 q12 -4 24 0 q13 6 18 18 q4 12 0 24 l-40 96 l-120 288 l0 0 ZM296 128 l-144 0 l72 173 l72 -173 l0 0 Z" /><glyph glyph-name="b" unicode="Bb" d="M32 416 q-14 0 -23 -9 l0 0 q-9 -9 -9 -23 l0 -192 l0 -192 q0 -14 9 -23 q9 -9 23 -9 l160 0 q54 1 91 37 q36 37 37 91 q0 35 -17 64 q-17 29 -45 46 q29 34 30 82 q-1 54 -37 91 q-37 36 -91 37 l-128 0 l0 0 ZM160 224 l-96 0 l0 128 l96 0 q27 -1 45 -19 q18 -18 19 -45 q-1 -27 -19 -45 q-18 -18 -45 -19 l0 0 ZM64 160 l96 0 l32 0 q27 -1 45 -19 q18 -18 19 -45 q-1 -27 -19 -45 q-18 -18 -45 -19 l-128 0 l0 128 l0 0 Z" /><glyph glyph-name="c" unicode="Cc" d="M329 305 q-49 47 -109 47 l0 0 q-60 0 -109 -47 q-47 -49 -47 -113 q0 -64 47 -113 q49 -47 109 -47 q60 0 109 47 q10 9 23 9 q13 0 22 -9 q10 -10 10 -23 q0 -13 -10 -23 q-68 -65 -154 -65 q-86 0 -154 65 q-44 45 -59 102 q-14 57 0 114 q15 57 59 101 q68 66 154 66 q86 0 154 -66 q10 -10 10 -22 q0 -13 -10 -23 q-9 -9 -22 -9 q-13 0 -23 9 l0 0 Z" /><glyph glyph-name="d" unicode="Dd" d="M0 384 q0 14 9 23 l0 0 q9 9 23 9 l128 0 q63 -1 113 -31 q51 -29 80 -80 q30 -50 31 -113 q-1 -63 -31 -113 q-29 -51 -80 -80 q-50 -30 -113 -31 l-128 0 q-14 0 -23 9 q-9 9 -9 23 l0 384 l0 0 ZM64 352 l0 -320 l96 0 q68 2 113 47 q45 45 47 113 q-2 68 -47 113 q-45 45 -113 47 l-96 0 l0 0 Z" /><glyph glyph-name="e" unicode="Ee" d="M32 416 q-14 0 -23 -9 l0 0 q-9 -9 -9 -23 l0 -192 l0 -192 q0 -14 9 -23 q9 -9 23 -9 l256 0 q14 0 23 9 q9 9 9 23 q0 14 -9 23 q-9 9 -23 9 l-224 0 l0 128 l160 0 q14 0 23 9 q9 9 9 23 q0 14 -9 23 q-9 9 -23 9 l-160 0 l0 128 l224 0 q14 0 23 9 q9 9 9 23 q0 14 -9 23 q-9 9 -23 9 l-256 0 l0 0 Z" /><glyph glyph-name="f" unicode="Ff" d="M32 416 q-14 0 -23 -9 l0 0 q-9 -9 -9 -23 l0 -192 l0 -192 q0 -14 9 -23 q9 -9 23 -9 q14 0 23 9 q9 9 9 23 l0 160 l160 0 q14 0 23 9 q9 9 9 23 q0 14 -9 23 q-9 9 -23 9 l-160 0 l0 128 l224 0 q14 0 23 9 q9 9 9 23 q0 14 -9 23 q-9 9 -23 9 l-256 0 l0 0 Z" /><glyph glyph-name="g" unicode="Gg" d="M224 352 q-68 -2 -113 -47 l0 0 q-45 -45 -47 -113 q2 -68 47 -113 q45 -45 113 -47 q59 1 102 37 q43 35 55 91 l-125 0 q-14 0 -23 9 q-9 9 -9 23 q0 14 9 23 q9 9 23 9 l160 0 q14 0 23 -9 q9 -9 9 -23 q-1 -63 -31 -113 q-29 -51 -80 -80 q-50 -30 -113 -31 q-63 1 -113 31 q-51 29 -80 80 q-30 50 -31 113 q1 63 31 113 q29 51 80 80 q50 30 113 31 q88 -2 149 -57 q10 -9 11 -22 q1 -13 -8 -23 q-10 -10 -22 -11 q-13 -1 -23 8 q-44 40 -107 41 l0 0 Z" /><glyph glyph-name="h" unicode="Hh" d="M320 192 l0 -192 q0 -14 9 -23 q9 -9 23 -9 q14 0 23 9 q9 9 9 23 l0 224 l0 160 q0 14 -9 23 q-9 9 -23 9 q-14 0 -23 -9 q-9 -9 -9 -23 l0 -128 l-256 0 l0 128 q0 14 -9 23 q-9 9 -23 9 q-14 0 -23 -9 q-9 -9 -9 -23 l0 -384 q0 -14 9 -23 q9 -9 23 -9 q14 0 23 9 q9 9 9 23 l0 192 l256 0 l0 0 Z" /><glyph glyph-name="i" unicode="Ii" d="M32 416 q-14 0 -23 -9 l0 0 q-9 -9 -9 -23 q0 -14 9 -23 q9 -9 23 -9 l96 0 l0 -320 l-96 0 q-14 0 -23 -9 q-9 -9 -9 -23 q0 -14 9 -23 q9 -9 23 -9 l256 0 q14 0 23 9 q9 9 9 23 q0 14 -9 23 q-9 9 -23 9 l-96 0 l0 320 l96 0 q14 0 23 9 q9 9 9 23 q0 14 -9 23 q-9 9 -23 9 l-128 0 l-128 0 l0 0 Z" /><glyph glyph-name="j" unicode="Jj" d="M288 416 q14 0 23 -9 l0 0 q9 -9 9 -23 l0 -256 q-2 -68 -47 -113 q-45 -45 -113 -47 q-68 2 -113 47 q-45 45 -47 113 l0 32 q0 14 9 23 q9 9 23 9 q14 0 23 -9 q9 -9 9 -23 l0 -32 q1 -41 28 -68 q27 -27 68 -28 q41 1 68 28 q27 27 28 68 l0 256 q0 14 9 23 q9 9 23 9 l0 0 Z" /><glyph glyph-name="k" unicode="Kk" d="M311 362 q9 10 9 22 l0 0 q0 13 -10 23 q-10 9 -22 9 q-13 0 -23 -10 l-155 -160 l-46 -47 l0 185 q0 14 -9 23 q-9 9 -23 9 q-14 0 -23 -9 q-9 -9 -9 -23 l0 -264 l0 -120 q0 -14 9 -23 q9 -9 23 -9 q14 0 23 9 q9 9 9 23 l0 107 l65 67 l133 -192 q8 -11 20 -14 q13 -2 24 6 q11 8 13 20 q3 13 -5 24 l-140 203 l137 141 l0 0 Z" /><glyph glyph-name="l" unicode="Ll" d="M64 416 q14 0 23 -9 l0 0 q9 -9 9 -23 l0 -352 l192 0 q14 0 23 -9 q9 -9 9 -23 q0 -14 -9 -23 q-9 -9 -23 -9 l-224 0 q-14 0 -23 9 q-9 9 -9 23 l0 384 q0 14 9 23 q9 9 23 9 l0 0 Z" /><glyph glyph-name="m" unicode="Mm" d="M23 415 q22 5 36 -13 l165 -248 l165 248 q14 18 36 13 q22 -8 23 -31 l0 -384 q0 -14 -9 -23 q-9 -9 -23 -9 q-14 0 -23 9 q-9 9 -9 23 l0 278 l-133 -200 q-10 -14 -27 -14 q-17 0 -27 14 l-133 200 l0 -278 q0 -14 -9 -23 q-9 -9 -23 -9 q-14 0 -23 9 q-9 9 -9 23 l0 384 q1 23 23 31 l0 0 Z" /><glyph glyph-name="n" unicode="Nn" d="M21 414 q21 6 36 -10 l263 -316 l0 296 q0 14 9 23 q9 9 23 9 q14 0 23 -9 q9 -9 9 -23 l0 -384 q-1 -22 -21 -30 q-21 -6 -36 9 l-263 317 l0 -296 q0 -14 -9 -23 q-9 -9 -23 -9 q-14 0 -23 9 q-9 9 -9 23 l0 384 q1 22 21 30 l0 0 Z" /><glyph glyph-name="o" unicode="Oo" d="M224 352 q-68 -2 -113 -47 l0 0 q-45 -45 -47 -113 q2 -68 47 -113 q45 -45 113 -47 q68 2 113 47 q45 45 47 113 q-2 68 -47 113 q-45 45 -113 47 l0 0 ZM0 192 q1 63 31 113 l0 0 q29 51 80 80 l0 0 q50 30 113 31 q63 -1 113 -31 q51 -29 80 -80 q30 -50 31 -113 q-1 -63 -31 -113 q-29 -51 -80 -80 q-50 -30 -113 -31 q-63 1 -113 31 q-51 29 -80 80 q-30 50 -31 113 l0 0 Z" /><glyph glyph-name="p" unicode="Pp" d="M32 416 l32 0 l96 0 q68 -2 113 -47 q45 -45 47 -113 q-2 -68 -47 -113 q-45 -45 -113 -47 l-96 0 l0 -96 q0 -14 -9 -23 q-9 -9 -23 -9 q-14 0 -23 9 q-9 9 -9 23 l0 96 l0 32 l0 32 l0 224 q0 14 9 23 q9 9 23 9 l0 0 ZM64 160 l96 0 q41 1 68 28 q27 27 28 68 q-1 41 -28 68 q-27 27 -68 28 l-96 0 l0 -192 l0 0 Z" /><glyph glyph-name="q" unicode="Qq" d="M96 192 q2 -68 47 -113 l0 0 q45 -45 113 -47 q44 1 79 21 l-72 86 q-8 11 -7 24 q1 13 12 22 q10 8 23 7 q13 -1 22 -12 l71 -85 q31 42 32 97 q-2 68 -47 113 q-45 45 -113 47 q-68 -2 -113 -47 q-45 -45 -47 -113 l0 0 ZM377 3 q-53 -34 -121 -35 q-63 1 -113 31 q-51 29 -80 80 q-30 50 -31 113 q1 63 31 113 q29 51 80 80 q50 30 113 31 q63 -1 113 -31 q51 -29 80 -80 q30 -50 31 -113 q-2 -86 -55 -147 l48 -57 q8 -10 7 -23 q-1 -13 -12 -22 q-10 -8 -23 -7 q-13 1 -22 11 l-46 56 l0 0 Z" /><glyph glyph-name="r" unicode="Rr" d="M32 416 q-14 0 -23 -9 l0 0 q-9 -9 -9 -23 l0 -224 l0 -160 q0 -14 9 -23 q9 -9 23 -9 q14 0 23 9 q9 9 9 23 l0 128 l95 0 l103 -146 q8 -11 20 -14 q13 -2 24 6 q11 8 14 20 q2 13 -6 24 l-84 120 q40 17 65 53 q24 35 25 81 q-2 61 -42 102 q-41 40 -102 42 l-144 0 l0 0 ZM176 192 l-112 0 l0 160 l112 0 q34 -1 57 -23 q22 -23 23 -57 q-1 -34 -23 -57 q-23 -22 -57 -23 l0 0 Z" /><glyph glyph-name="s" unicode="Ss" d="M131 343 q-30 -13 -34 -40 q-3 -20 2 -29 q4 -10 17 -19 q29 -18 85 -32 q0 0 0 0 q2 -1 3 -1 q25 -7 52 -16 q26 -10 49 -25 q24 -16 38 -45 q13 -30 7 -66 q-14 -64 -72 -88 q-55 -22 -124 -10 l0 0 l0 0 q-19 3 -43 11 q-25 7 -44 14 q-6 2 -10 3 q-2 1 -3 1 q-13 5 -19 17 q-6 11 -2 24 q5 13 16 19 q12 5 25 1 q7 -2 16 -5 q1 0 2 -1 q19 -7 39 -13 q20 -6 33 -8 q56 -8 89 6 q29 13 34 40 q2 20 -2 29 q-4 9 -17 19 q-29 18 -85 32 q0 0 -1 0 q-1 1 -2 1 q-25 7 -52 16 q-27 10 -49 25 q-24 16 -38 45 q-13 30 -7 66 l32 -5 l-32 5 q14 64 72 87 q55 22 124 11 q11 -1 32 -6 q22 -4 34 -7 q13 -4 20 -15 q6 -11 3 -24 q-4 -13 -15 -20 q-11 -6 -24 -3 q-10 3 -30 6 q-20 4 -30 6 l5 31 l-5 -31 q-57 8 -89 -7 l0 1 Z" /><glyph glyph-name="t" unicode="Tt" d="M32 416 q-14 0 -23 -9 l0 0 q-9 -9 -9 -23 q0 -14 9 -23 q9 -9 23 -9 l128 0 l0 -352 q0 -14 9 -23 q9 -9 23 -9 q14 0 23 9 q9 9 9 23 l0 352 l128 0 q14 0 23 9 q9 9 9 23 q0 14 -9 23 q-9 9 -23 9 l-160 0 l-160 0 l0 0 Z" /><glyph glyph-name="u" unicode="Uu" d="M32 416 q14 0 23 -9 l0 0 q9 -9 9 -23 l0 -224 q1 -54 37 -91 q37 -36 91 -37 q54 1 91 37 q36 37 37 91 l0 224 q0 14 9 23 q9 9 23 9 q14 0 23 -9 q9 -9 9 -23 l0 -224 q-2 -82 -56 -136 q-54 -54 -136 -56 q-82 2 -136 56 q-54 54 -56 136 l0 224 q0 14 9 23 q9 9 23 9 l0 0 Z" /><glyph glyph-name="v" unicode="Vv" d="M52 413 q12 5 24 1 l0 0 q12 -5 18 -18 l130 -313 l131 313 q5 13 17 18 q12 4 24 -1 q13 -5 18 -17 q4 -12 0 -24 l-160 -384 q-9 -19 -30 -20 q-21 1 -29 20 l-160 384 q-5 12 -1 24 q5 12 18 18 l0 -1 Z" /><glyph glyph-name="w" unicode="Ww" d="M21 414 q13 4 24 -1 l0 0 q12 -5 17 -18 l110 -294 l85 292 q8 22 31 23 q23 -1 31 -23 l85 -292 l110 294 q5 13 17 18 q11 5 24 1 q13 -5 18 -17 q5 -11 1 -24 l-144 -384 q-9 -21 -31 -21 q-23 2 -30 23 l-81 279 l-81 -279 q-8 -21 -30 -23 q-22 0 -31 21 l-144 384 q-4 13 1 24 q5 12 18 17 l0 0 Z" /><glyph glyph-name="x" unicode="Xx" d="M377 363 q8 11 7 24 l0 0 q-1 13 -11 22 q-11 8 -24 7 q-13 -1 -22 -12 l-135 -162 l-135 162 q-9 11 -22 12 q-13 1 -23 -7 q-11 -9 -12 -22 q-1 -13 7 -24 l143 -171 l-143 -172 q-8 -10 -7 -23 q1 -13 12 -22 q10 -8 23 -7 q13 1 22 11 l135 163 l135 -163 q9 -10 22 -11 q13 -1 24 7 q10 9 11 22 q1 13 -7 23 l-143 172 l143 171 l0 0 Z" /><glyph glyph-name="y" unicode="Yy" d="M58 403 q-8 10 -21 13 l0 0 q-12 2 -24 -6 q-10 -8 -13 -21 q-2 -12 6 -24 l154 -215 l0 -150 q0 -14 9 -23 q9 -9 23 -9 q14 0 23 9 q9 9 9 23 l0 150 l154 215 q8 12 6 24 q-3 13 -13 21 q-12 8 -24 6 q-13 -3 -21 -13 l-134 -188 l-134 188 l0 0 Z" /><glyph glyph-name="z" unicode="Zz" d="M0 384 q0 14 9 23 l0 0 q9 9 23 9 l320 0 q20 -1 29 -18 q8 -19 -4 -35 l-277 -331 l252 0 q14 0 23 -9 q9 -9 9 -23 q0 -14 -9 -23 q-9 -9 -23 -9 l-320 0 q-20 1 -29 18 q-8 19 4 34 l277 332 l-252 0 q-14 0 -23 9 q-9 9 -9 23 l0 0 Z" /><glyph glyph-name="firefox-browser" unicode="&#xe007;" d="M130 320 q0 0 0 0 l0 0 l0 0 ZM482 275 q-9 20 -22 37 l0 0 q-14 18 -27 25 q20 -42 24 -74 q0 0 0 -1 q-12 31 -29 53 q-16 22 -35 42 q-25 27 -48 62 q-13 22 -12 24 q0 1 -1 1 l0 0 q-35 -21 -56 -55 q-21 -34 -27 -68 q-25 -1 -48 -12 q-2 -1 -3 -3 q-1 -2 0 -4 q0 -2 1 -3 q0 -1 2 -1 q1 -1 2 -1 q1 0 2 0 l1 0 q24 11 50 12 q47 -2 73 -24 q26 -23 34 -39 q-10 8 -26 13 q-15 4 -33 2 q44 -25 51 -70 q8 -45 -20 -83 q-27 -37 -88 -36 q-45 3 -71 31 q-27 28 -30 59 q-1 3 15 21 q15 19 66 21 q7 1 17 12 q11 10 12 15 q0 1 -11 7 q-11 5 -25 12 q-14 8 -23 16 q-1 2 -2 3 q-10 10 -14 14 q-4 2 -7 4 q-8 30 0 60 q-38 -19 -59 -45 l0 0 q-7 11 -8 32 q-2 20 -1 29 q0 0 -4 -2 q-3 -2 -4 -3 q-13 -9 -24 -20 q-13 -13 -29 -38 q-17 -25 -26 -63 q-4 -16 -5 -31 q-2 -15 -2 -22 q1 -68 33 -123 q33 -55 88 -87 q55 -33 123 -34 q92 2 159 59 q66 56 81 144 q7 53 -1 88 q-9 35 -13 43 q0 1 0 1 l0 0 Z" /><glyph glyph-name="ideal" unicode="&#xe013;" d="M126 283 q-30 -2 -43 -25 l0 0 q-13 -23 0 -49 q16 -25 43 -25 q26 0 42 25 q7 11 7 24 q-1 21 -15 35 q-14 14 -34 15 l0 0 ZM86 22 l79 0 l0 141 l-79 0 l0 -141 ZM238 234 q-1 14 -6 19 l0 0 q-6 4 -13 3 l-14 0 l0 -46 l14 0 q7 0 13 4 q5 5 6 20 l0 0 ZM439 188 l0 91 l23 0 l0 -69 l34 0 q-6 62 -35 95 q-30 33 -73 45 q-43 12 -88 12 l-95 0 l0 -83 l14 0 q40 -2 41 -45 q-1 -45 -41 -46 l-14 0 l0 -166 l95 0 q107 1 152 46 q44 45 44 120 l-57 0 ZM330 188 l-57 0 l0 91 l55 0 l0 -23 l-32 0 l0 -10 l30 0 l0 -23 l-30 0 l0 -13 l34 0 l0 -22 ZM404 188 l-5 17 l-30 0 l-5 -17 l-24 0 l28 91 l32 0 l28 -91 l-24 0 ZM300 416 l-268 0 l0 -448 l268 0 q122 0 186 58 q64 57 65 167 q1 43 -17 95 q-18 51 -72 89 q-55 37 -162 39 l0 0 ZM300 -11 l-247 0 l0 406 l247 0 q107 0 168 -50 q61 -49 62 -152 q-1 -101 -60 -152 q-58 -52 -170 -52 l0 0 ZM384 254 l-8 -26 l16 0 l-7 26 l-1 0 Z" /><glyph glyph-name="microblog" unicode="&#xe01a;" d="M399 86 q46 53 47 126 q-2 86 -65 144 q-62 58 -157 60 q-95 -2 -157 -60 q-63 -58 -65 -144 q2 -87 65 -145 q62 -58 157 -60 q41 0 79 14 q5 1 9 -3 q29 -38 79 -50 q4 0 6 4 q0 2 -1 3 q-19 26 -18 56 q1 31 22 55 l-1 0 ZM330 236 l-58 -44 l21 -69 q1 -8 -8 -8 q-1 0 -2 1 l-59 41 l-59 -41 q-8 -3 -10 5 q0 1 0 2 l21 69 l-58 44 q-5 6 2 11 q1 0 2 0 l72 2 l24 68 q4 7 11 2 q1 -1 1 -2 l24 -68 l72 -2 q8 -1 5 -10 q0 -1 -1 -1 l0 0 Z" /><glyph glyph-name="square-pied-piper" unicode="&#xe01e;" d="M32 29 l-32 -60 l1 328 q1 50 35 84 q33 34 84 35 l327 0 q-71 -23 -138 -67 q-67 -45 -116 -102 q-51 -59 -88 -109 q-36 -50 -73 -109 l0 0 ZM448 416 q-2 0 -39 -21 l0 0 q-36 -21 -80 -58 l0 0 q-43 -38 -67 -88 q-11 -26 -19 -54 q-9 -30 -20 -57 q-12 -27 -32 -48 q-32 -26 -72 -41 q-17 -7 -34 -15 q-18 -10 -44 -28 q-25 -18 -41 -38 l329 0 q51 1 84 35 q34 34 35 84 q0 3 0 52 q0 48 0 113 q0 64 0 113 q0 48 0 51 l0 0 Z" /><glyph glyph-name="unity" unicode="&#xe049;" d="M244 356 l80 -46 q4 -4 0 -8 l-95 -56 q-5 -2 -9 0 l-96 56 q-4 4 0 8 l80 46 l0 92 l-204 -119 l0 -239 l78 46 l0 93 q2 6 7 4 l95 -56 q5 -2 5 -7 l0 -112 q-1 -5 -7 -4 l-80 47 l-78 -46 l204 -119 l204 119 l-78 46 l-80 -47 q-6 -1 -7 4 l0 112 q0 5 5 7 l95 56 q5 2 7 -4 l0 -93 l78 -46 l0 239 l-204 119 l0 -92 l0 0 Z" /><glyph glyph-name="dailymotion" unicode="&#xe052;" d="M299 181 q-11 6 -24 6 q-20 0 -34 -13 q-13 -13 -13 -33 q0 -22 13 -35 q13 -14 33 -14 q21 0 34 14 q14 14 14 35 q0 12 -6 23 q-6 11 -17 17 l0 0 ZM0 416 l0 -448 l448 0 l0 448 l-448 0 ZM375 43 l-53 0 l0 24 l-1 0 q-16 -27 -56 -27 q-27 0 -49 14 q-21 13 -33 35 q-11 23 -11 51 q0 28 11 50 q12 23 33 36 q22 13 48 13 q16 0 30 -5 q13 -5 25 -17 l0 78 l56 12 l0 -264 Z" /><glyph glyph-name="square-instagram" unicode="&#xe055;" d="M224 245 q-32 -1 -46 -26 l0 0 q-15 -25 0 -54 q17 -26 46 -26 q29 0 46 26 q7 13 7 27 q0 23 -15 38 q-15 15 -38 15 l0 0 ZM349 286 q-9 22 -31 31 q-14 5 -38 6 q-25 1 -45 0 q-6 0 -11 0 q-5 0 -11 0 q-21 1 -45 0 q-24 -1 -38 -6 q-22 -9 -31 -31 q-5 -14 -6 -38 q-1 -25 0 -45 q0 -6 0 -11 q0 -5 0 -11 q-1 -20 0 -44 q1 -25 6 -39 q9 -22 31 -31 q14 -5 38 -6 q25 -1 45 0 q6 0 11 0 q5 0 11 0 q21 -1 45 0 q24 1 38 6 q22 9 31 31 q5 14 6 38 q1 24 0 45 q0 6 0 11 q0 5 0 11 q1 21 0 45 q-1 24 -6 38 l0 0 ZM224 110 q-49 3 -71 41 l0 0 q-22 38 0 82 q27 41 71 41 q44 0 71 -41 q11 -19 11 -41 q-1 -35 -24 -58 q-23 -23 -58 -24 l0 0 ZM309 258 q-11 1 -16 10 l0 0 q-5 9 0 19 q6 10 16 10 q11 0 17 -10 q2 -4 3 -10 q-2 -17 -20 -19 l0 0 ZM400 416 l-352 0 q-20 -1 -34 -14 q-13 -14 -14 -34 l0 -352 q1 -20 14 -34 q14 -13 34 -14 l352 0 q20 1 34 14 q13 14 14 34 l0 352 q-1 20 -14 34 q-14 13 -34 14 l0 0 ZM383 126 q0 -39 -26 -67 q-28 -26 -67 -26 q-14 -1 -40 -1 q-26 0 -52 0 q-26 0 -40 1 q-39 0 -67 26 q-26 28 -26 67 q-1 14 -1 40 q0 26 0 52 q0 26 1 40 q0 39 26 67 q28 26 67 26 q14 1 40 1 q26 0 52 0 q26 0 40 -1 q39 0 67 -26 q26 -28 26 -67 q1 -14 1 -40 q0 -26 0 -52 q0 -26 -1 -40 l0 0 Z" /><glyph glyph-name="mixer" unicode="&#xe056;" d="M115 372 q-13 16 -33 18 l0 0 q-19 2 -35 -12 q-13 -12 -14 -30 q-1 -17 9 -32 l92 -123 l-92 -125 q-11 -15 -10 -32 q1 -18 15 -30 q15 -14 35 -12 q19 2 32 18 l129 173 q4 7 0 15 l-128 172 ZM470 68 l-92 125 l92 123 q10 15 9 32 q-1 18 -14 30 q-16 14 -35 12 q-20 -2 -33 -18 l-128 -172 q-4 -7 0 -14 l129 -174 q13 -16 32 -18 q20 -2 36 12 q13 12 14 30 q1 17 -10 32 l0 0 Z" /><glyph glyph-name="shopify" unicode="&#xe057;" d="M388 344 q0 3 -4 4 q-4 0 -19 0 q-16 1 -18 1 q-1 1 -12 11 q-11 10 -18 18 l0 -433 l126 31 q-1 3 -9 57 q-8 54 -18 126 q-11 72 -19 126 q-8 55 -9 59 l0 0 ZM289 378 q-3 9 -8 17 q-16 31 -44 31 q-2 0 -4 0 q0 0 -1 1 q0 0 -1 1 q-12 13 -30 12 q-38 -2 -68 -49 q-21 -35 -26 -70 q-45 -13 -48 -15 q-10 -2 -12 -5 q-3 -3 -4 -13 q0 -6 -6 -50 q-6 -43 -13 -99 q-7 -56 -13 -98 q-5 -42 -6 -45 l303 -52 l0 438 q-2 0 -5 0 q0 0 -14 -4 l0 0 ZM233 360 q-12 -4 -26 -8 l0 0 q-12 -4 -24 -7 q8 30 25 50 q7 7 17 13 q10 -25 8 -48 l0 0 ZM201 424 q7 0 14 -4 q-10 -5 -19 -14 q-23 -28 -31 -67 q-22 -7 -42 -13 q7 32 28 63 q21 32 50 35 l0 0 ZM154 203 q3 -14 25 -25 l0 0 q16 -9 31 -24 l0 0 q15 -15 17 -42 q2 -36 -16 -58 q-18 -22 -49 -25 q-37 0 -56 12 q-20 12 -20 14 q0 0 0 0 l11 44 q1 -1 16 -10 q15 -9 32 -9 q10 1 15 8 q4 6 4 12 q-4 21 -25 32 q-12 8 -23 20 q-11 13 -13 35 q-3 37 21 65 q23 28 73 33 q20 1 30 -2 q10 -2 10 -3 l-16 -57 q0 0 -11 3 q-10 4 -26 3 q-22 -2 -26 -12 q-5 -9 -4 -14 l0 0 ZM249 365 q1 20 -7 44 q14 -4 21 -15 q8 -12 10 -22 q-10 -3 -24 -7 l0 0 Z" /><glyph glyph-name="deezer" unicode="&#xe077;" d="M451 203 l125 0 l0 73 l-125 0 l0 -73 ZM451 377 l0 -72 l125 0 l0 72 l-125 0 ZM451 102 l125 0 l0 73 l-125 0 l0 -73 ZM0 1 l125 0 l0 73 l-125 0 l0 -73 ZM150 1 l125 0 l0 73 l-125 0 l0 -73 ZM301 1 l125 0 l0 73 l-125 0 l0 -73 ZM451 1 l125 0 l0 73 l-125 0 l0 -73 ZM301 102 l125 0 l0 73 l-125 0 l0 -73 ZM150 102 l125 0 l0 73 l-125 0 l0 -73 ZM150 203 l125 0 l0 73 l-125 0 l0 -73 Z" /><glyph glyph-name="edge-legacy" unicode="&#xe078;" d="M26 220 l0 0 q0 0 0 0 l0 0 ZM486 204 q2 66 -29 123 q-31 55 -82 84 q-52 29 -116 29 q-105 -3 -164 -67 q-58 -64 -69 -153 q32 48 87 84 q56 37 133 41 q3 1 28 -4 q26 -4 51 -27 q24 -22 21 -74 l-176 0 q5 28 14 46 q8 19 20 33 q-57 -26 -89 -72 q-32 -47 -31 -116 q1 -55 34 -103 q33 -47 86 -69 q66 -22 134 -12 q68 10 106 33 l0 105 q-43 -29 -106 -36 q-63 -8 -113 16 q-49 24 -53 87 l314 0 l0 52 l0 0 Z" /><glyph glyph-name="google-pay" unicode="&#xe079;" d="M106 233 l0 -41 l57 0 q-4 -21 -21 -33 q-15 -10 -36 -10 q-21 0 -37 12 q-16 13 -23 32 q-6 21 0 41 l0 0 q7 20 23 32 q16 12 37 12 q23 1 40 -16 l30 31 q-29 28 -70 28 q-31 -1 -56 -16 q-25 -16 -39 -43 q-22 -48 0 -96 l0 -1 q14 -27 39 -43 q25 -15 56 -16 q43 1 70 26 q30 29 31 79 q0 11 -2 22 l-99 0 ZM495 237 q-15 14 -41 14 q-34 0 -51 -25 l21 -13 q12 17 31 17 q13 0 23 -9 q10 -8 10 -21 l0 -6 q-14 8 -35 8 q-25 0 -39 -12 q-15 -11 -15 -31 q0 -19 14 -31 q14 -13 35 -13 q24 0 39 22 l1 0 l0 -18 l22 0 l0 79 q0 25 -15 39 l0 0 ZM476 148 q-11 -11 -27 -11 q-10 -1 -18 6 q-8 6 -8 15 q0 11 10 18 q9 7 24 7 q20 0 31 -9 q0 -15 -12 -26 l0 0 ZM382 290 q-17 16 -40 16 l-63 0 l0 -187 l24 0 l0 76 l39 0 q24 0 40 16 q1 0 1 1 q1 1 2 2 q15 17 14 38 q-1 22 -17 38 l0 0 ZM366 227 q-10 -9 -24 -9 l-39 0 l0 65 l39 0 q13 0 23 -9 q9 -10 10 -23 q0 -13 -9 -23 l0 -1 ZM614 247 l-36 -92 l-1 0 l-37 92 l-26 0 l52 -120 l-29 -64 l24 0 l79 184 l-26 0 Z" /><glyph glyph-name="rust" unicode="&#xe07a;" d="M509 198 l-22 14 q-1 3 -1 6 l19 17 q5 8 -3 12 l-24 9 q0 1 0 1 q0 2 -1 5 l15 21 q4 8 -5 11 l-25 5 q-1 0 -1 0 q-1 2 -2 5 l10 23 q3 9 -6 11 l-26 -1 q-2 2 -4 4 l6 25 q0 9 -9 9 l-25 -6 q-2 2 -4 4 l1 25 q-2 10 -11 7 l-23 -10 q-3 1 -5 2 l-5 26 q-3 9 -11 5 l-21 -15 q-3 1 -6 1 l-9 24 q-4 8 -12 3 l-17 -19 q-3 0 -6 1 l-14 22 q-6 6 -12 0 l-14 -22 q-3 -1 -6 -1 l-17 19 q-8 5 -12 -3 l-9 -24 q-1 0 -2 0 q-2 -1 -4 -1 l-21 15 q-8 4 -11 -5 l-5 -25 q0 -1 0 -1 q-2 -1 -5 -2 l-23 10 q-9 3 -11 -7 l1 -25 q0 0 0 -1 q-2 -1 -4 -3 l-25 6 q-9 0 -9 -9 l6 -25 q-2 -2 -4 -4 l-25 0 q-5 1 -7 -3 q-2 -3 0 -7 l10 -23 q-1 -3 -2 -5 q0 0 -1 0 l-25 -5 q-9 -3 -5 -11 l15 -21 q0 -2 -1 -5 q0 0 0 -1 l-24 -9 q-8 -4 -3 -12 l19 -17 q0 -3 -1 -6 l-22 -14 q-6 -6 0 -12 l22 -14 q1 -3 1 -6 l-19 -17 q-5 -8 3 -12 l24 -9 q0 -1 0 -2 q1 -2 1 -4 l-15 -21 q-4 -8 5 -11 l25 -5 q1 0 1 0 q1 -3 2 -5 l-10 -23 q-2 -4 0 -7 q2 -4 7 -4 l25 1 q2 -2 4 -4 l-6 -25 q0 -9 9 -9 l25 6 q2 -2 4 -4 l-1 -26 q2 -9 11 -6 l23 10 q2 -1 5 -2 q0 0 0 -1 l5 -25 q3 -9 11 -5 l21 15 q2 0 4 -1 q1 0 2 0 l9 -24 q4 -8 12 -3 l17 19 q3 0 6 -1 q0 0 0 0 l14 -21 q6 -7 12 0 l14 21 q3 1 6 1 l17 -19 q8 -5 12 3 l9 24 q1 0 2 0 q2 1 4 1 l21 -15 q8 -4 11 5 l5 25 q0 1 1 1 q2 1 4 2 l23 -10 q9 -3 11 6 l-1 26 q2 2 4 4 l25 -6 q9 0 9 9 l-6 25 q2 2 4 4 l26 -1 q4 0 6 4 q2 3 0 7 l-10 23 q1 2 2 4 q0 1 1 1 l25 5 q9 3 5 11 l-15 21 q1 3 1 6 l24 9 q8 4 3 12 l-19 17 q0 3 1 6 l21 14 q7 6 0 12 l1 0 ZM358 69 q-13 2 -17 -11 l-8 -35 q-37 -17 -78 -17 q-40 0 -78 18 l-8 35 q-3 12 -16 11 l-32 -7 q-8 9 -16 19 l153 0 q3 0 3 2 l0 54 q0 3 -3 2 l-45 0 l1 35 l48 0 q4 0 14 -4 q10 -4 16 -22 q1 -5 3 -13 q3 -17 6 -27 q2 -8 10 -17 q7 -9 17 -10 l79 0 q-8 -10 -17 -20 l-32 7 ZM383 35 q0 -9 -7 -14 l0 0 q-7 -4 -16 0 q-7 5 -7 14 q0 8 7 13 q4 2 8 2 l0 0 q14 -2 15 -15 l0 0 ZM158 35 q-1 -9 -8 -13 l0 0 q-7 -4 -15 0 q-8 5 -8 13 q0 9 8 14 q3 2 7 2 l1 0 q13 -2 15 -16 l0 0 ZM70 214 l32 14 q12 7 7 19 l-6 15 l26 0 l0 -120 l-53 0 q-10 35 -6 72 l0 0 ZM58 250 q2 14 16 15 l0 0 q9 -1 13 -8 q4 -7 0 -15 q-6 -8 -14 -7 q-8 0 -13 8 q-2 3 -2 7 l0 0 ZM213 225 l1 36 l63 0 q3 0 13 -4 q9 -4 10 -15 q-1 -9 -9 -13 q-9 -4 -19 -4 l-59 0 ZM399 141 q-17 0 -22 10 q-4 23 -11 33 q-8 10 -19 18 q0 0 -1 1 q15 9 27 22 q11 13 12 31 q-1 19 -10 31 q-10 13 -20 19 q-13 8 -24 10 q-12 3 -16 3 l-199 0 q43 47 105 59 l24 -25 q9 -8 19 0 l27 25 q41 -8 74 -32 q33 -23 54 -60 l-18 -40 q-4 -12 7 -18 l35 -16 q1 -16 0 -32 l-19 0 q-3 0 -3 -3 l0 -9 q0 -15 -7 -21 q-7 -5 -15 -6 l0 0 ZM240 388 q1 14 15 15 l1 0 q9 -1 13 -8 q4 -7 -1 -15 q-5 -8 -13 -7 q-8 0 -13 8 q-2 3 -2 7 l0 0 ZM437 234 q-9 0 -13 8 l0 0 q-4 7 0 15 q4 7 13 7 l0 0 q9 0 13 -7 q4 -8 0 -16 q-5 -7 -13 -7 l0 0 Z" /><glyph glyph-name="tiktok" unicode="&#xe07b;" d="M448 238 q-68 0 -123 39 l0 -178 q-1 -64 -39 -106 q-38 -43 -93 -54 q-56 -11 -112 19 q-54 33 -72 87 q-18 54 0 108 q18 53 72 86 q49 28 104 21 l0 -90 q-43 11 -73 -16 q-30 -28 -22 -72 q12 -42 50 -55 q39 -12 73 17 q24 22 24 55 l0 349 l88 0 q0 -11 2 -22 l0 0 q11 -51 54 -80 q31 -20 67 -21 l0 -87 Z" /><glyph glyph-name="unsplash" unicode="&#xe07c;" d="M448 218 l0 -250 l-448 0 l0 250 l141 0 l0 -125 l166 0 l0 125 l141 0 ZM307 416 l-166 0 l0 -125 l166 0 l0 125 Z" /><glyph glyph-name="cloudflare" unicode="&#xe07d;" d="M408 128 l-231 3 q-2 0 -4 2 q-1 2 0 4 q1 4 5 4 l233 3 q22 2 41 16 q19 14 27 35 l14 34 q0 2 0 3 q0 1 0 2 q-15 57 -58 88 q-43 31 -96 30 q-53 -1 -98 -41 q-27 -26 -40 -61 q-33 22 -67 8 q-34 -14 -41 -54 q-2 -13 1 -26 q-40 -2 -67 -29 q-26 -27 -27 -67 q0 -7 1 -14 q1 -4 4 -4 l427 0 q0 0 0 0 q0 0 0 0 q4 0 5 4 l3 11 q6 21 -4 35 q-9 13 -28 14 l0 0 ZM514 227 q-3 0 -7 0 q-2 -1 -3 -3 l-9 -31 q-6 -21 4 -35 q10 -13 28 -14 l50 -3 q2 0 3 -2 q1 -2 1 -4 q-2 -4 -6 -4 l-51 -3 q-21 -1 -40 -16 q-19 -14 -28 -35 l-4 -9 q0 -3 3 -4 q0 0 0 0 q0 0 0 0 l176 0 q3 0 4 3 q5 17 5 34 q-1 54 -37 89 q-36 36 -89 37 l0 0 Z" /><glyph glyph-name="guilded" unicode="&#xe07e;" d="M443 384 l-438 0 q0 -78 13 -134 q13 -56 30 -88 q33 -64 74 -99 q41 -35 71 -49 q30 -15 32 -14 q85 32 141 103 q20 26 38 64 q18 38 28 82 l-260 0 q8 -56 45 -87 l89 0 q-14 -21 -35 -39 q-21 -19 -46 -30 q-24 10 -50 35 q-25 24 -46 63 q-20 42 -24 73 q-4 31 -4 33 q0 0 0 0 l337 0 q6 43 5 87 l0 0 Z" /><glyph glyph-name="hive" unicode="&#xe07f;" d="M260 193 l-128 222 q-2 2 -4 0 q0 0 0 0 l-128 -222 q0 -1 0 -2 l129 -222 q2 -2 4 0 q0 0 0 0 q0 0 0 0 l127 222 q1 1 0 2 l0 0 ZM299 219 q1 -1 2 -1 l67 0 q3 0 2 3 l-111 194 q-1 1 -2 1 l-66 0 q-3 -1 -2 -3 l110 -194 ZM512 193 l-127 222 q-1 1 -2 1 l-67 0 q-2 -1 -2 -3 l127 -221 l-127 -221 q0 -2 2 -3 l67 0 q1 0 2 1 l127 222 q0 1 0 2 l0 0 ZM366 163 l-66 0 q-2 0 -2 -1 l-109 -191 q-1 -2 2 -3 l66 0 q1 0 2 1 l109 191 q1 3 -2 3 l0 0 Z" /><glyph glyph-name="42-group" unicode="&#xe080;" d="M320 352 l0 -320 q32 0 61 12 q30 12 52 35 q23 22 35 52 q12 29 12 61 q0 32 -12 61 q-12 30 -35 52 q-22 23 -52 35 q-29 12 -61 12 l0 0 ZM0 192 l160 -160 l160 160 l-160 160 l-160 -160 l0 0 ZM480 192 q0 -32 12 -61 q12 -30 35 -52 q22 -23 52 -35 q29 -12 61 -12 l0 320 q-66 -1 -113 -47 q-46 -47 -47 -113 l0 0 Z" /><glyph glyph-name="instalod" unicode="&#xe081;" d="M153 -32 l234 0 l116 204 l-299 -57 l-51 -147 ZM505 208 l-118 208 l-231 0 l204 -236 l145 28 ZM124 399 l-117 -207 l116 -205 l103 295 l-102 117 Z" /><glyph glyph-name="octopus-deploy" unicode="&#xe082;" d="M456 99 q-33 29 -33 60 l0 0 q0 31 17 68 q17 44 6 88 q-11 44 -41 77 q-31 34 -75 48 q-72 20 -137 -9 q-65 -30 -93 -100 q-13 -36 -11 -74 q3 -31 16 -58 q4 -11 8 -22 q11 -38 -13 -68 q-23 -31 -54 -50 q-34 -22 -32 -31 q2 -9 24 -10 q34 -2 65 15 q2 1 4 2 q11 5 24 12 q13 8 17 14 q-2 -4 -4 -8 q-10 -21 -19 -47 q-8 -26 2 -47 q10 -17 26 -7 q16 9 30 27 q15 17 20 26 q2 3 5 8 q11 19 28 39 q17 19 31 0 q11 -21 14 -47 q2 -33 22 -58 q16 -16 28 -9 q11 6 17 23 q6 16 6 30 q0 3 0 8 q-1 14 0 32 q1 18 8 27 q6 8 22 -7 q7 -7 16 -17 q15 -19 33 -35 q19 -16 40 -15 q20 5 8 27 q-13 23 -28 41 q-7 8 -9 11 q4 -3 17 -10 q12 -7 24 -9 q12 -2 13 10 q0 10 -10 20 q-10 9 -21 17 q-7 4 -11 8 l0 0 Z" /><glyph glyph-name="perbyte" unicode="&#xe083;" d="M305 163 l-58 0 l0 -98 l58 0 q25 0 39 13 q13 14 13 37 q0 21 -14 35 q-14 13 -38 13 l0 0 ZM149 319 l-58 0 l0 -98 l58 0 q25 0 39 13 q13 14 13 36 q0 22 -14 36 q-14 13 -38 13 l0 0 ZM367 416 l-286 0 q-34 -1 -57 -24 q-23 -23 -24 -57 l0 -286 q1 -34 24 -57 q23 -23 57 -24 l286 0 q34 1 57 24 q23 23 24 57 l0 286 q-1 34 -24 57 q-23 23 -57 24 l0 0 ZM430 49 q0 -27 -18 -45 l0 0 q-18 -18 -45 -18 l-286 0 q-27 0 -45 18 q-18 18 -18 45 l0 286 q0 27 18 45 q18 18 45 18 l286 0 q27 0 45 -18 q18 -18 18 -45 l0 -286 ZM305 319 l-58 0 l0 -98 l58 0 q25 0 39 13 q13 14 13 36 q0 22 -14 36 q-14 13 -38 13 l0 0 Z" /><glyph glyph-name="uncharted" unicode="&#xe084;" d="M172 215 q3 0 5 3 q3 15 15 26 q1 1 1 4 q0 2 -2 3 l-117 69 l75 43 q5 3 5 8 q0 6 -5 9 l-22 12 q-5 3 -10 0 l-100 -58 q-5 -2 -5 -8 l0 -115 q0 -6 5 -8 l22 -13 q3 -1 5 -1 q4 0 7 2 q3 3 3 7 l0 85 l116 -67 q1 -1 2 -1 l0 0 ZM323 70 q-2 0 -5 -1 l-74 -43 l0 134 q-1 6 -6 5 q-15 -5 -29 -1 q-6 1 -7 -4 l0 -134 l-74 43 q-2 2 -5 2 q-9 -1 -10 -10 l0 -26 q0 -5 5 -8 l101 -58 q2 -1 4 -1 q3 0 5 1 l101 58 q4 3 5 8 l0 26 q-2 8 -11 9 l0 0 ZM286 370 q14 1 20 11 l0 0 q6 11 0 23 q-8 12 -20 12 q-12 0 -20 -12 q-3 -5 -3 -11 q2 -21 23 -23 l0 0 ZM350 380 q-14 -1 -20 -11 l0 0 q-7 -11 0 -23 q7 -12 20 -12 q12 0 20 12 q3 5 3 11 q-2 21 -23 23 l0 0 ZM413 296 q14 1 20 12 l0 0 q6 11 0 23 q-8 11 -20 11 q-13 0 -20 -11 q-3 -5 -3 -12 q2 -21 23 -23 l0 0 ZM350 306 q-14 -1 -20 -12 l0 0 q-7 -11 0 -23 q7 -11 20 -11 q12 0 20 11 q3 5 3 12 q-2 21 -23 23 l0 0 ZM286 222 q14 1 20 12 l0 0 q6 11 0 23 q-8 11 -20 11 q-12 0 -20 -11 q-3 -5 -3 -12 q2 -21 23 -23 l0 0 ZM224 186 q14 1 20 11 l0 0 q6 11 0 23 q-8 12 -20 12 q-13 0 -20 -12 q-3 -5 -3 -11 q2 -21 23 -23 l0 0 ZM413 268 q-14 0 -20 -11 l0 0 q-6 -11 0 -23 q7 -12 20 -12 q12 0 20 12 q3 5 3 11 q-2 21 -23 23 l0 0 ZM413 196 q-14 -1 -20 -11 l0 0 q-6 -11 0 -23 q7 -12 20 -12 q12 0 20 12 q3 5 3 11 q-2 21 -23 23 l0 0 Z" /><glyph glyph-name="watchman-monitoring" unicode="&#xe087;" d="M256 432 q-67 -1 -121 -33 l0 0 q-54 -32 -86 -86 l0 0 q-32 -54 -33 -121 q1 -67 33 -121 q32 -54 86 -86 q54 -32 121 -33 q67 1 121 33 q54 32 86 86 q32 54 33 121 q-1 67 -33 121 q-32 54 -86 86 q-54 32 -121 33 l0 0 ZM122 19 q-40 30 -62 75 l0 0 q-23 45 -23 98 q0 33 9 64 l103 18 l0 -11 l-14 -2 q0 -1 0 -7 q0 -7 0 -13 q0 -6 5 -10 l9 -7 l-27 -205 ZM227 302 l9 8 q1 0 2 3 q2 3 -2 6 q-7 5 -23 19 q-15 14 -17 16 q0 0 0 0 q-6 9 -15 0 q-2 -2 -17 -16 q-16 -14 -23 -19 q-4 -3 -3 -6 q2 -3 3 -3 l9 -8 l-1 -4 l-73 19 q30 43 77 68 q47 26 103 26 q48 0 91 -19 q42 -20 74 -56 l-194 -37 l0 3 ZM261 -27 l-33 251 l9 7 q5 4 5 10 q0 6 0 13 q0 6 0 7 l-14 2 l0 11 l241 -32 q6 -25 6 -50 q-2 -92 -62 -153 q-61 -62 -152 -66 l0 0 Z" /><glyph glyph-name="wodu" unicode="&#xe088;" d="M178 108 l-37 0 l-29 117 l0 0 l-29 -117 l-38 0 l-45 171 l38 0 l27 -116 l0 0 l30 116 l35 0 l29 -118 l1 0 l28 118 l36 0 l-46 -171 ZM271 235 q30 0 47 -18 l0 0 q17 -17 18 -47 q-1 -30 -18 -47 q-17 -18 -47 -18 q-29 0 -46 18 q-17 17 -17 47 q0 30 17 47 q17 18 46 18 l0 0 ZM271 131 q18 0 24 12 l0 0 q7 12 7 27 q0 16 -7 27 q-6 12 -24 13 q-20 -1 -25 -13 q-5 -11 -4 -27 q-1 -15 6 -27 q6 -12 23 -12 l0 0 ZM435 124 l0 0 q-13 -20 -38 -19 q-28 1 -42 20 q-13 20 -13 46 q0 26 13 45 q14 18 41 19 q24 0 37 -18 l0 0 l0 62 l34 0 l0 -171 l-32 0 l0 16 ZM405 210 q-16 -1 -23 -12 l0 0 q-7 -12 -6 -28 q-1 -15 7 -27 q7 -12 22 -12 q17 0 23 12 q7 12 7 27 q0 16 -7 28 q-6 11 -23 12 l0 0 ZM593 108 l-32 0 l0 18 l-1 0 q-15 -21 -38 -21 q-26 0 -36 14 q-10 14 -9 37 l0 76 l34 0 l0 -70 q-1 -30 22 -30 q27 -1 26 35 l0 65 l34 0 l0 -124 ZM602 145 l38 0 l0 -37 l-38 0 l0 37 Z" /><glyph glyph-name="notdef" unicode="&#xe1fe;" d="M64 58 l90 134 l-90 134 l0 -268 l0 0 ZM103 0 l179 0 l-90 134 l-89 -134 l0 0 ZM231 192 l89 -134 l0 268 l-89 -134 l0 0 ZM282 384 l-179 0 l89 -134 l90 134 l0 0 ZM0 400 q1 20 14 34 l0 0 q14 13 34 14 l288 0 q20 -1 34 -14 q13 -14 14 -34 l0 -416 q-1 -20 -14 -34 q-14 -13 -34 -14 l-288 0 q-20 1 -34 14 q-13 14 -14 34 l0 416 l0 0 Z" /><glyph glyph-name="wirsindhandwerk" unicode="&#xe2d0;" d="M51 -32 l83 0 l0 112 l-83 -47 l0 -65 ZM380 -32 l82 0 l0 65 l-82 47 l0 -112 ZM380 416 l0 -220 l-124 73 l-121 -73 l0 220 l-84 0 l0 -361 l205 123 l206 -123 l0 361 l-82 0 Z" /><glyph glyph-name="bots" unicode="&#xe340;" d="M86 250 q-25 0 -41 -20 l0 62 q-1 7 -8 8 l-29 0 q-7 -1 -8 -8 l0 -178 q1 -7 8 -8 l29 0 q7 1 8 8 l0 9 q18 -20 41 -20 q27 0 44 19 q18 19 18 55 q0 34 -18 54 q-17 19 -44 19 l0 0 ZM72 142 q-17 1 -27 13 l0 43 q10 12 27 13 q28 -2 31 -34 q-3 -33 -31 -35 l0 0 ZM228 201 q-10 0 -15 -8 l0 0 q-5 -9 0 -18 q5 -8 15 -8 q9 0 15 8 q2 4 2 9 q-1 16 -17 17 l0 0 ZM274 291 l0 45 q7 3 8 11 q1 7 -5 12 q-7 4 -13 2 q-7 -3 -8 -11 q-1 -10 8 -14 l0 -45 q-42 -3 -69 -29 q-27 -26 -33 -63 q-5 -37 16 -73 q24 -35 60 -45 q36 -10 71 3 q35 14 55 51 q18 35 10 70 q-7 35 -34 59 q-26 25 -66 27 l0 0 ZM360 184 q-1 -24 -27 -39 l0 0 q-25 -16 -64 -16 q-39 0 -65 16 q-25 15 -26 39 q1 23 26 39 q26 16 65 16 q39 0 64 -16 q26 -16 27 -39 l0 0 ZM310 167 q10 0 15 8 l0 0 q5 8 0 18 q-6 8 -15 8 q-10 0 -15 -8 q-3 -4 -3 -9 l0 0 q2 -16 18 -17 l0 0 ZM581 198 q-1 0 -1 0 l0 0 q-22 2 -22 9 q1 10 18 10 q19 0 35 -10 q6 -3 11 3 q0 0 0 0 l9 15 q3 7 -3 11 q-24 14 -52 14 q-30 0 -45 -14 q-15 -13 -15 -32 q1 -26 19 -35 q19 -9 38 -11 q22 -2 24 -11 q1 -10 -19 -11 q-22 2 -42 14 q-7 4 -12 -2 q0 -1 0 -1 l-10 -16 q-3 -7 3 -12 q24 -16 59 -16 q31 0 47 13 q17 13 17 33 q-1 27 -20 37 q-19 9 -38 11 q-1 0 -1 1 l0 0 ZM485 137 q-3 6 -10 6 q-2 -1 -4 -1 q-12 1 -12 15 l0 51 l20 0 q7 0 8 8 l0 23 q-1 7 -8 8 l-20 0 l0 30 q-1 7 -9 8 l-28 0 q-7 -1 -8 -8 l0 0 l0 -30 l-15 0 q-7 -1 -8 -8 l0 0 l0 -23 q1 -8 8 -8 l15 0 l0 -64 q1 -41 44 -41 q18 0 28 5 q5 3 4 9 l-5 20 Z" /><glyph glyph-name="cmplid" unicode="&#xe360;" d="M226 60 q0 2 -2 3 q-1 1 -2 1 l-149 0 q-11 0 -16 8 q-6 8 -2 18 l27 102 q7 24 32 26 l149 0 q4 1 6 6 l11 41 q1 3 -3 5 q0 0 -1 0 q0 0 0 0 l-149 0 q-34 -2 -60 -23 q-27 -21 -37 -54 l-27 -104 q-9 -29 7 -52 q17 -24 47 -25 q2 0 3 0 l149 0 q5 1 6 5 l11 41 q0 1 0 2 l0 0 ZM307 367 q0 0 0 1 q0 4 -4 4 q0 0 0 0 q0 0 0 0 l-41 0 q-5 -1 -6 -5 l-22 -81 l51 0 l22 81 ZM180 80 l52 0 l31 122 l-51 0 l-32 -122 ZM512 368 q-1 4 -4 4 q0 0 0 0 l-41 0 q-5 0 -7 -5 l-91 -350 q0 0 0 -1 q0 -3 4 -4 q0 0 0 0 l41 0 q5 1 6 5 l92 350 q0 1 0 1 l0 0 ZM325 64 l-41 0 q-5 -1 -7 -6 l-10 -41 q-1 0 -1 -1 q1 -4 4 -4 q0 0 0 0 l41 0 q5 1 7 5 l10 41 q1 5 -3 6 q0 0 0 0 l0 0 ZM636 372 l-41 0 q-5 -1 -6 -5 l-92 -350 q0 0 0 -1 q0 -3 4 -4 q0 0 0 0 q0 0 0 0 l41 0 q5 1 6 5 l92 350 q0 1 0 1 q-1 4 -4 4 q0 0 0 0 l0 0 ZM372 223 l10 41 q1 1 1 1 q-1 4 -4 4 q0 0 0 0 l-42 0 q-4 -1 -6 -5 l-11 -41 q0 -1 0 -2 q0 0 0 0 q0 0 0 0 q0 -3 4 -3 q0 0 0 0 l41 0 q5 0 7 5 l0 0 Z" /><glyph glyph-name="bilibili" unicode="&#xe3d9;" d="M489 344 q25 -27 23 -66 l0 -202 q-1 -40 -27 -65 q-25 -26 -65 -27 l-328 0 q-40 1 -65 27 q-26 26 -27 69 l0 198 q1 39 27 66 q25 25 65 26 l29 0 l-25 26 q-9 8 -9 22 q0 13 9 21 q9 9 22 9 q13 0 22 -9 l73 -69 l88 0 l75 69 q9 9 22 9 q13 0 22 -9 q8 -8 9 -21 q-1 -14 -9 -22 l-25 -26 l29 0 q40 -1 65 -26 l0 0 l0 0 ZM450 274 q-1 15 -11 24 q-9 9 -23 9 l-320 0 q-14 0 -24 -9 q-9 -9 -9 -24 l0 -194 q0 -14 9 -24 q10 -9 24 -10 l320 0 q14 1 24 10 q9 10 10 24 l0 194 l0 0 ZM186 231 q9 -9 10 -23 l0 -33 q-1 -14 -10 -23 q-9 -10 -24 -10 q-14 0 -23 10 q-10 9 -10 23 l0 33 q0 14 10 23 q9 10 23 10 q14 0 24 -10 l0 0 l0 0 ZM377 231 q9 -9 10 -23 l0 -33 q-1 -14 -10 -23 q-9 -10 -23 -10 q-15 0 -24 10 q-10 9 -10 23 l0 33 q1 14 10 23 q10 10 24 10 q14 0 23 -10 l0 0 l0 0 Z" /><glyph glyph-name="golang" unicode="&#xe40f;" d="M400 253 q-5 -1 -10 -2 l0 0 q-10 -2 -19 -5 q-5 -2 -10 -3 q-6 -2 -13 -4 l-1 0 q-4 -2 -8 4 q-6 7 -15 11 q-30 14 -56 -4 q-32 -21 -32 -59 q0 -20 12 -33 q11 -13 29 -16 q33 -4 54 20 q3 4 6 8 l0 0 l0 0 q1 2 2 3 q0 0 0 1 l-60 0 q-9 0 -6 9 q4 8 8 18 q5 10 8 16 q1 4 7 6 l101 0 q7 20 22 40 q32 43 87 52 q48 10 89 -16 q37 -25 44 -70 q8 -62 -37 -105 q-30 -32 -74 -40 q-8 -2 -16 -2 q0 0 0 0 q-5 -1 -9 -1 q0 0 0 0 q-43 0 -76 27 q-23 20 -31 49 q-5 -11 -14 -21 q-32 -45 -88 -53 q-46 -7 -84 20 q-34 26 -39 69 q-5 52 26 92 q34 44 88 54 q44 10 82 -16 q25 -16 36 -44 q3 -4 -3 -5 l0 0 ZM48 248 q-2 0 -1 1 l7 9 q1 1 3 1 l112 0 q1 0 1 -2 l-6 -8 q-1 -2 -3 -2 l-113 1 l0 0 ZM1 219 q-2 0 -1 1 l7 9 q1 1 3 1 l142 0 q2 0 2 -1 l-3 -8 q0 -2 -2 -2 l-148 0 l0 0 ZM76 192 q-1 -1 1 -2 l68 0 q1 0 2 2 l0 8 q0 2 -1 2 l-63 0 q-2 0 -3 -2 l-4 -8 l0 0 ZM577 210 q0 1 0 2 l0 0 q0 2 0 5 q-5 24 -23 35 q-18 11 -41 6 q-44 -9 -55 -54 q-4 -18 4 -35 q8 -16 25 -24 q26 -11 51 2 q37 20 39 60 q0 1 0 1 q0 1 0 2 l0 0 Z" /><glyph glyph-name="pix" unicode="&#xe43a;" d="M242 155 q10 9 21 0 l77 -77 q22 -21 53 -22 l15 0 l-97 -97 q-24 -22 -55 -22 q-31 0 -55 22 l-98 98 l10 0 q30 0 53 22 l76 76 l0 0 ZM263 229 q-11 -8 -21 0 l-76 77 q-22 22 -53 22 l-10 0 l98 97 q24 23 55 23 q31 0 55 -23 l97 -97 l-15 0 q-31 0 -53 -22 l-77 -77 l0 0 ZM113 305 q21 0 37 -15 l76 -77 q12 -10 27 -11 q14 1 26 11 l77 77 q15 15 37 15 l37 0 l59 -58 q22 -24 22 -55 q0 -31 -22 -55 l-59 -58 l-37 0 q-22 0 -37 15 l-77 77 q-12 11 -27 11 q-15 0 -26 -11 l-76 -76 q-16 -15 -37 -16 l-32 0 l-58 58 q-23 24 -23 55 q0 31 23 55 l58 58 l32 0 l0 0 Z" /><glyph glyph-name="sitrox" unicode="&#xe44a;" d="M212 448 l0 0 l236 0 l0 -128 l-384 0 q3 54 48 90 q45 36 100 38 l0 0 ZM237 256 l0 0 q55 -2 100 -38 q44 -36 47 -90 l-173 0 l0 0 q-55 2 -100 38 q-44 36 -47 90 l173 0 l0 0 ZM236 -64 q55 2 100 38 l0 0 q45 36 48 90 l-384 0 l0 -128 l236 0 l0 0 l0 0 Z" /><glyph glyph-name="hashnode" unicode="&#xe499;" d="M35 277 q-35 -37 -35 -85 l0 0 q0 -48 35 -85 l136 -136 q37 -35 85 -35 q48 0 85 35 l136 136 q35 37 35 85 q0 48 -35 85 l-136 136 q-37 35 -85 35 q-48 0 -85 -35 l-136 -136 l0 0 ZM316 132 q-26 -24 -60 -24 l0 0 q-34 0 -59 24 q-25 26 -25 60 q0 34 25 59 q25 25 59 25 q34 0 60 -25 q24 -25 24 -59 q0 -34 -24 -60 l0 0 Z" /><glyph glyph-name="meta" unicode="&#xe49b;" d="M640 130 q0 -69 -29 -108 l0 0 q-28 -40 -81 -40 q-45 -1 -79 30 q-34 31 -78 106 l-32 53 q-7 11 -13 22 q-4 7 -8 13 q-16 -27 -31 -54 q-15 -27 -16 -29 q0 0 0 0 q-49 -86 -84 -115 q-35 -29 -73 -26 q-55 0 -85 39 q-31 39 -31 106 q1 73 25 136 q24 63 65 102 q41 39 94 41 q37 0 72 -21 q35 -21 73 -69 q27 39 59 64 q32 25 71 26 q50 -1 91 -39 q41 -37 65 -99 q24 -62 25 -138 l0 0 l0 0 ZM287 256 q-31 46 -55 63 l0 0 q-25 18 -49 17 q-31 -1 -57 -31 q-26 -30 -41 -78 q-15 -48 -16 -101 q2 -74 50 -75 q21 -2 42 20 q22 21 61 83 q0 1 17 28 q18 27 48 74 l0 0 l0 0 ZM531 51 q48 2 47 74 q-1 96 -36 160 q-34 63 -87 66 q-47 0 -95 -78 q14 -21 29 -46 l38 -62 q42 -69 62 -92 q21 -24 42 -22 l0 0 l0 0 Z" /><glyph glyph-name="padlet" unicode="&#xe4a0;" d="M298 448 l0 0 q12 -1 18 -12 l132 -308 l0 0 l0 -1 l-3 -10 l-43 -158 q-3 -12 -13 -18 q-10 -7 -22 -4 l-69 15 l-68 -15 q-13 -3 -23 4 q-10 6 -13 18 l-43 158 l-3 10 l0 1 l132 308 q6 11 18 12 l0 0 l0 0 ZM160 126 l131 -39 l7 -123 l8 122 l131 39 l0 0 l-131 -25 l-9 320 l-5 -320 l-132 26 l0 0 ZM426 225 l94 41 l74 0 l-157 -247 l32 109 l-43 97 l0 0 ZM598 267 l41 -77 q3 -6 -2 -10 q-4 -4 -10 -2 l-47 23 l18 66 l0 0 ZM127 129 l32 -111 l-157 275 q-4 9 1 15 q6 5 15 2 l151 -85 l-42 -96 l0 0 Z" /><glyph glyph-name="nfc-directional" unicode="&#xe530;" d="M212 -41 q2 -4 1 -8 q-1 -5 -5 -7 q-4 -3 -8 -2 q-95 23 -152 101 q-56 80 -46 177 q11 97 83 163 q74 64 171 65 q1 0 3 -1 q1 0 1 0 q1 0 2 -1 q1 -1 2 -1 q2 -2 3 -4 q0 -2 0 -4 l0 -101 l25 26 q1 1 3 2 q2 1 5 1 q2 0 4 -1 q2 0 4 -2 q1 -1 2 -4 q1 -2 1 -4 q0 -2 0 -4 q-1 -2 -3 -4 l-44 -47 q-1 -1 -3 -2 q-3 -1 -6 -1 q-1 0 -3 1 q-3 1 -4 2 l-44 47 q-3 4 -3 8 q0 5 3 8 q4 3 8 3 q5 0 8 -3 l25 -26 l0 89 q-87 -5 -151 -65 q-62 -61 -70 -148 q-7 -87 44 -158 q24 -34 60 -57 q35 -23 77 -33 q4 -1 7 -5 l0 0 l0 0 ZM171 322 q-1 -2 -3 -3 q-31 -22 -48 -55 q-18 -33 -18 -71 q0 -38 18 -70 q17 -34 48 -56 q4 -2 5 -7 q0 -3 -1 -7 q0 -1 -1 -1 q-3 -4 -7 -4 q-5 -2 -8 1 q-36 24 -57 62 q-20 39 -20 82 q0 43 20 82 q21 38 57 62 q1 2 4 2 q1 0 2 0 q1 0 2 0 q2 0 4 -1 q2 -2 3 -4 q2 -1 2 -4 q1 -2 0 -4 q0 -2 -2 -4 l0 0 l0 0 ZM341 64 q0 1 1 2 l0 0 q1 1 1 2 l0 0 q32 21 50 54 q17 34 17 71 q0 38 -17 71 q-18 34 -50 55 q0 0 -1 1 q-1 1 -1 2 q-1 2 -2 4 q-1 2 0 3 q0 1 0 1 q1 3 2 4 q0 1 1 1 q0 2 2 2 q2 2 4 2 q3 1 5 0 q2 0 4 -2 q35 -24 56 -62 q19 -39 19 -82 q0 -43 -19 -81 q-21 -39 -56 -63 q-2 -1 -4 -2 q-3 0 -5 0 q-1 0 -2 1 q-1 1 -2 1 q-2 1 -2 2 q-1 0 -1 1 q-1 2 -2 4 q0 0 0 1 q-1 2 0 3 q1 3 2 4 l0 0 l0 0 ZM312 442 q87 -21 143 -89 q46 -58 55 -131 q9 -73 -23 -140 q-32 -67 -94 -107 q-63 -39 -137 -39 q-2 0 -4 1 q-2 1 -4 2 q-2 2 -2 3 q0 1 0 1 q-1 2 -1 4 l0 99 l-25 -26 q-2 -2 -6 -3 q-1 0 -2 0 q-4 0 -8 4 q-3 2 -3 7 q0 5 3 8 l44 47 q3 3 7 3 q6 0 9 -3 l44 -47 q3 -3 3 -8 q0 -5 -3 -7 q-4 -4 -8 -4 q-1 0 -2 0 q-4 1 -6 3 l-25 26 l0 -87 q87 5 151 65 q62 62 71 148 q6 87 -45 158 q-52 70 -137 90 q-2 0 -4 1 q-1 2 -3 4 q0 0 0 0 q-2 2 -1 4 q-1 2 0 4 q0 2 2 4 q1 2 3 3 q2 1 4 2 q2 0 4 0 l0 0 l0 0 ZM353 192 q-1 -49 -49 -84 q-4 -2 -8 -2 q-4 1 -7 4 l-70 69 q-4 4 -3 8 q0 5 3 8 q4 4 8 4 q5 0 8 -4 l63 -62 q32 26 33 59 q-1 37 -40 65 q-4 3 -5 7 q-1 5 2 9 q3 3 7 4 q5 1 9 -2 q48 -35 49 -83 l0 0 l0 0 ZM217 106 q-5 0 -9 2 q-49 35 -50 84 q1 48 50 83 q4 3 8 2 q4 0 7 -3 l70 -70 q3 -3 3 -8 q0 -4 -3 -7 q0 0 0 -1 q-4 -3 -8 -3 q-5 0 -8 3 l-63 63 q-32 -26 -32 -59 q0 -36 39 -65 q4 -3 5 -8 q1 -4 -2 -8 q-3 -4 -7 -5 l0 0 l0 0 Z" /><glyph glyph-name="nfc-symbol" unicode="&#xe531;" d="M393 416 q12 1 21 -5 q63 -45 97 -101 q33 -56 33 -117 q0 -63 -33 -119 q-34 -56 -97 -101 q-8 -6 -18 -5 q-11 1 -19 9 l-183 182 q-9 9 -10 21 q1 12 10 21 q8 9 21 9 q12 0 20 -9 l166 -164 q83 69 84 156 q0 46 -27 90 q-27 43 -77 79 q-10 7 -12 19 q-2 12 5 22 q7 10 19 13 l0 0 l0 0 ZM187 -32 q-12 -1 -22 5 q-63 45 -96 101 q-33 56 -33 119 q0 61 33 117 q33 56 96 101 q9 6 19 5 q11 -1 19 -9 l183 -182 q9 -9 9 -21 q0 -12 -9 -21 q-8 -9 -21 -9 q-12 0 -21 9 l-165 164 q-83 -69 -84 -154 q0 -48 27 -92 q26 -44 76 -79 q11 -7 13 -19 q2 -12 -5 -23 q-7 -9 -19 -12 l0 0 l0 0 Z" /><glyph glyph-name="screenpal" unicode="&#xe570;" d="M234 426 q1 20 22 22 q21 -2 23 -22 q-2 -21 -23 -23 q-21 2 -22 23 l0 0 ZM313 189 q0 -24 -16 -41 l0 0 q-17 -16 -41 -16 q-24 0 -41 16 q-16 17 -16 41 q0 24 16 41 q17 16 41 16 q24 0 41 -16 q16 -17 16 -41 l0 0 ZM337 98 q34 31 40 77 l120 0 q-3 -46 -23 -88 q-19 -41 -53 -73 q-34 -32 -76 -49 q-42 -17 -89 -17 q-47 0 -89 17 q-43 17 -76 49 q-34 32 -53 73 q-20 42 -23 88 l120 0 q6 -46 40 -77 q35 -30 81 -31 q46 1 81 31 l0 0 ZM73 308 q-1 -21 -22 -24 q-20 2 -23 22 q1 21 22 23 q21 -1 23 -21 l0 0 ZM439 307 q2 21 22 22 q21 -1 23 -22 q-2 -21 -23 -23 q-20 2 -22 23 l0 0 ZM318 353 q-27 -22 -62 -23 q-35 1 -62 23 q-26 23 -32 57 q22 10 47 15 q0 -20 14 -34 q13 -13 33 -14 q20 1 34 14 q13 14 13 34 q25 -5 47 -15 q-6 -34 -32 -57 l0 0 l0 0 ZM83 217 q-33 -11 -66 1 q3 24 11 47 q8 -4 17 -6 q10 -1 19 2 q9 2 16 8 q8 6 12 14 q5 8 6 17 q2 10 -1 19 q-2 9 -8 16 q-6 8 -14 13 q16 18 36 33 q27 -23 34 -57 q6 -34 -11 -65 q-18 -30 -51 -42 l0 0 l0 0 ZM429 217 q-33 12 -50 42 q-18 31 -12 65 q7 34 34 57 q20 -15 36 -34 q-17 -10 -22 -28 q-5 -19 5 -36 q10 -17 29 -22 q18 -5 35 4 q8 -23 11 -47 q-33 -13 -66 -1 l0 0 l0 0 Z" /><glyph glyph-name="space-awesome" unicode="&#xe5ac;" d="M96 192 l32 0 l0 -256 l-128 0 l0 160 l32 0 l0 32 l32 0 l0 32 l32 0 l0 32 l0 0 ZM512 96 l0 -160 l-128 0 l0 256 l32 0 l0 -32 l32 0 l0 -32 l32 0 l0 -32 l32 0 l0 0 ZM320 384 l32 0 l0 -384 l-32 0 l0 32 l-128 0 l0 -32 l-32 0 l0 384 l32 0 l0 32 l32 0 l0 32 l64 0 l0 -32 l32 0 l0 -32 l0 0 ZM288 320 l-64 0 l0 -64 l64 0 l0 64 l0 0 Z" /><glyph glyph-name="square-font-awesome" unicode="&#xe5ad;" d="M385 415 l-320 0 q-28 0 -46 -18 q-18 -18 -18 -46 l0 -320 q0 -27 18 -45 q18 -18 46 -19 l320 0 q27 1 45 19 q18 18 19 45 l0 320 q-1 28 -19 46 q-18 18 -45 18 l0 0 ZM337 135 q-8 -2 -14 -4 l0 0 q-16 -6 -25 -9 l0 0 q-10 -3 -21 -3 q-16 1 -27 5 q-11 4 -22 7 q-11 4 -26 4 q-15 0 -25 -4 l0 32 q10 4 25 4 q22 0 37 -7 q15 -7 38 -9 q14 0 28 5 l0 96 q-14 -5 -28 -5 q-16 1 -27 5 q-11 4 -22 7 q-11 4 -26 4 q-22 0 -37 -7 q-9 -4 -20 -7 l0 -154 q-2 -14 -16 -16 q-15 2 -16 16 l0 192 q1 15 16 16 q14 -1 16 -16 l0 -6 q11 3 20 7 q15 7 37 7 q22 0 37 -7 q15 -7 38 -9 q11 0 21 3 q9 3 25 9 q6 2 14 4 l0 -160 l0 0 Z" /><glyph glyph-name="square-gitlab" unicode="&#xe5ae;" d="M48 416 l352 0 q20 -1 34 -14 q13 -14 14 -34 l0 -352 q-1 -20 -14 -34 q-14 -13 -34 -14 l-352 0 q-20 1 -34 14 q-13 14 -14 34 l0 352 q1 20 14 34 q14 13 34 14 l0 0 ZM382 223 l-44 116 q-2 4 -5 6 q-3 2 -5 2 q-3 0 -6 -1 q-2 -1 -4 -3 q-2 -2 -3 -5 l-30 -92 l-123 0 l-29 92 q-1 3 -3 5 q-1 1 -2 2 q-1 1 -2 1 q-1 0 -2 1 q-2 1 -4 0 q-2 0 -5 -2 q-3 -2 -4 -6 l-45 -116 l-1 -1 q-9 -26 -2 -53 q8 -26 30 -43 l0 0 l1 0 l67 -51 l55 -41 q3 -2 8 -3 q3 0 7 2 q0 1 1 1 l54 41 l69 51 l0 0 q22 17 30 43 q7 27 -2 53 l-1 1 l0 0 Z" /><glyph glyph-name="square-twitter" unicode="&#xf081;" d="M400 416 l-352 0 q-20 -1 -34 -14 q-13 -14 -14 -34 l0 -352 q1 -20 14 -34 q14 -13 34 -14 l352 0 q20 1 34 14 q13 14 14 34 l0 352 q-1 20 -14 34 q-14 13 -34 14 l0 0 ZM351 257 q0 -4 0 -8 l0 0 q0 0 0 0 q0 -45 -21 -87 q-22 -43 -63 -71 q-42 -28 -102 -29 q-57 1 -101 29 q8 0 16 0 q47 0 81 28 q-22 0 -38 13 q-17 12 -23 32 q14 -2 30 1 q-23 5 -38 23 q-15 17 -15 42 l0 1 q13 -8 30 -9 q-29 20 -30 55 q1 18 9 33 q25 -30 60 -48 q34 -18 76 -21 q-6 35 13 57 q19 23 51 24 q29 -1 47 -21 q23 5 42 16 q-8 -23 -29 -36 q20 2 38 10 q-14 -20 -33 -34 l0 0 Z" /><glyph glyph-name="square-facebook" unicode="&#xf082;" d="M400 416 l-352 0 q-20 -1 -34 -14 q-13 -14 -14 -34 l0 -352 q1 -20 14 -34 q14 -13 34 -14 l137 0 l0 152 l-63 0 l0 72 l63 0 l0 55 q1 46 26 71 q25 25 68 25 q21 0 38 -2 q16 -2 17 -3 q0 0 0 0 l0 -61 l-31 0 q-23 0 -32 -12 q-9 -11 -8 -26 l0 -47 l69 0 l-11 -72 l-58 0 l0 -152 l137 0 q20 1 34 14 q13 14 14 34 l0 352 q-1 20 -14 34 q-14 13 -34 14 l0 0 Z" /><glyph glyph-name="linkedin" unicode="&#xf08c;" d="M416 416 l-384 0 q-14 0 -23 -9 q-9 -10 -9 -23 l0 -384 q0 -13 9 -23 q9 -9 23 -9 l384 0 q14 0 23 9 q9 10 9 23 l0 384 q0 13 -9 23 q-9 9 -23 9 l0 0 ZM135 32 l-66 0 l0 214 l67 0 l0 -214 l-1 0 ZM102 275 q-16 0 -27 11 l0 0 q-11 11 -11 27 q0 17 11 28 q11 11 27 11 q17 0 27 -11 q11 -11 12 -28 q-1 -16 -12 -27 q-10 -11 -27 -11 l0 0 ZM384 32 l-66 0 l0 104 q1 20 -5 38 q-5 17 -30 19 q-25 -1 -33 -17 q-7 -16 -6 -38 l0 -106 l-67 0 l0 214 l64 0 l0 -29 l1 0 q6 13 22 23 q16 11 41 11 q49 -1 65 -29 q16 -29 14 -73 l0 -117 l0 0 Z" /><glyph glyph-name="square-github" unicode="&#xf092;" d="M400 416 l-352 0 q-20 -1 -34 -14 q-13 -14 -14 -34 l0 -352 q1 -20 14 -34 q14 -13 34 -14 l352 0 q20 1 34 14 q13 14 14 34 l0 352 q-1 20 -14 34 q-14 13 -34 14 l0 0 ZM277 32 q-12 0 -11 8 q0 3 0 12 q0 19 0 44 q-1 23 -11 30 q29 2 52 14 q22 13 24 59 q-1 25 -17 39 q1 4 3 16 q1 12 -5 29 q-12 2 -28 -7 q-16 -9 -18 -10 q0 -1 0 -1 q-20 6 -41 6 q-22 0 -42 -6 q-2 2 -18 11 q-16 9 -28 7 q-6 -17 -5 -29 q2 -12 4 -16 q-16 -14 -16 -39 q1 -46 23 -58 q22 -13 51 -15 q-7 -6 -10 -22 q-8 -4 -23 -4 q-14 0 -26 18 q-7 11 -16 14 q-8 3 -9 3 q-11 -1 -7 -5 q4 -5 6 -5 q8 -5 13 -14 q5 -9 5 -10 q10 -21 32 -21 q22 -1 24 1 q0 0 0 0 q0 -15 0 -31 q0 -7 0 -10 q1 -8 -11 -8 q-50 18 -81 60 q-30 43 -31 99 q1 70 46 115 q45 45 116 46 q70 -1 117 -46 q47 -45 49 -115 q-1 -56 -31 -99 q-29 -42 -80 -60 l0 0 ZM179 93 q-3 0 -4 2 q0 3 3 3 q4 0 4 -2 q0 -2 -3 -3 l0 0 ZM170 94 q-1 -2 -4 -2 q-3 0 -4 2 q1 2 4 3 q3 0 4 -3 l0 0 ZM156 95 q-1 -2 -4 -1 q-3 1 -3 3 q1 2 4 2 q3 -1 3 -4 l0 0 ZM144 101 q-2 -2 -5 0 q-2 3 -1 4 q2 2 5 0 q2 -3 1 -4 l0 0 ZM135 110 q-2 -1 -4 1 q-2 3 0 4 q2 1 4 -1 q1 -3 0 -4 l0 0 ZM128 120 q-2 -2 -3 0 q-2 2 -1 4 q2 1 4 -1 q1 -2 0 -3 l0 0 ZM121 127 q0 -1 -2 0 q-2 1 -2 2 q1 1 3 1 q2 -2 1 -3 l0 0 Z" /><glyph glyph-name="twitter" unicode="&#xf099;" d="M459 296 q1 -7 1 -13 l0 0 q0 0 0 0 q0 -71 -35 -139 q-34 -68 -101 -113 q-66 -45 -163 -47 q-90 1 -161 47 q12 -1 25 -1 q75 1 131 45 q-36 1 -62 21 q-26 20 -36 51 q9 -1 19 -1 q15 0 28 3 q-37 8 -60 36 q-23 28 -24 67 l0 2 q21 -12 47 -14 q-44 31 -47 88 q1 29 15 53 q39 -48 95 -77 q55 -29 121 -33 q-2 12 -2 24 q1 44 30 74 q30 30 74 31 q47 -1 77 -33 q36 7 67 25 q-13 -37 -46 -58 q31 4 60 17 q-22 -32 -53 -55 l0 0 Z" /><glyph glyph-name="facebook" unicode="&#xf09a;&#xf230;" d="M504 192 q-1 69 -34 125 l0 0 q-33 56 -89 89 l0 0 q-56 33 -125 34 q-69 -1 -125 -34 q-56 -33 -89 -89 q-33 -56 -34 -125 q2 -95 60 -162 q58 -67 149 -83 l0 173 l-63 0 l0 72 l63 0 l0 55 q1 46 26 71 q25 25 68 25 q21 0 38 -2 q16 -2 17 -3 q0 0 0 0 l0 -61 l-31 0 q-23 0 -32 -12 q-9 -11 -8 -26 l0 -47 l69 0 l-11 -72 l-58 0 l0 -173 q91 16 149 83 q58 67 60 162 l0 0 Z" /><glyph glyph-name="github" unicode="&#xf09b;" d="M166 51 q-1 -4 -5 -4 q-6 0 -6 4 q1 3 5 3 q5 0 6 -3 l0 0 ZM135 55 q-1 -3 4 -5 q5 -1 6 2 q1 4 -4 5 q-5 1 -6 -2 l0 0 ZM179 57 q-5 -1 -5 -5 q1 -3 6 -3 q5 2 5 5 q-1 3 -6 3 l0 0 ZM245 440 q-107 -2 -175 -70 l0 0 q-68 -68 -70 -174 q1 -85 47 -149 q46 -64 123 -90 q18 -1 17 12 q0 4 0 15 q0 23 0 46 q-2 0 -19 -2 q-18 -1 -38 4 q-20 6 -28 28 q0 2 -8 16 q-8 13 -20 21 q-2 1 -8 8 q-7 6 10 7 q1 1 14 -4 q13 -4 24 -22 q18 -27 39 -27 q22 0 34 6 q4 24 16 34 q-44 2 -77 22 q-33 19 -35 89 q0 20 6 33 q5 13 17 25 q-2 6 -4 24 q-2 18 7 44 q18 3 42 -11 q25 -13 27 -16 q0 0 0 0 q30 9 63 9 q32 0 63 -9 q0 1 13 9 q12 8 28 14 q16 7 28 4 q9 -26 7 -44 q-2 -18 -5 -24 q12 -12 19 -25 q7 -13 7 -33 q-1 -48 -17 -71 q-17 -22 -43 -30 q-26 -8 -55 -10 q16 -11 17 -46 q0 -37 0 -66 q0 -13 0 -18 q-1 -13 17 -12 q76 26 122 90 q45 64 46 149 q-1 70 -34 125 q-34 55 -90 87 q-57 31 -127 32 l0 0 ZM97 95 q-2 -2 1 -5 q3 -3 5 -1 q2 2 -1 5 q-2 3 -5 1 l0 0 ZM86 103 q0 -2 3 -4 q3 -1 4 1 q1 2 -2 4 q-3 1 -5 -1 l0 0 ZM119 68 q-2 -3 1 -7 q4 -3 7 -1 q1 3 -2 7 q-4 3 -6 1 l0 0 ZM107 82 q-2 -2 0 -6 q3 -3 6 -2 q2 2 0 6 q-3 4 -6 2 l0 0 Z" /><glyph glyph-name="pinterest" unicode="&#xf0d2;" d="M496 192 q-1 -69 -34 -125 l0 0 q-33 -56 -89 -89 l0 0 q-56 -33 -125 -34 q-38 0 -73 11 q8 13 17 31 q9 17 13 34 q3 11 9 33 q6 22 7 26 q0 0 0 0 q6 -12 22 -20 q15 -8 35 -8 q57 1 92 45 q35 43 36 109 q-1 63 -44 102 q-43 40 -109 41 q-80 -2 -122 -46 q-41 -43 -41 -104 q0 -29 13 -56 q13 -28 37 -40 q7 -3 8 3 q1 4 4 15 q2 8 3 13 q1 4 -2 7 q-7 10 -13 25 q-5 16 -5 32 q0 43 30 74 q29 32 82 34 q46 -1 75 -29 q28 -27 29 -72 q-1 -51 -23 -82 q-22 -31 -55 -32 q-19 1 -30 13 q-11 13 -7 32 q4 16 9 32 q10 29 11 50 q1 32 -31 35 q-19 0 -32 -17 q-12 -16 -13 -43 q1 -17 4 -26 q3 -10 4 -11 q0 0 0 0 q-1 -1 -7 -27 q-6 -26 -13 -55 q-7 -29 -9 -41 q-4 -16 -4 -36 q1 -20 3 -35 q-71 28 -114 90 q-43 61 -44 141 q1 69 34 125 q33 56 89 89 q56 33 125 34 q69 -1 125 -34 q56 -33 89 -89 q33 -56 34 -125 l0 0 Z" /><glyph glyph-name="square-pinterest" unicode="&#xf0d3;" d="M448 368 l0 -352 q-1 -20 -14 -34 q-14 -13 -34 -14 l-246 0 q8 13 16 29 q8 15 12 30 q3 11 9 34 q5 22 6 25 q7 -12 22 -20 q15 -8 34 -9 q57 2 92 45 q35 43 36 108 q-2 62 -44 102 q-42 39 -108 40 q-79 -2 -120 -45 q-42 -43 -42 -104 q0 -28 14 -55 q13 -28 36 -40 q7 -3 8 4 q1 2 2 8 q3 11 5 19 q1 4 -2 7 q-7 10 -13 25 q-5 15 -5 31 q0 43 29 74 q29 31 82 33 q46 -1 74 -28 q28 -27 29 -72 q-1 -51 -23 -81 q-21 -31 -55 -31 q-18 0 -29 13 q-11 12 -7 31 q4 16 9 32 q10 29 11 50 q-1 26 -19 33 q-19 6 -37 -8 q-18 -15 -19 -50 q0 -17 3 -26 q4 -10 4 -11 q0 0 0 0 q-8 -34 -14 -57 q-9 -38 -14 -59 q-4 -21 -4 -37 q0 -16 2 -39 l3 -1 l-89 0 q-20 1 -34 14 q-13 14 -14 34 l0 352 q1 20 14 34 q14 13 34 14 l352 0 q20 -1 34 -14 q13 -14 14 -34 l0 0 Z" /><glyph glyph-name="square-google-plus" unicode="&#xf0d4;" d="M400 416 l-352 0 q-20 -1 -34 -14 q-13 -14 -14 -34 l0 -352 q1 -20 14 -34 q14 -13 34 -14 l352 0 q20 1 34 14 q13 14 14 34 l0 352 q-1 20 -14 34 q-14 13 -34 14 l0 0 ZM164 92 q-43 1 -71 29 l0 0 q-28 28 -29 71 q1 43 29 71 q28 28 71 29 q41 -1 67 -26 l-27 -26 q-11 13 -40 15 q-26 -1 -44 -18 q-17 -18 -18 -45 q1 -27 18 -45 q18 -18 44 -18 q29 1 42 16 q13 15 15 27 l-57 0 l0 34 l94 0 q2 -7 2 -16 q-1 -44 -26 -71 q-26 -26 -70 -27 l0 0 ZM384 174 l-29 0 l0 -29 l-29 0 l0 29 l-29 0 l0 29 l29 0 l0 29 l29 0 l0 -29 l29 0 l0 -29 l0 0 Z" /><glyph glyph-name="google-plus-g" unicode="&#xf0d5;" d="M386 220 q3 -14 3 -32 q-1 -84 -50 -135 q-50 -52 -134 -53 q-82 2 -136 56 q-54 54 -56 136 q2 82 56 136 q54 54 136 56 q78 -2 128 -50 l-52 -50 q-10 10 -29 20 q-19 9 -47 9 q-51 -1 -84 -35 q-34 -34 -35 -86 q1 -52 35 -86 q33 -34 84 -35 q56 2 81 31 q25 28 28 51 l-109 0 l0 67 l181 0 l0 0 ZM571 213 l0 56 l-56 0 l0 -56 l-55 0 l0 -56 l55 0 l0 -56 l56 0 l0 56 l56 0 l0 56 l-56 0 l0 0 Z" /><glyph glyph-name="linkedin-in" unicode="&#xf0e1;" d="M100 0 l-93 0 l0 299 l93 0 l0 -299 ZM54 340 q-23 1 -38 16 l0 0 q-15 15 -16 38 q2 32 27 47 q25 14 54 0 q26 -16 27 -47 q-1 -23 -16 -38 q-15 -15 -38 -16 l0 0 ZM448 0 l-93 0 l0 146 q2 27 -6 52 q-8 25 -42 27 q-35 -1 -46 -24 q-11 -23 -10 -53 l0 -148 l-93 0 l0 299 l90 0 l0 -41 l1 0 q9 19 31 33 q23 15 57 16 q68 -2 91 -41 q22 -40 20 -102 l0 -164 l0 0 Z" /><glyph glyph-name="github-alt" unicode="&#xf113;" d="M186 119 q0 -17 -9 -35 l0 0 q-8 -18 -28 -20 q-19 2 -28 20 q-8 18 -8 35 q0 17 8 36 q9 18 28 19 q20 -1 28 -19 q9 -19 9 -36 l0 0 ZM480 170 q2 -50 -17 -95 q-20 -37 -55 -53 q-36 -16 -78 -19 q-41 -4 -79 -3 q-3 0 -5 0 q-4 0 -8 0 q-38 -1 -81 3 q-43 3 -80 19 q-37 16 -57 53 q-21 45 -20 95 q0 64 41 113 q-7 24 -7 49 q0 16 3 27 q4 11 11 25 q34 0 59 -8 q25 -8 50 -28 q44 10 89 10 q41 0 80 -9 q25 20 50 27 q25 8 58 8 q7 -14 11 -25 q4 -11 4 -27 q0 -25 -8 -48 q40 -50 39 -114 l0 0 ZM416 119 q-1 34 -19 58 l0 0 q-19 24 -55 25 q-22 -1 -44 -4 q-6 -1 -12 -2 q-22 -3 -45 -3 q-23 0 -45 3 q-6 1 -11 1 q-22 4 -45 5 q-35 -1 -54 -25 q-19 -24 -19 -58 q0 -43 23 -65 q23 -22 57 -29 q34 -8 70 -7 l48 0 q36 -1 70 7 q35 7 57 29 q23 22 24 65 l0 0 ZM333 174 q-19 -1 -28 -19 l0 0 q-9 -19 -9 -36 q0 -17 9 -35 q9 -18 28 -20 q19 2 28 20 q9 18 9 35 q0 17 -9 36 q-9 18 -28 19 l0 0 Z" /><glyph glyph-name="maxcdn" unicode="&#xf136;" d="M461 5 l-97 0 l52 243 q3 16 -5 26 q-8 9 -24 9 l-49 0 l-60 -278 l-97 0 l59 278 l-83 0 l-60 -278 l-97 0 l60 278 l-45 96 l372 0 q61 -1 98 -45 q36 -46 24 -106 l-48 -223 l0 0 Z" /><glyph glyph-name="html5" unicode="&#xf13b;" d="M0 416 l35 -396 l157 -52 l157 52 l35 396 l-384 0 l0 0 ZM308 288 l-184 0 l5 -49 l175 0 l-13 -149 l-98 -27 l0 0 l-1 0 l-99 27 l-6 76 l48 0 l3 -38 l54 -15 l53 15 l6 62 l-167 0 l-12 146 l241 0 l-5 -48 l0 0 Z" /><glyph glyph-name="css3" unicode="&#xf13c;" d="M480 416 l-64 -368 l-223 -80 l-193 80 l20 95 l82 0 l-8 -41 l116 -44 l134 44 l19 97 l-333 0 l16 82 l333 0 l11 53 l-334 0 l17 82 l407 0 l0 0 Z" /><glyph glyph-name="btc" unicode="&#xf15a;" d="M310 205 q45 20 41 82 q-4 42 -36 60 q-31 18 -78 22 l0 79 l-49 0 l0 -77 q-19 0 -38 -1 l0 78 l-49 0 l0 -79 q-10 -1 -25 -1 q-15 0 -42 0 q-13 1 -30 1 l0 -52 q4 0 8 0 q25 1 38 -2 q14 -3 17 -20 l0 -217 q-2 -12 -12 -15 q-10 -2 -31 -1 q-5 0 -10 0 l-10 -58 q64 0 82 0 q17 0 15 0 l0 -68 l49 0 l0 67 q20 0 38 0 q0 0 0 0 l0 -67 l49 0 l0 68 q61 2 99 24 q37 21 44 77 q3 46 -16 69 q-19 24 -54 31 l0 0 ZM151 313 q4 0 9 1 l0 0 q18 1 42 -1 l0 0 q24 -2 42 -12 l0 0 q19 -11 20 -36 q-1 -25 -20 -35 q-19 -10 -43 -12 q-25 -2 -42 -1 q-5 0 -8 0 l0 96 l0 0 ZM151 62 l0 106 q5 0 11 0 q21 1 49 -1 q29 -2 50 -13 q22 -12 23 -39 q-1 -27 -24 -39 q-22 -11 -50 -13 q-29 -2 -50 -1 q-5 0 -9 0 l0 0 Z" /><glyph glyph-name="youtube" unicode="&#xf167;&#xf16a;" d="M550 324 q-12 37 -49 49 q-24 5 -74 8 q-50 2 -93 3 q-43 0 -46 0 q-3 0 -46 0 q-43 -1 -93 -3 q-50 -3 -74 -8 q-37 -12 -49 -49 q-5 -23 -8 -53 q-2 -31 -3 -55 q0 -23 0 -24 q0 -2 0 -25 q1 -24 3 -54 q3 -31 8 -54 q12 -37 49 -48 q24 -5 74 -8 q50 -2 93 -3 q43 0 46 0 q0 0 0 0 q3 0 46 0 q43 1 93 3 q50 3 74 8 q37 11 49 48 q5 23 8 54 q2 30 3 54 q0 23 0 25 q0 1 0 24 q-1 24 -3 55 q-3 30 -8 53 l0 0 ZM232 110 l0 163 l143 -81 l-143 -82 l0 0 Z" /><glyph glyph-name="xing" unicode="&#xf168;" d="M163 238 q-2 -3 -26 -46 l0 0 q-17 -29 -44 -78 q-8 -12 -18 -12 l-65 0 q-13 2 -9 14 l69 122 q1 0 0 0 l-44 76 q-5 12 9 14 l65 0 q11 0 18 -13 l45 -77 l0 0 ZM383 402 l-144 -253 l0 0 l91 -167 q5 -12 -8 -14 l-65 0 q-12 0 -18 12 l-93 169 q2 3 19 32 q33 59 126 223 q7 12 17 12 l66 0 q13 -2 9 -14 l0 0 Z" /><glyph glyph-name="square-xing" unicode="&#xf169;" d="M400 416 l-352 0 q-20 -1 -34 -14 q-13 -14 -14 -34 l0 -352 q1 -20 14 -34 q14 -13 34 -14 l352 0 q20 1 34 14 q13 14 14 34 l0 352 q-1 20 -14 34 q-14 13 -34 14 l0 0 ZM140 128 l-46 0 q-9 1 -6 10 l49 87 q0 0 0 0 l-31 54 q-4 9 6 10 l46 0 q8 0 13 -9 l32 -55 q-2 -3 -50 -88 q-5 -9 -13 -9 l0 0 ZM360 342 l-103 -181 l0 0 l66 -119 q3 -9 -6 -10 l-47 0 q-8 0 -13 9 l-66 120 q3 5 63 111 q18 31 41 71 q5 9 12 9 l47 0 q9 -1 6 -10 l0 0 Z" /><glyph glyph-name="dropbox" unicode="&#xf16b;" d="M264 332 l-132 -85 l132 -84 l-132 -84 l-132 85 l132 84 l-132 84 l132 84 l132 -84 l0 0 ZM132 52 l132 85 l132 -85 l-132 -84 l-132 84 l0 0 ZM264 164 l132 84 l-132 84 l132 84 l132 -84 l-132 -85 l132 -84 l-132 -84 l-132 85 l0 0 Z" /><glyph glyph-name="stack-overflow" unicode="&#xf16c;" d="M291 137 l-196 41 l-8 -39 l196 -41 l8 39 ZM342 224 l-154 128 l-25 -31 l153 -128 l26 31 ZM311 184 l-182 85 l-16 -37 l181 -84 l17 36 ZM262 416 l-32 -24 l119 -160 l32 24 l-119 160 ZM283 88 l-200 0 l0 -40 l200 0 l0 40 ZM322 8 l-279 0 l0 120 l-40 0 l0 -160 l359 0 l0 160 l-40 0 l0 -120 Z" /><glyph glyph-name="instagram" unicode="&#xf16d;" d="M224 307 q-49 -1 -81 -34 l0 0 q-33 -32 -34 -81 q1 -49 34 -81 q32 -33 81 -34 q49 1 81 34 q33 32 34 81 q-1 49 -34 81 q-32 33 -81 34 l0 0 ZM224 117 q-32 1 -53 22 l0 0 q-21 21 -22 53 q1 32 22 53 q21 21 53 22 q32 -1 53 -22 q21 -21 22 -53 q-1 -32 -22 -53 q-21 -21 -53 -22 l0 0 ZM371 312 q-3 -25 -27 -27 q-25 2 -27 27 q0 11 8 19 q7 7 19 7 q11 0 19 -7 q7 -8 8 -19 l0 0 ZM447 284 q0 55 -37 94 q-39 37 -93 37 q-20 1 -57 1 q-36 0 -72 0 q-37 0 -56 -1 q-54 0 -94 -37 q-37 -39 -36 -93 q-2 -20 -2 -57 q0 -36 0 -72 q0 -36 2 -56 q-1 -55 36 -94 q39 -37 94 -36 q19 -1 56 -2 q36 0 72 0 q37 1 57 2 q54 -1 93 36 q37 39 37 94 q1 20 1 56 q0 36 0 72 q0 37 -1 57 l0 -1 ZM399 60 q-13 -30 -43 -43 q-20 -7 -54 -8 q-34 -1 -62 -1 q-9 0 -16 0 q-7 0 -16 0 q-28 0 -62 1 q-33 1 -54 8 q-30 13 -43 43 q-7 21 -8 54 q-1 34 -1 62 q0 9 0 16 q0 7 0 16 q0 28 1 62 q1 34 8 54 q13 30 43 43 q21 7 54 8 q34 2 62 1 q9 0 16 0 q7 0 16 0 q28 0 62 -1 q34 -1 54 -8 q30 -13 43 -43 q7 -20 8 -54 q2 -34 1 -62 q0 -9 0 -16 q0 -7 0 -16 q1 -28 -1 -62 q-1 -34 -8 -54 l0 0 Z" /><glyph glyph-name="flickr" unicode="&#xf16e;" d="M400 416 l-352 0 q-20 -1 -34 -14 q-13 -14 -14 -34 l0 -352 q1 -20 14 -34 q14 -13 34 -14 l352 0 q20 1 34 14 q13 14 14 34 l0 352 q-1 20 -14 34 q-14 13 -34 14 l0 0 ZM145 129 q-28 1 -45 19 l0 0 q-18 17 -19 44 q1 28 19 45 q17 18 45 19 q27 -1 44 -19 q18 -17 19 -45 q-1 -27 -19 -44 q-17 -18 -44 -19 l0 0 ZM304 129 q-28 1 -45 19 l0 0 q-18 17 -19 44 q1 28 19 45 q17 18 45 19 q27 -1 44 -19 q18 -17 19 -45 q-1 -27 -19 -44 q-17 -18 -44 -19 l0 0 Z" /><glyph glyph-name="adn" unicode="&#xf170;" d="M248 280 l65 -98 l-130 0 l65 99 l0 -1 ZM496 192 q-1 -69 -34 -125 l0 0 q-33 -56 -89 -89 l0 0 q-56 -33 -125 -34 q-69 1 -125 34 q-56 33 -89 89 q-33 56 -34 125 q1 69 34 125 q33 56 89 89 q56 33 125 34 q69 -1 125 -34 q56 -33 89 -89 q33 -56 34 -125 l0 0 ZM396 109 l-148 223 l-148 -223 l30 0 l34 52 l168 0 l34 -52 l30 0 l0 0 Z" /><glyph glyph-name="bitbucket" unicode="&#xf171;&#xf172;" d="M22 416 q-14 -1 -16 -16 q0 -1 0 -3 l68 -412 q4 -17 21 -18 l326 0 q13 1 16 13 l68 417 q1 15 -13 19 q-2 0 -3 0 l-467 0 l0 0 ZM308 118 l-104 0 l-28 147 l157 0 l-25 -147 l0 0 Z" /><glyph glyph-name="tumblr" unicode="&#xf173;" d="M310 -32 q-11 -12 -36 -22 l0 0 q-26 -9 -62 -10 q-59 1 -91 25 q-32 24 -44 56 q-12 33 -12 60 l0 144 l-47 0 q-9 0 -10 10 l0 68 q0 11 11 16 q46 17 65 51 q18 33 20 66 q1 16 16 16 l71 0 q9 -1 10 -10 l0 -115 l83 0 q9 -1 10 -10 l0 -82 q-1 -9 -10 -10 l-84 0 l0 -133 q0 -26 17 -37 q18 -11 51 1 q7 3 13 2 q5 -1 7 -7 l22 -65 q4 -8 0 -14 l0 0 Z" /><glyph glyph-name="square-tumblr" unicode="&#xf174;" d="M400 416 l-352 0 q-20 -1 -34 -14 q-13 -14 -14 -34 l0 -352 q1 -20 14 -34 q14 -13 34 -14 l352 0 q20 1 34 14 q13 14 14 34 l0 352 q-1 20 -14 34 q-14 13 -34 14 l0 0 ZM318 52 q-7 -7 -23 -14 l0 0 q-16 -6 -38 -6 q-55 2 -74 32 q-19 29 -18 56 l0 90 l-30 0 q-5 0 -6 6 l0 43 q0 7 7 10 q29 11 40 32 q12 21 13 41 q1 10 10 10 l44 0 q6 -1 6 -6 l0 -72 l52 0 q6 -1 6 -6 l0 -52 q0 -5 -6 -6 l-52 0 l0 -83 q0 -16 11 -23 q11 -7 32 1 q4 2 8 1 q3 -1 4 -5 l14 -40 q2 -5 0 -9 l0 0 Z" /><glyph glyph-name="apple" unicode="&#xf179;" d="M319 179 q-1 55 50 85 q-29 40 -85 45 q-17 1 -34 -4 q-17 -5 -30 -10 q-16 -6 -24 -7 q-11 1 -28 8 q-24 10 -49 12 q-44 -1 -78 -34 q-35 -33 -37 -100 q0 -39 14 -81 q7 -19 23 -49 q16 -29 38 -52 q22 -23 47 -24 q16 1 32 8 q18 9 43 10 q24 -1 41 -9 q16 -8 36 -9 q24 2 45 23 q21 22 36 49 q15 28 21 47 q-45 25 -54 56 q-9 30 -7 36 q0 0 0 0 l0 0 ZM262 343 q19 25 23 45 l0 0 q3 19 1 28 l0 0 q0 0 0 0 q-18 -1 -37 -11 q-18 -10 -31 -24 q-27 -30 -25 -72 q39 -1 69 34 l0 0 Z" /><glyph glyph-name="windows" unicode="&#xf17a;" d="M0 354 l184 26 l0 -178 l-184 0 l0 152 l0 0 ZM0 30 l184 -26 l0 176 l-184 0 l0 -150 l0 0 ZM204 2 l244 -34 l0 212 l-244 0 l0 -178 l0 0 ZM204 382 l0 -180 l244 0 l0 214 l-244 -34 l0 0 Z" /><glyph glyph-name="android" unicode="&#xf17b;" d="M421 146 q-15 1 -21 12 l0 0 q-7 11 0 24 q8 12 21 12 q13 0 20 -12 q4 -6 4 -12 q-3 -22 -24 -24 l0 0 ZM155 146 q-14 1 -20 12 l0 0 q-7 11 0 24 q7 12 20 12 q13 0 21 -12 q3 -6 3 -12 q-2 -22 -24 -24 l0 0 ZM429 291 l48 83 q5 12 -8 15 q-6 0 -9 -5 l0 0 l-49 -85 q-59 27 -123 27 q-64 0 -123 -27 l-49 85 q-8 10 -17 1 q-3 -6 0 -11 l0 0 l48 -83 q-63 -35 -101 -94 q-39 -58 -46 -133 l576 0 q-7 75 -46 133 q-38 59 -101 94 l0 0 Z" /><glyph glyph-name="linux" unicode="&#xf17c;" d="M221 325 q0 -1 1 -1 l0 0 q1 -1 2 -1 q2 0 3 1 q-1 2 -3 3 q0 0 0 0 q-3 2 -6 0 q-1 0 -1 -1 q1 -1 2 -1 q1 0 2 0 l0 0 ZM199 323 q1 0 2 1 l0 0 q0 0 1 1 q1 0 1 0 q2 0 2 1 q1 1 0 1 q-3 2 -6 0 q0 0 0 0 q-3 -1 -3 -3 q1 -1 3 -1 l0 0 ZM420 44 q-5 7 -7 19 l0 0 q0 1 0 1 q-2 13 -11 22 q-2 2 -4 3 q-2 1 -4 2 q12 42 -4 79 q-8 23 -21 42 q-13 19 -25 33 q0 0 -1 1 q-13 15 -23 32 q-9 17 -9 39 q0 2 0 5 q1 25 -2 54 q-4 29 -20 50 q-16 21 -54 22 q-43 -1 -60 -21 q-17 -20 -19 -46 q-2 -27 0 -49 q1 -12 1 -19 q-1 -33 -23 -65 q-14 -17 -31 -42 q-17 -26 -27 -55 q-9 -27 -6 -53 q-5 -5 -10 -12 q-3 -5 -6 -8 q-6 -5 -15 -7 q-1 -1 -2 -1 q-11 -3 -19 -15 q-3 -6 -3 -12 q0 -6 1 -12 q1 -1 1 -2 q2 -11 0 -19 q-8 -21 -2 -32 q6 -10 20 -12 q8 -1 18 -2 q22 -2 41 -10 q31 -16 56 -11 q18 4 26 20 q9 1 19 3 q12 3 29 4 q11 0 24 -2 q14 -2 32 -2 q0 -4 2 -7 l0 0 q14 -25 40 -23 q26 2 49 28 q15 16 36 24 q8 4 15 8 q12 7 13 19 q1 11 -15 29 l0 0 ZM224 361 q8 16 22 16 l0 0 q13 0 22 -16 q8 -24 -5 -40 q-2 1 -12 5 q0 0 1 1 q2 1 3 3 q3 10 0 18 q-3 9 -9 9 q-6 1 -10 -6 q-4 -7 -2 -17 q-7 4 -13 5 q-2 11 3 22 l0 0 ZM183 372 q8 0 14 -9 l0 0 q6 -10 5 -24 q-5 -2 -10 -5 q1 7 -2 13 q-3 7 -8 7 q-6 -2 -7 -12 q0 -10 6 -16 q0 -1 0 -1 q2 1 -6 -5 q-12 13 -9 32 q3 18 17 20 l0 0 ZM169 311 q3 3 6 5 l0 0 q7 5 9 6 q0 1 1 1 q7 10 26 13 q11 1 26 -9 q5 -3 11 -5 q5 -1 12 -4 q14 -5 10 -18 q-4 -12 -22 -18 q-6 -2 -11 -6 q-10 -9 -27 -9 q-6 0 -10 2 q-6 3 -11 8 q-4 4 -9 7 q-13 7 -15 15 q-2 8 4 13 l0 -1 ZM173 -23 q-4 -25 -27 -28 l0 0 q-24 -2 -49 10 q-22 11 -44 11 q-25 1 -32 11 q-4 7 2 27 l0 0 q3 10 0 21 q0 2 0 3 q-3 12 1 20 q5 9 15 11 q2 1 4 2 q8 2 15 8 q4 5 8 10 q3 4 7 8 q6 9 17 7 q12 -2 22 -16 l20 -36 q6 -11 17 -24 q10 -12 17 -23 q7 -12 7 -22 l0 0 ZM171 3 q-6 11 -14 20 q12 -1 17 9 q3 10 -8 25 q-11 14 -24 23 q-13 9 -14 9 q0 0 0 0 q-20 13 -25 30 q-4 17 0 35 q4 18 12 33 q8 16 15 27 q5 4 -8 -21 q-8 -13 -13 -37 q-5 -23 10 -46 q1 32 14 62 q3 7 7 16 q10 21 20 47 q10 26 12 50 q3 -2 6 -5 q4 -2 8 -6 q2 -2 5 -4 q20 -14 42 -1 q3 2 6 4 q6 3 10 5 q15 5 22 15 q7 -24 18 -51 q10 -28 20 -45 q5 -8 12 -25 q7 -17 11 -39 q5 0 11 -2 q9 28 -2 52 q-11 24 -21 33 q-7 7 -3 7 q10 -9 20 -25 q10 -15 15 -34 q5 -18 1 -36 q13 -5 23 -14 q11 -8 8 -21 q-3 0 -4 0 q0 0 -1 0 q5 14 -22 26 q-16 7 -26 5 q-11 -2 -13 -17 q-17 -8 -21 -28 q-4 -16 -5 -39 q-1 -12 -6 -28 q0 -1 0 -1 q-25 -18 -55 -22 q-31 -4 -60 14 l0 0 ZM429 15 q-3 -12 -24 -20 l0 0 q-21 -8 -39 -27 q-22 -23 -44 -25 q-22 -2 -34 19 q-5 17 1 36 q2 7 4 13 q5 15 6 28 q1 23 4 39 q4 15 14 21 q1 0 1 0 q1 -22 19 -29 q10 -2 21 4 q11 5 17 12 q1 0 2 0 q12 2 21 -5 q7 -7 9 -20 q1 -12 8 -22 q15 -17 14 -24 l0 0 ZM173 299 q0 0 1 0 l0 0 q3 -3 7 -7 q10 -9 28 -10 q17 1 31 10 q0 0 0 0 q9 5 15 11 q7 5 3 6 q-2 0 -3 -2 q-1 -1 -3 -3 q-1 -1 -3 -2 q-6 -5 -11 -8 q-12 -8 -29 -10 q-16 1 -25 10 q-5 4 -8 7 q0 0 0 0 q-1 1 -1 2 q-1 2 -3 3 q-3 -1 1 -7 l0 0 Z" /><glyph glyph-name="dribbble" unicode="&#xf17d;" d="M256 440 q-69 -1 -125 -34 l0 0 q-56 -33 -89 -89 l0 0 q-33 -56 -34 -125 q1 -69 34 -125 q33 -56 89 -89 q56 -33 125 -34 q69 1 125 34 q56 33 89 89 q33 56 34 125 q-1 69 -34 125 q-33 56 -89 89 q-56 33 -125 34 l0 0 ZM420 326 q46 -56 48 -132 q-7 2 -50 7 q-43 5 -98 -1 q-8 20 -18 42 q58 26 87 52 q28 25 31 32 l0 0 ZM396 350 q-2 -6 -28 -30 l0 0 q-27 -24 -83 -46 q-27 48 -50 83 q-23 34 -29 41 q51 12 101 -1 q50 -12 89 -47 l0 0 ZM166 383 q5 -6 28 -40 l0 0 q23 -34 50 -82 q-76 -19 -131 -23 q-55 -4 -64 -3 q10 50 41 88 q31 39 76 60 l0 0 ZM44 192 q0 3 0 6 q10 -1 73 3 q63 5 145 27 q9 -18 17 -36 q-58 -17 -106 -57 q-48 -40 -74 -85 q-53 58 -55 142 l0 0 ZM126 25 q17 35 60 72 l0 0 q43 37 108 60 q22 -59 32 -102 q11 -43 13 -58 q-52 -22 -109 -16 q-56 7 -104 44 l0 0 ZM374 16 q-1 11 -11 52 l0 0 q-9 41 -30 99 q51 7 88 0 q37 -6 44 -9 q-7 -44 -31 -81 q-24 -36 -60 -61 l0 0 Z" /><glyph glyph-name="skype" unicode="&#xf17e;" d="M425 148 q4 21 4 44 q-2 87 -60 145 q-58 58 -145 60 q-22 0 -44 -4 q-29 22 -68 23 q-48 -1 -79 -33 q-32 -31 -33 -79 q1 -39 23 -68 q-4 -21 -4 -44 q2 -87 60 -145 q58 -58 145 -60 q22 0 44 4 q29 -22 68 -23 q47 1 79 33 q32 32 33 79 q-1 39 -23 68 l0 0 ZM230 57 q-50 0 -85 19 l0 0 q-34 18 -35 46 q0 12 7 21 q7 9 22 9 q19 -2 31 -18 q9 -9 22 -18 q13 -8 35 -9 q41 2 43 27 q-1 12 -11 18 q-10 5 -28 9 q-2 0 -3 1 q-9 2 -17 4 q-43 8 -71 24 q-29 16 -30 59 q2 44 35 63 q34 18 74 18 q43 0 76 -15 q33 -15 35 -40 q-1 -13 -8 -23 q-8 -9 -23 -9 q-17 1 -27 14 q-8 7 -18 13 q-11 6 -30 6 q-40 1 -42 -22 q0 -13 13 -18 q13 -6 40 -12 q8 -1 16 -3 q33 -6 61 -23 q28 -17 30 -55 q-2 -44 -35 -65 q-34 -21 -77 -21 l0 0 Z" /><glyph glyph-name="foursquare" unicode="&#xf180;" d="M323 445 l-273 0 q-28 -1 -39 -16 q-11 -16 -11 -30 l0 -434 q1 -15 7 -22 q6 -6 11 -8 q5 -2 15 -2 q10 1 18 9 q63 73 91 105 q28 33 34 40 q7 8 6 7 q0 0 0 0 q3 4 6 3 q1 0 1 0 l83 0 q25 1 34 14 q8 13 10 25 q1 0 1 1 l48 243 q16 64 -42 65 l0 0 ZM307 371 l-12 -60 q-3 -11 -16 -13 l-107 0 q-19 -1 -20 -20 l0 -13 q1 -19 20 -21 l91 0 q6 0 11 -5 q4 -6 3 -13 q-2 -9 -6 -31 q-4 -21 -5 -28 q-2 -10 -17 -13 l-73 0 q-10 0 -15 -2 q-6 -3 -12 -11 q2 3 -15 -18 q-16 -20 -74 -90 q-2 -1 -2 0 l0 339 q1 14 16 17 l219 0 q15 -2 14 -18 l0 0 Z" /><glyph glyph-name="trello" unicode="&#xf181;" d="M392 416 l-336 0 q-24 -1 -40 -16 q-15 -16 -16 -40 q0 0 0 0 q0 3 0 -12 q0 -16 0 -88 q0 -71 0 -236 q1 -24 16 -40 q16 -15 40 -16 l336 0 q24 1 40 17 q15 15 16 39 l0 336 q-1 24 -16 39 q-16 16 -40 17 l0 0 ZM197 77 q-2 -25 -27 -27 l-83 0 q-11 0 -19 8 q-7 7 -8 19 l0 254 q1 11 8 19 q8 8 19 8 l83 0 q12 0 19 -8 q8 -8 8 -19 l0 -254 l0 0 ZM390 189 q0 -12 -8 -19 l0 0 q-7 -8 -19 -8 l-81 0 q-11 0 -19 8 q-7 7 -8 19 l0 142 q1 11 8 19 q8 7 19 8 l81 0 q12 -1 19 -8 q8 -8 8 -19 l0 -142 l0 0 Z" /><glyph glyph-name="gratipay" unicode="&#xf184;" d="M248 440 q-69 -1 -125 -34 l0 0 q-56 -33 -89 -89 l0 0 q-33 -56 -34 -125 q1 -69 34 -125 q33 -56 89 -89 q56 -33 125 -34 q69 1 125 34 q56 33 89 89 q33 56 34 125 q-1 69 -34 125 q-33 56 -89 89 q-56 33 -125 34 l0 0 ZM363 214 l-113 -153 l-113 153 q-8 10 -9 32 q-1 22 23 40 q21 12 39 6 q18 -5 29 -18 q13 -14 31 -13 q18 0 31 13 q10 13 29 18 q18 6 39 -6 q23 -18 22 -40 q0 -22 -8 -32 l0 0 Z" /><glyph glyph-name="vk" unicode="&#xf189;" d="M31 385 q-22 -23 -27 -66 l0 0 q-5 -43 -4 -118 l0 -18 q-1 -75 4 -118 q5 -43 27 -66 q23 -22 66 -27 q43 -5 118 -4 l18 0 q75 -1 118 4 q43 5 66 27 q22 23 27 66 q5 43 4 118 l0 18 q1 75 -4 118 q-5 43 -27 66 q-23 22 -66 27 q-43 5 -118 4 l-18 0 q-75 1 -118 -4 q-43 -5 -66 -27 l0 0 ZM76 280 l51 0 q2 -64 24 -94 q21 -30 45 -35 l0 129 l48 0 l0 -74 q23 3 43 24 q20 21 28 50 l48 0 q-6 -29 -23 -54 q-17 -24 -42 -39 q28 -14 48 -39 q20 -24 28 -55 l-53 0 q-7 27 -28 45 q-21 18 -49 22 l0 -67 l-6 0 q-77 1 -118 50 q-42 49 -44 137 l0 0 Z" /><glyph glyph-name="weibo" unicode="&#xf18a;" d="M407 270 q5 19 -7 32 l0 0 q-12 13 -30 10 q-17 -1 -20 13 q-3 14 13 20 q39 6 62 -21 q24 -26 14 -64 q-7 -15 -21 -11 q-14 5 -11 21 l0 0 ZM215 1 q-54 0 -103 17 l0 0 q-49 16 -80 47 l0 0 q-31 30 -32 73 q2 68 76 143 q51 50 96 67 q45 17 68 2 q23 -15 10 -63 q-2 -8 3 -8 q5 0 8 2 q1 0 1 0 q62 25 97 12 q35 -12 17 -63 q-4 -12 8 -14 q67 -23 62 -74 q-5 -51 -66 -94 q-62 -44 -165 -47 l0 0 ZM359 148 q-6 42 -52 66 l0 0 q-46 25 -112 19 q-65 -7 -105 -40 q-41 -33 -38 -76 q5 -42 52 -67 q46 -24 111 -18 q65 7 106 40 q40 33 38 76 l0 0 ZM348 413 q-19 -7 -15 -23 l0 0 q4 -17 23 -15 q37 6 66 -10 q30 -16 43 -47 q14 -31 3 -67 q-3 -19 13 -25 q16 -5 24 13 q15 51 -4 94 q-18 43 -60 66 q-41 24 -93 14 l0 0 ZM269 102 q-14 -30 -45 -43 l0 0 q-31 -13 -64 -3 q-31 10 -42 36 q-11 25 2 53 q14 27 43 40 q29 13 60 5 q32 -9 46 -34 q13 -24 0 -54 l0 0 ZM183 132 q-10 4 -21 0 l0 0 q-10 -3 -17 -13 q-12 -22 9 -34 q10 -4 21 -1 q11 4 18 14 q11 22 -10 34 l0 0 ZM216 145 q-9 2 -15 -5 q-4 -9 4 -13 q9 -3 15 5 q4 9 -4 13 l0 0 Z" /><glyph glyph-name="renren" unicode="&#xf18b;" d="M214 279 q-1 -84 -41 -149 l0 0 q-41 -66 -107 -99 q-56 67 -58 160 q2 94 59 161 q57 67 147 83 l0 -156 l0 0 ZM255 -56 q-65 1 -118 30 q43 28 75 67 q31 40 43 88 q12 -48 44 -88 q31 -39 75 -67 q-53 -29 -119 -30 l0 0 ZM446 31 q-66 33 -107 99 l0 0 q-40 65 -41 149 l0 156 q90 -16 147 -83 q57 -67 59 -161 q-2 -93 -58 -160 l0 0 Z" /><glyph glyph-name="pagelines" unicode="&#xf18c;" d="M384 135 q-21 -50 -52 -66 l0 0 q-31 -16 -62 -12 l0 0 q-31 4 -52 14 l0 0 q-20 9 -21 10 q-31 -62 -79 -98 q-47 -35 -106 -36 q-12 1 -12 12 q0 10 12 12 q49 1 89 30 q41 29 68 80 q-21 -9 -50 -10 q-30 -1 -59 19 q-30 19 -52 73 q54 22 90 16 q36 -5 58 -24 q21 -19 30 -37 q15 36 22 79 q-3 -1 -37 -1 q-34 1 -70 21 q-35 20 -43 79 q59 21 93 1 q33 -20 47 -48 q13 -27 13 -30 q1 14 2 33 q1 18 1 20 q-2 1 -25 23 q-22 22 -33 59 q-11 37 20 83 q60 -23 71 -61 q12 -38 2 -68 q-9 -31 -11 -33 q0 -2 0 -14 q0 -11 0 -19 q-1 2 15 22 q15 20 45 34 q30 15 76 1 q-5 -65 -39 -87 q-34 -22 -67 -21 q-33 0 -36 2 q-7 -41 -20 -78 q1 3 25 21 q24 19 63 26 q39 7 84 -27 l0 0 Z" /><glyph glyph-name="stack-exchange" unicode="&#xf18d;" d="M18 116 l412 0 l0 -22 q0 -29 -19 -48 q-18 -20 -46 -20 l-19 0 l-87 -90 l0 90 l-176 0 q-28 0 -46 20 q-19 19 -19 48 l0 22 l0 0 ZM18 139 l412 0 l0 85 l-412 0 l0 -85 l0 0 ZM18 249 l412 0 l0 85 l-412 0 l0 -85 l0 0 ZM365 448 l-282 0 q-28 -1 -46 -20 q-19 -19 -19 -48 l0 -22 l412 0 l0 22 q0 29 -19 48 q-18 19 -46 20 l0 0 Z" /><glyph glyph-name="square-vimeo" unicode="&#xf194;" d="M400 416 l-352 0 q-20 -1 -34 -14 q-13 -14 -14 -34 l0 -352 q1 -20 14 -34 q14 -13 34 -14 l352 0 q20 1 34 14 q13 14 14 34 l0 352 q-1 20 -14 34 q-14 13 -34 14 l0 0 ZM384 266 q-2 -46 -65 -128 q-66 -84 -111 -84 q-28 0 -47 51 q-6 21 -11 39 q-13 52 -23 80 q-10 27 -23 28 q-4 0 -25 -15 l-15 19 q10 9 21 18 q22 21 41 36 q19 15 32 16 q37 4 46 -51 q14 -96 27 -116 q13 -19 40 26 q20 32 21 48 q2 24 -14 27 q-15 2 -31 -5 q24 78 90 75 q50 -1 47 -64 l0 0 Z" /><glyph glyph-name="slack" unicode="&#xf198;&#xf3ef;" d="M94 133 q0 -20 -14 -33 l0 0 q-13 -14 -33 -14 q-20 0 -33 14 q-13 13 -14 33 q1 20 14 33 q13 13 33 14 l47 0 l0 -47 l0 0 ZM118 133 q0 20 14 33 l0 0 q13 13 33 14 q20 -1 33 -14 q13 -13 14 -33 l0 -118 q-1 -20 -14 -33 q-13 -13 -33 -14 q-20 1 -33 14 q-14 13 -14 33 l0 118 l0 0 ZM165 322 q-20 0 -33 14 l0 0 q-14 13 -14 33 q0 20 14 33 q13 13 33 14 q20 -1 33 -14 q13 -13 14 -33 l0 -47 l-47 0 l0 0 ZM165 298 q20 0 33 -14 l0 0 q13 -13 14 -33 q-1 -20 -14 -33 q-13 -13 -33 -14 l-118 0 q-20 1 -33 14 q-13 13 -14 33 q1 20 14 33 q13 14 33 14 l118 0 l0 0 ZM354 251 q0 20 14 33 l0 0 q13 14 33 14 q20 0 33 -14 q13 -13 14 -33 q-1 -20 -14 -33 q-13 -13 -33 -14 l-47 0 l0 47 l0 0 ZM330 251 q0 -20 -14 -33 l0 0 q-13 -13 -33 -14 q-20 1 -33 14 q-13 13 -14 33 l0 118 q1 20 14 33 q13 13 33 14 q20 -1 33 -14 q14 -13 14 -33 l0 -118 l0 0 ZM283 62 q20 0 33 -14 l0 0 q14 -13 14 -33 q0 -20 -14 -33 q-13 -13 -33 -14 q-20 1 -33 14 q-13 13 -14 33 l0 47 l47 0 l0 0 ZM283 86 q-20 0 -33 14 l0 0 q-13 13 -14 33 q1 20 14 33 q13 13 33 14 l118 0 q20 -1 33 -14 q13 -13 14 -33 q-1 -20 -14 -33 q-13 -14 -33 -14 l-118 0 l0 0 Z" /><glyph glyph-name="wordpress" unicode="&#xf19a;" d="M62 279 l101 -278 q-54 26 -86 77 q-33 50 -34 114 q1 47 19 87 l0 0 ZM400 203 q-3 38 -18 58 q-1 2 -2 4 q-17 23 -19 46 q0 16 10 27 q10 11 26 11 q1 0 2 0 q1 0 1 0 q-59 54 -144 56 q-56 -1 -102 -26 q-47 -26 -76 -70 q8 0 14 0 q18 0 36 1 q19 1 21 1 q0 0 0 0 q8 0 9 -8 q0 -7 -8 -9 q-3 -1 -24 -2 l77 -231 l47 140 l-33 91 q-20 1 -23 2 q-8 1 -8 9 q1 8 10 8 q1 0 20 -1 q18 -1 36 -1 q18 0 36 1 q19 1 20 1 q0 0 0 0 q9 0 10 -8 q0 -7 -8 -9 q-3 -1 -24 -2 l76 -229 l22 71 q1 4 2 7 q13 38 14 62 l0 0 ZM260 173 l-64 -185 q29 -9 60 -9 q37 0 71 12 q-1 2 -2 3 l-65 179 l0 0 ZM443 294 q1 -10 1 -22 q1 -31 -16 -76 l-65 -188 q48 28 77 76 q28 48 29 108 q-1 56 -26 102 l0 0 ZM504 192 q-1 -69 -34 -125 l0 0 q-33 -56 -89 -89 l0 0 q-56 -33 -125 -34 q-69 1 -125 34 q-56 33 -89 89 q-33 56 -34 125 q1 69 34 125 q33 56 89 89 q56 33 125 34 q69 -1 125 -34 q56 -33 89 -89 q33 -56 34 -125 l0 0 ZM493 192 q-1 66 -33 119 l0 0 q-31 54 -85 85 l0 0 q-53 32 -119 33 q-66 -1 -119 -33 q-54 -31 -85 -85 q-32 -53 -33 -119 q1 -66 33 -119 q31 -54 85 -85 q53 -32 119 -33 q66 1 119 33 q54 31 85 85 q32 53 33 119 l0 0 Z" /><glyph glyph-name="openid" unicode="&#xf19b;" d="M272 16 l-68 -32 q-89 9 -145 49 q-57 40 -59 97 q2 54 55 94 q53 39 137 50 l0 -43 q-55 -10 -89 -37 q-34 -27 -35 -64 q1 -39 39 -67 q37 -28 96 -36 l0 340 l68 33 l0 -384 l1 0 ZM448 157 l-131 28 l37 21 q-30 18 -70 25 l0 43 q70 -9 120 -39 l35 19 l9 -97 l0 0 Z" /><glyph glyph-name="yahoo" unicode="&#xf19e;" d="M224 307 l-57 -143 l-56 143 l-96 0 l106 -249 l-39 -90 l94 0 l141 339 l-93 0 ZM329 171 q-35 -2 -50 -29 l0 0 q-16 -27 0 -58 q19 -29 50 -29 q32 0 51 29 q7 13 7 29 q0 25 -17 41 q-16 17 -41 17 l0 0 ZM395 416 l-93 -223 l104 0 l93 223 l-104 0 Z" /><glyph glyph-name="google" unicode="&#xf1a0;" d="M488 186 q-2 -108 -66 -174 l0 0 q-65 -66 -174 -68 q-69 1 -125 34 q-56 33 -89 89 q-33 56 -34 125 q1 69 34 125 q33 56 89 89 q56 33 125 34 q101 -2 166 -65 l-67 -65 q-47 42 -105 38 q-58 -3 -102 -44 q-43 -42 -46 -112 q2 -67 45 -111 q44 -44 109 -46 q49 1 79 20 q30 19 45 43 q14 25 17 44 l-141 0 l0 86 l236 0 q4 -18 4 -42 l0 0 Z" /><glyph glyph-name="reddit" unicode="&#xf1a1;" d="M202 142 q-23 3 -25 25 q2 23 25 25 q22 -2 24 -25 q-2 -22 -24 -25 l0 0 ZM504 192 q-1 -69 -34 -125 l0 0 q-33 -56 -89 -89 l0 0 q-56 -33 -125 -34 q-69 1 -125 34 q-56 33 -89 89 q-33 56 -34 125 q1 69 34 125 q33 56 89 89 q56 33 125 34 q69 -1 125 -34 q56 -33 89 -89 q33 -56 34 -125 l0 0 ZM372 233 q-15 0 -24 -10 q-35 24 -86 27 l17 78 l56 -12 q2 -23 24 -25 q23 2 25 25 q-2 23 -25 25 q-15 -1 -22 -14 l-61 14 q-5 0 -7 -5 l-19 -86 q-51 -3 -86 -27 q-9 10 -24 10 q-26 -2 -32 -25 q-5 -23 18 -38 q-2 -7 -2 -15 q2 -41 39 -67 q37 -27 93 -28 q56 1 94 28 q37 26 39 67 q0 8 -2 16 q22 14 17 37 q-6 23 -32 25 l0 0 ZM303 117 q-16 -14 -47 -14 l0 0 q-31 1 -47 14 q-4 3 -8 0 q-4 -5 0 -9 q20 -17 55 -17 q35 0 55 17 q4 4 0 9 q-4 3 -8 0 l0 0 ZM311 192 q-23 -2 -25 -25 q2 -22 25 -25 q22 3 24 25 q-2 23 -24 25 l0 0 Z" /><glyph glyph-name="square-reddit" unicode="&#xf1a2;" d="M283 102 q4 -4 0 -9 q-21 -18 -59 -18 q-38 0 -59 18 q-4 5 0 9 q4 4 9 0 q16 -14 50 -14 q33 0 50 14 q5 4 9 0 l0 0 ZM192 156 q-2 25 -27 27 q-24 -2 -26 -27 q2 -24 26 -26 q12 0 19 8 q8 7 8 18 l0 0 ZM283 183 q-25 -2 -27 -27 q0 -11 8 -18 q7 -8 19 -8 q24 2 26 26 q-2 25 -26 27 l0 0 ZM448 368 l0 -352 q-1 -20 -14 -34 q-14 -13 -34 -14 l-352 0 q-20 1 -34 14 q-13 14 -14 34 l0 352 q1 20 14 34 q14 13 34 14 l352 0 q20 -1 34 -14 q13 -14 14 -34 l0 0 ZM348 227 q-15 0 -25 -10 q-38 26 -93 28 l19 84 l59 -13 q1 -11 8 -19 q8 -7 19 -7 q11 0 19 8 q7 7 8 18 q-1 12 -8 19 q-8 8 -19 8 q-16 -1 -24 -15 l-66 15 q-5 1 -7 -5 l-21 -93 q-54 -3 -91 -29 q-11 11 -26 11 q-29 -2 -35 -27 q-6 -25 19 -40 q-2 -8 -2 -17 q2 -43 42 -72 q40 -29 100 -30 q61 1 101 30 q40 29 41 72 q1 9 -2 17 q25 16 19 40 q-6 25 -35 27 l0 0 Z" /><glyph glyph-name="stumbleupon-circle" unicode="&#xf1a3;" d="M256 440 q-69 -1 -125 -34 l0 0 q-56 -33 -89 -89 l0 0 q-33 -56 -34 -125 q1 -69 34 -125 q33 -56 89 -89 q56 -33 125 -34 q69 1 125 34 q56 33 89 89 q33 56 34 125 q-1 69 -34 125 q-33 56 -89 89 q-56 33 -125 34 l0 0 ZM256 262 q-16 -1 -18 -17 l0 -107 q-1 -32 -22 -52 q-21 -21 -53 -22 q-32 1 -53 22 q-21 21 -22 53 l0 46 l58 0 l0 -46 q1 -16 17 -17 q17 1 18 17 l0 109 q1 31 22 51 q22 20 53 21 q31 -1 53 -21 q21 -21 22 -52 l0 -23 l-34 -10 l-23 10 l0 21 q-2 16 -18 17 l0 0 ZM424 139 q-1 -32 -22 -53 l0 0 q-21 -21 -53 -22 q-32 1 -53 22 q-21 21 -22 52 l0 47 l23 -11 l34 10 l0 -47 q1 -16 18 -17 q16 1 17 17 l0 48 l58 0 q0 -33 0 -40 q0 -8 0 -6 l0 0 Z" /><glyph glyph-name="stumbleupon" unicode="&#xf1a4;" d="M503 182 l0 -70 q-1 -47 -33 -79 q-32 -32 -79 -33 q-48 1 -80 32 q-32 32 -33 79 l0 70 l34 -16 l52 16 l0 -71 q2 -24 26 -27 q12 1 19 8 q8 8 8 19 l0 72 l86 0 l0 0 ZM278 240 l35 -16 l51 15 l0 36 q-2 47 -34 77 q-31 31 -78 32 q-47 -1 -79 -32 q-32 -30 -34 -76 l0 -163 q-2 -24 -26 -26 q-25 2 -27 26 l0 69 l-86 0 l0 -70 q1 -47 33 -79 q32 -32 79 -33 q48 1 80 32 q32 32 33 79 l0 160 q0 11 8 19 q7 8 19 8 q11 0 18 -8 q8 -8 8 -19 l0 -31 l0 0 Z" /><glyph glyph-name="delicious" unicode="&#xf1a5;" d="M447 380 q-1 1 -1 2 l0 0 q-1 1 -1 2 q-1 4 -3 8 q-2 3 -5 6 q-3 4 -7 7 q-1 2 -3 3 q0 0 0 0 q-2 1 -4 2 q-3 2 -6 3 q-2 1 -5 1 q-6 2 -12 2 l-352 0 q-20 -1 -34 -14 q-13 -14 -14 -34 l0 -352 q0 -6 2 -12 q3 -12 11 -20 q1 -2 3 -4 q8 -8 20 -11 q6 -1 12 -1 l352 0 q20 0 34 14 q14 14 14 34 l0 352 q0 6 -1 12 l0 0 ZM416 16 q-1 -15 -16 -16 l-176 0 l0 192 l-192 0 l0 176 q1 15 16 16 l176 0 l0 -192 l192 0 l0 -176 Z" /><glyph glyph-name="digg" unicode="&#xf1a6;" d="M82 276 l-82 0 l0 -175 l133 0 l0 251 l-51 0 l0 -76 l0 0 ZM82 142 l-31 0 l0 93 l31 0 l0 -93 l0 0 ZM379 276 l0 -175 l82 0 l0 -28 l-82 0 l0 -41 l133 0 l0 244 l-133 0 l0 0 ZM461 142 l-31 0 l0 93 l31 0 l0 -93 l0 0 ZM225 101 l82 0 l0 -28 l-82 0 l0 -41 l133 0 l0 244 l-133 0 l0 -175 l0 0 ZM276 235 l31 0 l0 -93 l-31 0 l0 93 l0 0 ZM153 352 l52 0 l0 -51 l-52 0 l0 51 l0 0 ZM153 276 l52 0 l0 -175 l-52 0 l0 175 l0 0 Z" /><glyph glyph-name="pied-piper-pp" unicode="&#xf1a7;" d="M205 273 q0 -16 -9 -27 l0 0 q-9 -10 -22 -11 q-11 0 -18 4 l0 68 q7 4 18 4 q13 0 22 -11 q9 -11 9 -27 l0 0 ZM258 206 q-11 0 -17 -4 l0 -68 q6 -4 17 -4 q13 1 22 12 q9 10 10 26 q-1 17 -10 27 q-9 11 -22 11 l0 0 ZM448 368 l0 -352 q-1 -20 -14 -34 q-14 -13 -34 -14 l-352 0 q-20 1 -34 14 q-13 14 -14 34 l0 352 q1 20 14 34 q14 13 34 14 l352 0 q20 -1 34 -14 q13 -14 14 -34 l0 0 ZM185 193 q32 1 52 23 l0 0 q21 23 22 56 q-1 34 -22 57 q-20 22 -52 23 q-18 0 -35 -9 l-45 0 l0 -206 l52 10 l0 51 q12 -5 28 -5 l0 0 ZM343 168 q0 33 -21 56 l0 0 q-21 22 -52 23 q-5 0 -10 0 q-6 -19 -19 -34 q-22 -23 -52 -25 l0 -156 l52 10 l0 51 q13 -5 28 -5 q32 1 53 23 q21 23 21 57 l0 0 Z" /><glyph glyph-name="pied-piper-alt" unicode="&#xf1a8;" d="M244 202 q-5 3 -10 3 q-5 0 -10 -2 q-5 -1 -9 -2 l1 -5 l28 6 ZM380 4 q-16 0 -41 -6 l0 0 q-25 -6 -39 -14 l7 -45 q53 -10 106 10 q-1 2 -3 6 q-6 14 -15 31 q-9 17 -15 18 l0 0 ZM341 271 q7 -3 19 -17 l0 0 q1 -3 4 -5 q0 0 0 0 q5 3 7 8 q0 4 -5 9 q-6 6 -8 14 q11 6 25 7 q6 1 12 2 q102 23 147 117 q11 19 13 40 l-2 -3 q-4 -7 -8 -13 q-15 -28 -29 -45 q-13 -18 -45 -42 q-49 -34 -106 -54 l-7 0 l0 22 q-17 0 -22 12 q-3 6 -9 11 q-6 -6 -11 -12 q-18 -25 -48 -39 q-18 -6 -26 -22 q28 12 60 12 q31 1 39 -2 l0 0 ZM556 448 l-1 -1 l0 -1 l0 1 l1 1 ZM496 66 q-24 45 -59 80 l0 0 q-35 35 -91 35 l0 6 q0 7 11 7 q7 1 15 5 q8 4 9 19 l-14 -7 q-6 14 -9 23 q-5 19 -15 26 q-9 6 -42 5 q-21 0 -41 -4 q6 -29 -11 -50 l19 -6 q-2 -5 -2 -10 q1 -12 18 -12 q9 -1 16 -5 q8 -4 8 -16 q-1 -16 -20 -37 q-19 -21 -35 -23 q-4 0 -17 13 q-13 12 -24 27 q-11 14 -12 20 l0 4 l53 12 q9 3 9 12 q-1 9 -12 10 q-4 0 -18 -3 q-14 -3 -25 -6 q-5 -1 -7 -1 q-3 11 -13 14 q-3 0 -6 -2 q-2 -1 -4 -2 q-2 -1 -6 -1 q-8 -1 -14 -5 q-7 -4 -1 -14 l-140 -31 q-9 -2 -9 -11 q1 -10 12 -11 q6 0 38 7 q32 7 65 15 q34 8 44 10 q1 -1 2 -2 q2 -4 6 -7 q14 -12 33 -40 q13 -17 24 -31 q12 -14 19 -14 q19 0 40 13 q20 13 31 28 q5 8 13 7 q-3 -12 -19 -27 q-12 -10 -14 -16 q-1 -9 -1 -23 q0 -13 1 -19 q24 -5 48 1 q14 2 29 2 q2 7 3 14 q7 25 7 50 l0 9 q-1 23 -8 33 q-6 10 -20 21 q-3 2 -7 5 q0 0 0 0 q-2 2 -4 4 q1 0 1 1 q1 0 4 1 q37 -2 52 -39 q14 -36 21 -83 q5 -34 13 -64 q9 -29 26 -44 q16 7 33 14 q37 14 70 33 q-2 2 -4 3 q-20 18 -37 35 q-17 18 -32 42 l0 0 ZM300 20 l0 -27 l12 3 l-3 24 l-9 0 ZM231 170 l24 -61 l22 14 l-32 51 l-14 -4 ZM316 15 l2 -12 q2 0 7 1 q14 2 32 5 q18 3 19 8 q0 2 0 3 q-1 1 -1 2 q-24 -1 -39 -4 q-9 -1 -20 -3 l0 0 Z" /><glyph glyph-name="drupal" unicode="&#xf1a9;" d="M304 340 q-28 26 -50 53 l0 0 q-22 26 -30 55 q-8 -28 -30 -55 q-22 -26 -50 -53 q0 0 0 0 q0 0 0 0 q-42 -40 -77 -89 q-35 -49 -37 -116 q0 -83 54 -139 q53 -56 136 -60 q82 0 138 54 q56 54 60 136 q0 4 0 9 q-2 67 -37 116 q-35 49 -77 89 q0 0 0 0 l0 0 ZM130 117 q-9 -11 -16 -24 q-1 -2 -3 -3 l-2 0 q-3 0 -6 4 q-3 4 -3 4 q0 0 0 0 l0 0 q-2 3 -3 7 l-1 2 q-8 20 -5 40 q2 20 3 22 l0 0 q8 27 23 50 q10 14 22 27 l9 -9 l43 -44 q3 -4 0 -7 l-45 -50 l0 0 l-16 -19 ZM226 -10 q-40 2 -58 33 l0 0 q-18 32 1 68 q3 5 7 10 q11 13 24 26 q12 13 27 30 q31 -34 51 -58 q2 -2 3 -5 q12 -17 12 -38 q-1 -28 -19 -47 q-19 -19 -48 -19 l0 0 ZM352 96 l0 0 q-1 -4 -6 -5 l-1 0 q-4 1 -6 5 l0 0 q-18 26 -40 49 l-18 19 l-59 61 q-18 17 -35 36 q-1 1 -1 2 q-3 4 -5 9 l0 1 q-2 17 9 28 q18 17 34 35 q17 -19 35 -36 q2 -1 3 -3 l0 0 q38 -36 69 -79 q27 -37 27 -83 q0 -20 -6 -39 l0 0 Z" /><glyph glyph-name="joomla" unicode="&#xf1aa;" d="M1 356 q0 26 17 42 l0 0 q17 17 42 18 q23 0 39 -14 q17 -14 21 -36 q50 13 96 -30 l-44 -45 q-16 15 -31 15 q-15 -1 -25 -11 q-10 -11 -10 -26 q0 -15 10 -26 l100 -100 l-44 -44 q-38 38 -51 51 q-13 12 -18 17 q-3 4 -10 11 q-6 6 -21 21 q-20 20 -26 46 q-6 27 1 53 q-20 4 -33 20 q-13 16 -13 38 l0 0 ZM130 239 l44 -44 q0 0 0 0 q7 6 28 28 q22 22 44 44 q22 22 28 28 q11 11 26 11 q15 0 26 -11 q10 -10 11 -25 q0 -15 -14 -30 l44 -45 q45 49 28 101 q23 4 37 20 q15 17 15 40 q0 26 -17 42 q-17 17 -42 18 q-24 0 -40 -15 q-16 -14 -20 -37 q-26 8 -52 2 q-26 -7 -46 -27 q-13 -13 -38 -37 q-24 -25 -47 -48 q-8 -8 -15 -15 l0 0 ZM396 87 q7 25 0 50 l0 0 q-7 25 -26 44 q-2 2 -3 4 q-2 2 -7 7 q-5 5 -25 24 q-19 20 -64 65 l-45 -44 l100 -100 q11 -11 11 -26 q0 -15 -11 -26 q-10 -10 -25 -11 q-15 0 -30 14 l-44 -44 q21 -22 48 -29 q28 -7 54 1 q5 -21 21 -34 q16 -13 38 -14 q26 1 42 18 q17 17 18 42 q0 23 -15 40 q-14 16 -37 19 l0 0 ZM312 140 l-44 45 q-39 -39 -52 -52 q-12 -12 -17 -18 q-4 -3 -11 -10 q-6 -7 -20 -20 q-11 -11 -26 -11 q-14 0 -26 11 q-10 10 -10 25 q-1 15 14 30 l-44 45 q-44 -47 -30 -99 q-20 -5 -33 -20 q-13 -16 -13 -38 q1 -26 18 -42 q16 -17 42 -18 q22 0 38 13 q15 13 20 34 q25 -6 50 0 q25 7 45 26 q9 9 14 15 q6 5 10 10 q7 6 22 22 q16 16 53 52 l0 0 Z" /><glyph glyph-name="behance" unicode="&#xf1b4;" d="M232 211 q48 21 48 74 q-1 52 -33 70 q-33 19 -80 18 l-167 0 l0 -355 l172 0 q50 0 86 25 q37 24 39 78 q0 69 -65 90 l0 0 ZM78 312 l73 0 q22 1 37 -8 q16 -8 16 -32 q0 -23 -13 -33 q-13 -10 -34 -10 l-79 0 l0 83 l0 0 ZM161 78 l-83 0 l0 98 l85 0 q54 2 56 -51 q-1 -26 -17 -37 q-16 -10 -41 -10 l0 0 ZM520 319 l-144 0 l0 35 l144 0 l0 -35 l0 0 ZM576 143 q0 58 -32 98 l0 0 q-32 39 -93 41 q-59 -1 -95 -39 q-35 -38 -36 -97 q0 -61 35 -97 q35 -37 96 -38 q92 0 120 87 l-62 0 q-6 -17 -22 -25 q-17 -9 -34 -9 q-62 2 -63 66 l185 0 q1 6 1 13 l0 0 ZM390 174 q6 53 59 55 q52 -2 56 -55 l-115 0 l0 0 Z" /><glyph glyph-name="square-behance" unicode="&#xf1b5;" d="M187 155 q-3 -27 -32 -25 l-45 0 l0 52 l46 0 q29 1 31 -27 l0 0 ZM179 237 q-1 13 -9 18 l0 0 q-8 4 -20 4 l-40 0 l0 -45 l43 0 q24 0 26 23 l0 0 ZM311 214 q-29 -1 -32 -30 l63 0 q-3 29 -31 30 l0 0 ZM448 368 l0 -352 q-1 -20 -14 -34 q-14 -13 -34 -14 l-352 0 q-20 1 -34 14 q-13 14 -14 34 l0 352 q1 20 14 34 q14 13 34 14 l352 0 q20 -1 34 -14 q13 -14 14 -34 l0 0 ZM272 263 l78 0 l0 19 l-78 0 l0 -19 l0 0 ZM229 153 q0 39 -35 51 q26 10 26 37 q-1 28 -18 38 q-18 10 -43 10 l-91 0 l0 -192 l93 0 q27 0 47 13 q20 14 21 43 l0 0 ZM380 167 q0 32 -17 54 l0 0 q-18 21 -51 22 q-32 -1 -51 -21 q-19 -21 -20 -53 q1 -33 19 -52 q19 -20 52 -21 q50 0 66 47 l-34 0 q-3 -9 -12 -13 q-9 -5 -18 -5 q-34 1 -35 35 l101 0 q0 1 0 3 q0 2 0 4 l0 0 Z" /><glyph glyph-name="steam" unicode="&#xf1b6;" d="M496 192 q-1 -69 -34 -125 l0 0 q-33 -56 -89 -89 l0 0 q-56 -33 -125 -34 q-87 2 -152 51 q-64 50 -87 129 l95 -39 q5 -24 24 -40 q19 -16 45 -16 q30 0 50 21 q20 21 20 52 l84 60 q41 0 68 27 q27 26 28 67 q-1 40 -27 66 q-27 26 -66 27 q-40 -1 -67 -27 q-26 -26 -27 -66 l0 -1 l-59 -86 q-24 1 -44 -12 l-133 55 q10 98 79 162 q68 64 169 66 q69 -1 125 -34 q56 -33 89 -89 q33 -56 34 -125 l0 0 ZM156 64 l-31 12 q9 -18 27 -25 q21 -9 41 -1 q19 8 28 29 q9 20 1 40 q-9 20 -29 29 q-20 8 -39 0 l32 -13 q15 -6 21 -21 q5 -14 0 -29 q-7 -15 -22 -21 q-14 -6 -29 0 l0 0 ZM330 194 q-27 0 -45 18 l0 0 q-17 17 -18 44 q1 26 18 44 q18 18 45 18 q26 0 44 -18 q17 -18 18 -44 q-1 -27 -18 -44 q-18 -18 -44 -18 l0 0 ZM330 209 q20 1 33 14 l0 0 q13 13 14 33 q-1 20 -14 33 q-13 13 -33 14 q-20 -1 -34 -14 q-13 -13 -13 -33 q0 -20 14 -33 q13 -13 33 -14 l0 0 Z" /><glyph glyph-name="square-steam" unicode="&#xf1b7;" d="M185 91 q6 15 0 28 l0 0 q-5 14 -19 20 l-30 12 q18 7 37 0 q18 -9 26 -27 q8 -19 0 -38 q-8 -19 -27 -26 q-18 -8 -37 0 q-18 7 -26 24 l29 -12 q14 -6 27 0 q14 5 20 19 l0 0 ZM400 416 l-352 0 q-20 -1 -34 -14 q-13 -14 -14 -34 l0 -161 l117 -48 q18 13 40 11 l56 81 l0 1 q1 37 25 62 q25 24 62 25 q37 -1 62 -25 q25 -25 26 -62 q-1 -38 -27 -63 q-25 -25 -63 -25 l-79 -56 q1 -30 -18 -49 q-19 -19 -47 -20 q-25 1 -42 15 q-18 15 -23 38 l-89 37 l0 -113 q1 -20 14 -34 q14 -13 34 -14 l352 0 q20 1 34 14 q13 14 14 34 l0 352 q-1 20 -14 34 q-14 13 -34 14 l0 0 ZM300 193 q-24 1 -41 18 l0 0 q-16 16 -17 41 q1 25 17 41 q17 16 41 17 q25 -1 42 -17 q16 -16 17 -41 q-1 -25 -17 -41 q-17 -17 -42 -18 l0 0 ZM300 208 q19 1 31 13 l0 0 q13 12 13 31 q0 19 -13 31 q-12 12 -31 13 q-18 -1 -31 -13 q-12 -12 -12 -31 q0 -19 12 -31 q13 -12 31 -13 l0 0 Z" /><glyph glyph-name="spotify" unicode="&#xf1bc;" d="M248 440 q-69 -1 -125 -34 l0 0 q-56 -33 -89 -89 l0 0 q-33 -56 -34 -125 q1 -69 34 -125 q33 -56 89 -89 q56 -33 125 -34 q69 1 125 34 q56 33 89 89 q33 56 34 125 q-1 69 -34 125 q-33 56 -89 89 q-56 33 -125 34 l0 0 ZM349 75 q-6 0 -11 4 q-47 27 -100 32 q-53 4 -107 -8 q-1 0 -2 -1 q-6 -1 -10 -1 q-15 1 -15 15 q1 15 13 17 q62 14 123 10 q60 -5 114 -36 q10 -4 10 -17 q-2 -14 -15 -15 l0 0 ZM376 141 q-7 0 -11 3 l0 0 q-1 1 -2 1 q-48 28 -111 37 q-64 9 -127 -8 q-2 0 -4 -1 q-4 -1 -8 -1 q-18 1 -20 19 q0 16 16 21 q20 6 44 10 q23 3 54 3 q100 0 177 -45 q11 -7 11 -20 q-2 -18 -19 -19 l0 0 ZM407 217 q-7 0 -13 4 q-57 32 -137 39 q-79 8 -144 -10 q-1 0 -2 0 q-5 -2 -11 -2 q-22 2 -23 23 q2 21 17 24 q53 16 118 16 q55 0 109 -12 q53 -12 96 -36 q12 -6 13 -23 q-3 -22 -23 -23 l0 0 Z" /><glyph glyph-name="deviantart" unicode="&#xf1bd;" d="M320 355 l-98 -179 l7 -10 l91 0 l0 -128 l-161 0 l-13 -9 l-44 -84 q-3 -2 -8 -8 q-1 -1 -1 -1 l-93 0 l0 93 l93 180 l-7 9 l-86 0 l0 127 l156 0 l14 10 l43 84 q3 2 8 8 q1 1 1 1 l98 0 l0 -93 l0 0 Z" /><glyph glyph-name="soundcloud" unicode="&#xf1be;" d="M111 192 l6 -65 l-6 -69 q0 -4 -4 -4 q-4 0 -4 4 l-6 69 l6 65 q0 3 4 4 q4 -1 4 -4 l0 0 ZM133 237 q-5 0 -5 -5 l-5 -105 l5 -69 q0 -4 5 -5 q4 1 5 5 l5 69 l-5 105 q-1 5 -5 5 l0 0 ZM158 261 q-5 0 -5 -5 l-5 -130 l5 -68 q0 -5 5 -5 q5 0 6 5 l5 68 l-5 130 q-1 5 -6 5 l0 0 ZM7 165 q-2 0 -2 -3 l-5 -35 l5 -35 q0 -3 2 -3 q2 0 3 3 l5 35 l-5 35 q-1 3 -3 3 l0 0 ZM31 187 q-2 -1 -3 -3 l-6 -57 l6 -56 q1 -3 3 -3 q2 0 3 2 l7 57 l-7 57 q-1 2 -3 3 l0 0 ZM56 198 q-3 0 -3 -3 l-6 -68 l6 -66 q0 -3 3 -3 q3 0 3 3 l7 66 l-7 68 q0 3 -3 3 l0 0 ZM81 200 q-3 0 -3 -3 l-6 -70 l6 -68 q0 -4 3 -4 q4 0 4 4 l7 68 l-7 70 q0 3 -4 3 l0 0 ZM323 311 q-2 1 -4 2 q-4 -1 -6 -2 q-3 -3 -3 -7 l0 -1 l-4 -177 l2 -32 l2 -32 q1 -8 9 -8 q8 0 8 8 l4 64 l-4 178 q0 5 -4 7 l0 0 ZM296 296 q-2 1 -4 1 q-3 0 -5 -1 q-3 -2 -3 -7 l-1 -2 l-2 -160 q0 2 0 -9 q0 -10 3 -57 l0 0 q0 -3 1 -5 q3 -3 7 -3 q3 0 5 2 q3 3 3 6 l0 7 l3 58 l-3 163 q-1 5 -4 7 l0 0 ZM185 273 q-6 0 -6 -6 l-5 -140 l5 -68 q1 -5 6 -5 q5 0 6 5 l5 68 l-5 140 q-1 6 -6 6 l0 0 ZM561 211 q-16 -1 -30 -7 q-6 55 -45 90 q-38 36 -93 37 q-28 0 -51 -10 q-8 -2 -8 -9 l0 -249 q1 -8 9 -10 l218 0 q34 1 56 23 q22 22 23 56 q-1 33 -23 55 q-22 23 -56 24 l0 0 ZM265 271 q-7 -1 -8 -8 l-3 -137 l3 -65 q1 -7 8 -8 q7 1 7 8 l4 65 l-4 137 q-1 7 -7 8 l0 0 ZM211 279 q-6 -1 -6 -7 l-4 -145 l4 -67 q1 -6 6 -7 q6 1 7 7 l4 67 l-4 145 q-1 6 -7 7 l0 0 ZM238 275 q-7 0 -7 -7 l-4 -141 l4 -67 q1 -6 7 -7 q6 1 7 7 l4 67 l-4 141 q-1 7 -7 7 l0 0 Z" /><glyph glyph-name="vine" unicode="&#xf1ca;" d="M384 193 l0 -52 q-28 -6 -52 -6 q-30 -59 -68 -102 q-38 -43 -57 -54 q-20 -13 -43 1 q-15 7 -47 43 q-32 36 -65 113 q-34 78 -52 209 l75 0 q14 -117 45 -187 q31 -70 69 -115 q43 44 76 107 q-38 20 -59 58 q-21 39 -21 88 q0 50 27 82 q26 32 75 33 q56 -2 78 -35 q21 -33 19 -76 q-2 -42 -15 -70 q-3 -2 -26 -1 q-23 0 -38 21 q7 20 8 49 q-1 46 -28 46 q-29 0 -31 -50 q2 -60 39 -87 q37 -27 91 -15 l0 0 Z" /><glyph glyph-name="codepen" unicode="&#xf1cb;" d="M502 288 l-234 156 q-12 8 -24 0 l-234 -156 q-10 -6 -10 -18 l0 -156 q0 -11 10 -18 l234 -156 q12 -8 24 0 l234 156 q10 7 10 18 l0 156 q0 12 -10 18 l0 0 ZM278 385 l172 -115 l-77 -51 l-95 63 l0 103 l0 0 ZM234 385 l0 -103 l-95 -63 l-77 51 l172 115 l0 0 ZM44 229 l55 -37 l-55 -37 l0 74 l0 0 ZM234 -1 l-172 115 l77 51 l95 -63 l0 -103 l0 0 ZM256 140 l-78 52 l78 52 l78 -52 l-78 -52 l0 0 ZM278 -1 l0 103 l95 63 l77 -51 l-172 -115 l0 0 ZM468 155 l-55 37 l55 37 l0 -74 l0 0 Z" /><glyph glyph-name="jsfiddle" unicode="&#xf1cc;" d="M511 211 q-7 3 -7 10 q0 6 -1 11 q-2 20 -8 38 q-19 51 -59 80 q-41 29 -90 34 q-50 4 -98 -22 q-41 -23 -65 -64 q-2 1 -3 2 q-3 1 -5 2 q-46 19 -85 -9 q-39 -29 -33 -77 q0 -5 -5 -9 q-30 -23 -41 -56 q-11 -33 0 -69 q11 -35 40 -57 q28 -22 65 -24 q35 -1 69 -1 q11 0 22 0 q34 0 68 0 q92 0 184 1 q40 1 70 25 q29 23 38 62 q9 37 -6 70 q-16 33 -50 53 l0 0 ZM532 54 q-28 -35 -72 -36 q-60 -1 -121 0 q-25 0 -49 0 q-3 -1 -42 -1 q-40 0 -79 1 q-40 0 -43 0 q-67 0 -95 60 q-14 32 -4 64 q9 32 38 52 q14 7 10 23 q-7 40 27 63 q34 23 72 3 q2 -1 4 -3 q5 -3 9 -3 q4 0 9 8 q21 40 61 62 q50 26 102 17 q52 -9 89 -48 q36 -39 39 -102 q-1 -11 10 -16 q43 -22 53 -64 q11 -42 -18 -80 l0 0 ZM444 134 q-5 -24 -24 -39 l0 0 q-18 -15 -43 -16 q-25 1 -44 18 q-16 15 -37 37 q-16 17 -32 32 q-15 15 -27 24 q-31 22 -60 -4 q-24 -23 -16 -49 q7 -26 32 -37 q24 -12 51 9 q3 3 5 6 q4 4 8 7 q7 4 12 1 q6 -3 1 -12 q-14 -20 -35 -27 q-21 -8 -44 -2 q-22 7 -35 26 q-13 18 -14 44 q2 35 36 56 q35 20 67 -2 q38 -31 62 -60 q23 -26 45 -41 q19 -12 38 -7 q19 5 31 24 q13 26 2 48 q-11 22 -34 28 q-24 7 -47 -13 q-2 -2 -4 -4 q-3 -4 -7 -7 q-9 -5 -12 0 q-4 5 -1 10 q32 45 83 28 q24 -9 36 -30 q11 -22 7 -48 l0 0 Z" /><glyph glyph-name="rebel" unicode="&#xf1d0;" d="M257 -56 q-71 1 -126 35 l0 0 q-56 35 -88 92 l0 0 q-31 57 -30 127 q2 60 32 112 q30 52 85 88 q0 1 0 1 q1 0 1 -1 q-6 -4 -28 -40 q-22 -36 -27 -86 q-5 -51 41 -101 q25 -23 45 -22 q20 0 32 9 q12 9 13 11 q0 0 0 0 q18 26 17 55 q-2 29 -9 49 q-8 21 -9 22 q-9 19 -26 29 q-18 11 -20 11 q0 0 0 0 l29 32 q19 -10 31 -24 q12 -14 12 -15 q0 0 0 0 q0 23 -10 42 q-10 18 -11 19 l44 51 l44 -50 q-14 -23 -18 -42 q-4 -19 -3 -21 q0 0 0 0 q11 18 26 29 q16 10 17 11 q0 0 0 0 l29 -32 q-21 -9 -33 -23 q-13 -15 -13 -17 q0 0 0 0 q-13 -23 -16 -60 q-3 -37 17 -67 q17 -21 37 -19 q20 1 35 11 q15 9 15 10 q0 0 0 0 q38 36 42 74 q5 39 -8 73 q-13 35 -28 56 q-15 22 -16 22 q-4 4 -2 4 q2 0 3 -1 q40 -25 76 -71 q36 -45 40 -134 q-1 -111 -67 -179 q-67 -68 -175 -70 l0 0 Z" /><glyph glyph-name="empire" unicode="&#xf1d1;" d="M288 394 q-17 3 -34 3 l0 19 q59 -3 107 -31 q48 -28 78 -76 l-16 -9 q-9 14 -20 27 l-18 -16 q-40 46 -102 59 l5 24 l0 0 ZM53 126 l23 7 q-9 28 -10 59 q0 31 10 59 l-23 7 q6 17 14 31 l-16 10 q-26 -49 -27 -107 q1 -58 27 -107 l16 9 q-8 15 -14 32 l0 0 ZM213 14 q-62 13 -102 59 l-18 -16 q-11 13 -20 27 l-16 -9 q30 -47 78 -76 q48 -28 107 -31 l0 19 q-17 0 -34 3 l5 24 l0 0 ZM93 327 l18 -15 q40 45 102 58 l-4 24 q16 3 33 3 l0 19 q-59 -3 -107 -31 q-48 -28 -78 -76 l16 -9 q9 15 20 27 l0 0 ZM403 57 l-18 16 q-40 -46 -102 -59 l5 -24 q-17 -3 -34 -3 l0 -19 q59 3 107 31 q48 29 78 76 l-16 9 q-9 -14 -20 -27 l0 0 ZM496 192 q-1 -69 -34 -125 l0 0 q-33 -56 -89 -89 l0 0 q-56 -33 -125 -34 q-69 1 -125 34 q-56 33 -89 89 q-33 56 -34 125 q1 69 34 125 q33 56 89 89 q56 33 125 34 q69 -1 125 -34 q56 -33 89 -89 q33 -56 34 -125 l0 0 ZM484 192 q-1 66 -32 119 l0 0 q-32 53 -85 85 l0 0 q-53 31 -119 32 q-66 -1 -119 -32 q-53 -32 -85 -85 q-31 -53 -32 -119 q1 -66 32 -119 q32 -53 85 -85 q53 -31 119 -32 q66 1 119 32 q53 32 85 85 q31 53 32 119 l0 0 ZM445 299 l-16 -10 q8 -14 14 -31 l-23 -7 q10 -28 10 -59 q-1 -31 -10 -59 l23 -7 q-6 -16 -14 -31 l16 -9 q26 47 27 106 q-1 58 -27 107 l0 0 ZM262 121 q25 5 41 23 l51 -44 q18 20 27 46 l-64 23 q3 11 4 23 q-1 12 -4 24 l64 22 q-9 26 -27 46 l-51 -44 q-16 18 -41 23 l13 67 q-13 3 -27 3 q-14 0 -27 -3 l13 -67 q-25 -5 -40 -23 l-52 44 q-18 -20 -27 -46 l64 -22 q-3 -12 -3 -24 q0 -12 3 -23 l-64 -23 q9 -26 27 -46 l52 44 q15 -18 40 -23 l-13 -67 q13 -2 27 -3 q14 1 27 3 l-13 67 l0 0 Z" /><glyph glyph-name="square-git" unicode="&#xf1d2;" d="M101 114 q11 -1 20 -2 l0 0 q23 -1 31 -2 l0 0 q8 -2 8 -8 q-2 -10 -17 -14 q-16 -3 -32 0 q-16 3 -17 12 q1 8 7 14 l0 0 ZM129 230 q-25 -2 -25 -22 l0 0 q-1 -19 24 -22 q24 3 24 22 q0 20 -23 22 l0 0 ZM448 368 l0 -352 q-1 -20 -14 -34 q-14 -13 -34 -14 l-352 0 q-20 1 -34 14 q-13 14 -14 34 l0 352 q1 20 14 34 q14 13 34 14 l352 0 q20 -1 34 -14 q13 -14 14 -34 l0 0 ZM221 299 q1 -23 23 -23 q22 0 23 23 q-1 22 -23 22 q-22 0 -23 -22 l0 0 ZM199 253 l-49 0 q-22 6 -51 -2 q-28 -7 -31 -45 q2 -28 22 -38 q0 0 0 0 q-23 -19 -23 -31 q-1 -10 11 -16 q-14 -11 -14 -26 q-3 -31 64 -32 q68 1 69 46 q1 24 -19 31 q-19 6 -61 7 q-7 1 -14 1 l8 14 q9 -3 27 -2 q17 1 32 10 q14 10 15 34 q-1 17 -9 26 l23 1 l0 22 ZM284 143 l-13 2 q-5 0 -5 5 l0 105 l-52 0 l-3 -20 q4 -2 7 -2 q12 -3 10 -8 l0 -75 q2 -6 -10 -6 q-3 0 -7 -1 l0 -20 l72 0 l1 20 ZM384 133 l-7 22 q-28 -9 -33 0 q-6 10 -5 16 q0 1 0 1 l0 61 l38 0 l0 25 l-36 0 q0 0 0 0 q-2 -1 -2 5 q0 6 0 34 l-24 0 q-2 -40 -34 -42 l0 -22 q6 0 10 0 q13 1 10 -3 l0 -66 q-2 -42 42 -41 q23 1 41 10 l0 0 Z" /><glyph glyph-name="git" unicode="&#xf1d3;" d="M216 290 l-79 0 q-21 5 -52 3 q-30 -2 -54 -20 q-23 -18 -24 -58 q2 -46 35 -61 q-1 0 -1 0 q-18 -17 -27 -28 q-10 -10 -9 -21 q-2 -18 17 -27 q-22 -17 -22 -42 q-1 -24 23 -37 q24 -13 79 -13 q109 1 111 73 q1 39 -30 49 q-31 10 -98 12 q-11 1 -23 2 l13 21 q15 -4 43 -3 q28 2 51 17 q23 16 25 54 q-2 28 -15 41 l37 3 l0 35 ZM153 48 q-2 -16 -27 -22 l0 0 q-26 -5 -51 0 l0 0 q-25 4 -27 19 q1 12 11 22 q18 -1 32 -2 q37 -2 50 -5 q13 -3 12 -12 l0 0 ZM102 182 q-26 2 -35 19 l0 0 q-8 17 1 34 l0 0 q9 17 35 18 q25 -1 34 -18 q8 -17 -1 -34 q-8 -17 -34 -19 l0 0 ZM235 82 l0 32 q7 1 11 1 q12 1 14 3 q3 2 3 7 l0 119 q0 5 -3 7 q-3 2 -13 6 q-5 1 -12 4 l5 33 l84 0 l0 -169 q-1 -8 7 -8 l20 -3 l0 -32 l-116 0 ZM288 326 q-36 1 -37 37 q1 35 37 35 q36 0 37 -35 q-1 -36 -37 -37 l0 0 ZM512 98 q-29 -15 -66 -17 q-36 0 -52 16 q-15 15 -15 50 l0 106 q0 1 0 1 q1 3 -4 3 q-5 1 -28 0 l0 36 q27 3 39 19 q13 15 16 48 l38 0 q0 -23 0 -35 q0 -21 1 -25 q0 -3 3 -2 l57 0 l0 -41 l-61 0 l0 -97 q0 0 0 -1 q0 -6 2 -16 q3 -11 16 -16 q13 -4 43 6 l11 -35 Z" /><glyph glyph-name="hacker-news" unicode="&#xf1d4;" d="M0 416 l0 -448 l448 0 l0 448 l-448 0 l0 0 ZM21 219 l0 0 q0 0 0 0 q0 0 0 0 q0 0 0 0 l0 0 ZM239 165 l0 -101 l-31 0 l0 103 l-80 153 l37 0 q30 -56 41 -79 q10 -23 13 -33 q3 -6 6 -14 q4 10 7 18 q3 9 13 31 q11 22 40 77 l35 0 l-81 -155 l0 0 Z" /><glyph glyph-name="tencent-weibo" unicode="&#xf1d5;" d="M72 -48 q0 -15 -13 -16 l0 0 q-13 -1 -16 13 q-8 98 20 178 q27 80 81 135 q-11 28 4 52 q15 24 47 26 q23 -1 39 -17 q15 -15 16 -39 q-2 -34 -30 -48 q-27 -15 -57 3 q-50 -53 -74 -126 q-24 -72 -17 -161 l0 0 ZM192 448 q-64 -2 -107 -39 l0 0 q-43 -37 -56 -93 l0 0 q-12 -55 15 -110 q8 -13 19 -7 q12 6 7 20 q-22 47 -11 93 q11 45 46 75 q36 30 87 31 q58 -1 97 -40 q38 -39 40 -97 q-1 -46 -26 -79 q-24 -34 -62 -49 q-39 -15 -80 -5 q-15 2 -17 -11 q-3 -13 11 -18 q56 -11 102 9 q46 20 73 61 q28 40 29 92 q-2 71 -49 118 q-47 47 -118 49 l0 0 Z" /></font>
</defs>
</svg>
